<svg id="레이어_1" data-name="레이어 1" xmlns="http://www.w3.org/2000/svg" viewBox="0 0 1080 1080"><defs><style>.cls-1{fill:#1d2087;}.cls-2{fill:#fff;}.cls-3{fill:#e50012;}</style></defs><path class="cls-1" d="M515.53.57C217.62,14-13,266.4.57,564.37s265.91,528.47,563.86,515.07,528.53-266,515-563.89S813.54-13,515.53.57Z"/><path class="cls-2" d="M348.21,649.32A86.4,86.4,0,1,1,414.14,507l32.4-32.4A132.19,132.19,0,1,0,436.3,661.29q4.8-4.31,9.18-9.07l-32.4-32.4A86.16,86.16,0,0,1,348.21,649.32Z"/><rect class="cls-2" x="464.64" y="430.67" width="55.64" height="263.78"/><rect class="cls-2" x="755.87" y="430.67" width="55.64" height="263.78"/><path class="cls-2" d="M661.35,639.37V484.49h45.23V436.65H661.35V362.76l-55.66,27.43v46.46H561v47.84h44.72V639.37s1,55.18,55.14,55.18,66.29-26.61,66.29-55.72H683.44S673.25,650.86,661.35,639.37Z"/><path class="cls-3" d="M636.83,326.16c57,0,110,26.75,153.92,72.47H864c-59.36-70.8-139.23-114.26-227.17-114.26S469,327.83,409.64,398.63h73.25C526.78,352.93,579.77,326.16,636.83,326.16Z"/></svg>