<svg width="1000" height="1000" viewBox="0 0 1000 1000" fill="none" xmlns="http://www.w3.org/2000/svg">
<g clip-path="url(#clip0_434_1789)">
<mask id="mask0_434_1789" style="mask-type:luminance" maskUnits="userSpaceOnUse" x="0" y="0" width="1000" height="1000">
<path d="M1000 0H0V1000H1000V0Z" fill="white"/>
</mask>
<g mask="url(#mask0_434_1789)">
<path d="M936.07 944.48L930.98 958.32" stroke="#CCDDE2" stroke-width="3.69" stroke-miterlimit="10"/>
<path d="M920.08 987.98L883.27 1088.06" stroke="#CCDDE2" stroke-width="3.69" stroke-miterlimit="10" stroke-dasharray="28.96 31.6 31.6 28.96"/>
<path d="M926.53 858.172L921.49 872.032" stroke="#CCDDE2" stroke-width="3.69" stroke-miterlimit="10"/>
<path d="M911.28 900.141L876.83 995.001" stroke="#CCDDE2" stroke-width="3.69" stroke-miterlimit="10" stroke-dasharray="27.41 29.9 29.9 27.41"/>
<path d="M927.85 755.559L922.82 769.419" stroke="#CCDDE2" stroke-width="3.69" stroke-miterlimit="10"/>
<path d="M912.43 798.121L877.33 894.961" stroke="#CCDDE2" stroke-width="3.69" stroke-miterlimit="10" stroke-dasharray="27.98 30.52 30.52 27.98"/>
<path d="M872.56 908.121L513.36 1899.3" stroke="#CCDDE2" stroke-width="3.69" stroke-miterlimit="10" stroke-dasharray="30.52 30.52 27.98 30.52 30.52 27.98"/>
<path d="M918.3 669.242L913.26 683.102" stroke="#CCDDE2" stroke-width="3.69" stroke-miterlimit="10"/>
<path d="M903.54 709.77L870.75 799.789" stroke="#CCDDE2" stroke-width="3.69" stroke-miterlimit="10" stroke-dasharray="26.02 28.39 28.39 26.02"/>
<path d="M866.3 812.012L530.73 1733.3" stroke="#CCDDE2" stroke-width="3.69" stroke-miterlimit="10" stroke-dasharray="28.39 28.39 26.02 28.39 28.39 26.02"/>
<path d="M780.89 922.762L775.82 936.612" stroke="#CCDDE2" stroke-width="3.69" stroke-miterlimit="10"/>
<path d="M765.98 963.512L732.78 1054.31" stroke="#CCDDE2" stroke-width="3.69" stroke-miterlimit="10" stroke-dasharray="26.26 28.64 28.64 26.26"/>
<path d="M771.34 836.449L766.27 850.299" stroke="#CCDDE2" stroke-width="3.69" stroke-miterlimit="10"/>
<path d="M756.08 878.102L721.69 971.922" stroke="#CCDDE2" stroke-width="3.69" stroke-miterlimit="10" stroke-dasharray="27.14 29.61 29.61 27.14"/>
<path d="M717.02 984.672L483.97 1620.61" stroke="#CCDDE2" stroke-width="3.69" stroke-miterlimit="10" stroke-dasharray="29.61 29.61 27.14 29.61 29.61 27.14"/>
<path d="M761.8 750.141L756.71 763.981" stroke="#CCDDE2" stroke-width="3.69" stroke-miterlimit="10"/>
<path d="M745.8 793.629L708.99 893.709" stroke="#CCDDE2" stroke-width="3.69" stroke-miterlimit="10" stroke-dasharray="28.96 31.6 31.6 28.96"/>
<path d="M703.99 907.301L518.14 1412.64" stroke="#CCDDE2" stroke-width="3.69" stroke-miterlimit="10" stroke-dasharray="31.6 31.6 28.96 31.6 31.6 28.96"/>
<path d="M752.25 663.82L747.22 677.68" stroke="#CCDDE2" stroke-width="3.69" stroke-miterlimit="10"/>
<path d="M737.01 705.789L702.55 800.649" stroke="#CCDDE2" stroke-width="3.69" stroke-miterlimit="10" stroke-dasharray="27.41 29.9 29.9 27.41"/>
<path d="M697.88 813.539L404.8 1620.45" stroke="#CCDDE2" stroke-width="3.69" stroke-miterlimit="10" stroke-dasharray="29.9 29.9 27.41 29.9 29.9 27.41"/>
<path d="M742.71 577.512L737.68 591.382" stroke="#CCDDE2" stroke-width="3.69" stroke-miterlimit="10"/>
<path d="M727.28 620.07L692.19 716.92" stroke="#CCDDE2" stroke-width="3.69" stroke-miterlimit="10" stroke-dasharray="27.98 30.52 30.52 27.98"/>
<path d="M687.42 730.07L328.21 1721.26" stroke="#CCDDE2" stroke-width="3.69" stroke-miterlimit="10" stroke-dasharray="30.52 30.52 27.98 30.52 30.52 27.98"/>
<path d="M733.16 491.199L728.11 505.049" stroke="#CCDDE2" stroke-width="3.69" stroke-miterlimit="10"/>
<path d="M718.4 531.73L685.61 621.74" stroke="#CCDDE2" stroke-width="3.69" stroke-miterlimit="10" stroke-dasharray="26.02 28.39 28.39 26.02"/>
<path d="M681.16 633.969L345.58 1555.25" stroke="#CCDDE2" stroke-width="3.69" stroke-miterlimit="10" stroke-dasharray="28.39 28.39 26.02 28.39 28.39 26.02"/>
<path d="M544.52 891.289L539.45 905.139" stroke="#CCDDE2" stroke-width="3.69" stroke-miterlimit="10"/>
<path d="M529.61 932.051L496.41 1022.84" stroke="#CCDDE2" stroke-width="3.69" stroke-miterlimit="10" stroke-dasharray="26.26 28.64 28.64 26.26"/>
<path d="M534.97 804.98L529.9 818.831" stroke="#CCDDE2" stroke-width="3.69" stroke-miterlimit="10"/>
<path d="M519.71 846.629L485.33 940.459" stroke="#CCDDE2" stroke-width="3.69" stroke-miterlimit="10" stroke-dasharray="27.14 29.61 29.61 27.14"/>
<path d="M480.66 953.199L247.6 1589.14" stroke="#CCDDE2" stroke-width="3.69" stroke-miterlimit="10" stroke-dasharray="29.61 29.61 27.14 29.61 29.61 27.14"/>
<path d="M525.43 718.672L520.34 732.512" stroke="#CCDDE2" stroke-width="3.69" stroke-miterlimit="10"/>
<path d="M509.43 762.16L472.62 862.24" stroke="#CCDDE2" stroke-width="3.69" stroke-miterlimit="10" stroke-dasharray="28.96 31.6 31.6 28.96"/>
<path d="M467.63 875.832L281.77 1381.17" stroke="#CCDDE2" stroke-width="3.69" stroke-miterlimit="10" stroke-dasharray="31.6 31.6 28.96 31.6 31.6 28.96"/>
<path d="M515.88 632.352L510.85 646.222" stroke="#CCDDE2" stroke-width="3.69" stroke-miterlimit="10"/>
<path d="M500.64 674.32L466.19 769.19" stroke="#CCDDE2" stroke-width="3.69" stroke-miterlimit="10" stroke-dasharray="27.41 29.9 29.9 27.41"/>
<path d="M461.51 782.07L168.43 1588.98" stroke="#CCDDE2" stroke-width="3.69" stroke-miterlimit="10" stroke-dasharray="29.9 29.9 27.41 29.9 29.9 27.41"/>
<path d="M506.34 546.039L501.31 559.909" stroke="#CCDDE2" stroke-width="3.69" stroke-miterlimit="10"/>
<path d="M490.91 588.602L455.82 685.452" stroke="#CCDDE2" stroke-width="3.69" stroke-miterlimit="10" stroke-dasharray="27.98 30.52 30.52 27.98"/>
<path d="M451.05 698.602L91.8501 1689.79" stroke="#CCDDE2" stroke-width="3.69" stroke-miterlimit="10" stroke-dasharray="30.52 30.52 27.98 30.52 30.52 27.98"/>
<path d="M496.79 459.73L491.75 473.58" stroke="#CCDDE2" stroke-width="3.69" stroke-miterlimit="10"/>
<path d="M482.03 500.262L449.24 590.272" stroke="#CCDDE2" stroke-width="3.69" stroke-miterlimit="10" stroke-dasharray="26.02 28.39 28.39 26.02"/>
<path d="M444.79 602.5L109.21 1523.78" stroke="#CCDDE2" stroke-width="3.69" stroke-miterlimit="10" stroke-dasharray="28.39 28.39 26.02 28.39 28.39 26.02"/>
<path d="M490.37 417.861C490.37 417.861 537.71 363.861 635.29 410.701C721 451.831 743.71 534.061 743.71 534.061" stroke="#CCDDE2" stroke-width="5.2" stroke-miterlimit="10"/>
<path d="M854.46 844.149L855.02 843.839C858.325 841.828 861.351 839.39 864.02 836.589C867.505 837.952 871.208 838.67 874.95 838.709C879.058 838.766 883.137 838.013 886.953 836.493C890.77 834.974 894.25 832.717 897.195 829.852C900.14 826.987 902.491 823.571 904.115 819.797C905.739 816.023 906.604 811.967 906.66 807.859C906.677 805.695 906.479 803.534 906.07 801.409C918.345 799.826 929.61 793.788 937.723 784.442C945.836 775.096 950.232 763.094 950.074 750.719C949.916 738.344 945.215 726.458 936.866 717.322C928.517 708.186 917.101 702.437 904.79 701.169V700.969C905.068 695.203 904.183 689.439 902.186 684.022C900.19 678.606 897.123 673.646 893.168 669.44C889.214 665.234 884.453 661.868 879.169 659.541C873.886 657.214 868.188 655.976 862.415 655.898C856.643 655.821 850.914 656.907 845.57 659.091C840.226 661.276 835.377 664.514 831.311 668.613C827.246 672.711 824.047 677.587 821.906 682.948C819.765 688.31 818.726 694.047 818.85 699.819C818.85 700.309 818.85 700.819 818.85 701.279C815.177 700.393 811.418 699.917 807.64 699.859C798.32 699.729 789.146 702.183 781.136 706.949C773.126 711.715 766.593 718.606 762.26 726.859M771.15 785.869C777.004 791.75 784.216 796.098 792.15 798.529C790.849 804.393 790.814 810.468 792.046 816.347C793.278 822.226 795.749 827.775 799.295 832.624C802.841 837.473 807.38 841.51 812.609 844.466C817.838 847.423 823.637 849.231 829.62 849.769L771.15 785.869Z" stroke="#CCDDE2" stroke-width="5.2" stroke-miterlimit="10"/>
<path d="M865.65 767.68C868.53 781.92 875.23 790.19 882.34 794.97" stroke="#CCDDE2" stroke-width="5.2" stroke-miterlimit="10"/>
<path d="M906 801.391C904.191 801.516 902.374 801.486 900.57 801.301" stroke="#CCDDE2" stroke-width="5.2" stroke-miterlimit="10"/>
<path d="M818.8 701.238C818.8 701.238 818.17 723.858 839.63 732.878" stroke="#CCDDE2" stroke-width="5.2" stroke-miterlimit="10"/>
<path d="M880 813.549C880 813.549 826.4 804.869 874.14 952.709" stroke="#CCDDE2" stroke-width="5.2" stroke-miterlimit="10"/>
<path d="M812.46 803.488C812.46 803.488 856.71 826.758 802.91 951.758" stroke="#CCDDE2" stroke-width="5.2" stroke-miterlimit="10"/>
<path d="M481.97 426.71L482.01 426.68" stroke="#CCDDE2" stroke-width="5.2" stroke-miterlimit="10"/>
<path d="M341.74 508.14C359.99 509.01 377.68 507.03 394.13 497.59C405.06 491.35 418.5 483.82 429.08 474.18" stroke="#CCDDE2" stroke-width="5.2" stroke-miterlimit="10"/>
<path d="M162.37 668.57C170.87 689.73 181.87 710.23 191.24 729.87C196.3 740.56 201.19 751.87 201.24 764.01C201.35 782.78 189.45 799.57 174.94 808.94C153.82 822.57 128.66 821.32 107.78 835.76C88.1901 849.25 78.0001 866.67 74.8701 886.2" stroke="#CCDDE2" stroke-width="5.2" stroke-miterlimit="10"/>
<path d="M257.12 501.272C257.92 501.202 258.68 501.132 259.48 501.102" stroke="#CCDDE2" stroke-width="5.2" stroke-miterlimit="10"/>
<path d="M770.43 953.439C770.43 953.439 781 941.269 781 913.859C781 886.449 764.61 874.289 764.61 874.289C782.38 913.379 745.73 953.439 745.73 953.439C737.99 944.175 733.516 932.62 733 920.559C733 920.559 723 937.789 731.33 953.439" stroke="#CCDDE2" stroke-width="5.2" stroke-linejoin="round"/>
<path d="M68.53 953.44C68.53 953.44 50 932.07 50 884C50 835.93 78.77 814.5 78.77 814.5C47.56 883.14 111.92 953.5 111.92 953.5C113.92 950.86 132.4 931.02 134.35 895.76C134.35 895.76 151.91 926.02 137.28 953.5" stroke="#CCDDE2" stroke-width="5.2" stroke-linejoin="round"/>
<path d="M799 560.738L799.1 560.948" stroke="#CCDDE2" stroke-width="5.2" stroke-miterlimit="10"/>
<path d="M676.21 953.69H595.33V952.34C596.906 951.578 598.276 950.449 599.324 949.047C600.373 947.646 601.069 946.013 601.356 944.287C601.642 942.56 601.509 940.79 600.969 939.125C600.428 937.46 599.496 935.949 598.25 934.72C597.402 933.863 596.414 933.157 595.33 932.63V931.45H670.55C692.03 931.39 687.93 935.27 691.82 942.73C695.71 950.19 676.21 953.69 676.21 953.69Z" fill="#B1B2FF"/>
<path d="M219 949.601C215.6 952.381 210.33 953.691 210.33 953.691H166.58V869.561L189.52 859.461C189.725 859.403 189.923 859.322 190.11 859.221L190.87 858.871V931.451H207.52C209.494 931.459 211.465 931.599 213.42 931.871C217.86 932.601 219.07 934.231 219.8 936.761C219.8 936.761 219.87 936.761 219.8 936.831C220.29 938.461 220.6 940.411 221.44 942.731C222.58 945.611 221.16 947.901 219 949.601Z" fill="#B1B2FF"/>
<path d="M52.23 953.699H879" stroke="black" stroke-width="5.2" stroke-miterlimit="10"/>
<path d="M493.85 803.681L469.22 878.481C466.125 886.952 460.501 894.267 453.111 899.437C445.72 904.606 436.919 907.379 427.9 907.381H190.73L190.87 919.451V920.671L191.01 931.451V931.521L206.34 931.451H210.34C211.385 931.445 212.425 931.586 213.43 931.871C216.095 932.643 218.372 934.388 219.81 936.761C219.81 936.761 219.88 936.761 219.81 936.831C220.885 938.548 221.454 940.534 221.45 942.561V942.731C221.442 944.185 221.148 945.623 220.583 946.963C220.019 948.303 219.196 949.519 218.161 950.541C217.127 951.562 215.9 952.37 214.553 952.917C213.206 953.465 211.764 953.741 210.31 953.731H166.58V869.561C174.433 865.954 182.08 862.587 189.52 859.461C189.725 859.402 189.923 859.322 190.11 859.221L190.87 858.911C303 812.251 372.74 818.001 372.74 818.001L413.68 685.641" stroke="black" stroke-width="5.2" stroke-miterlimit="10"/>
<path d="M804.03 571.109L760.17 604.529" stroke="black" stroke-width="5.2" stroke-miterlimit="10"/>
<path d="M657.76 807.641L682.8 799.691" stroke="black" stroke-width="5.2" stroke-miterlimit="10"/>
<path d="M647.34 579.309C647.34 579.309 480.43 768.599 510.26 934.539C512.26 945.229 521.16 953.589 532.02 953.689H589.85C591.759 953.689 593.64 953.226 595.33 952.339C596.906 951.577 598.276 950.448 599.324 949.046C600.373 947.645 601.069 946.012 601.356 944.285C601.642 942.558 601.509 940.788 600.969 939.123C600.428 937.459 599.496 935.948 598.25 934.719C597.402 933.862 596.414 933.155 595.33 932.629C593.781 931.843 592.067 931.439 590.33 931.449H572.33" stroke="black" stroke-width="5.2" stroke-miterlimit="10"/>
<path d="M621.22 811.141L686.72 718.291L747.33 632.391C764.95 607.451 764.12 573.171 743.75 550.391C694.62 495.391 580.15 531.831 525.59 560.741C482.59 583.531 443.42 617.461 422.8 662.321C381.8 751.621 430.36 789.191 493.8 803.901C502.1 805.811 510.67 807.341 519.27 808.551" stroke="black" stroke-width="5.2" stroke-miterlimit="10"/>
<path d="M657.75 807.63C657.75 807.63 643.25 809.63 621.22 811.14C599.6 842.99 575.22 876.26 547.91 910.29C547.12 911.262 546.642 912.45 546.536 913.699C546.431 914.947 546.704 916.199 547.32 917.29C549.872 921.594 553.5 925.16 557.849 927.636C562.198 930.112 567.116 931.413 572.12 931.41H572.4L657.75 807.59" stroke="black" stroke-width="5.2" stroke-miterlimit="10"/>
<path d="M686.72 718.289H736.5C773.21 718.289 792.78 761.559 768.56 789.139L643.28 931.799H679.57C681.035 931.755 682.494 932.005 683.861 932.535C685.228 933.065 686.474 933.864 687.526 934.885C688.578 935.906 689.414 937.127 689.985 938.477C690.557 939.827 690.851 941.278 690.851 942.744C690.851 944.21 690.557 945.661 689.985 947.011C689.414 948.361 688.578 949.582 687.526 950.603C686.474 951.624 685.228 952.423 683.861 952.953C682.494 953.483 681.035 953.733 679.57 953.689H557.07" stroke="black" stroke-width="5.2" stroke-miterlimit="10"/>
<path d="M507.42 913.859C501 920.629 496 928.329 491.08 936.209C488.13 940.959 485.56 946.549 490.25 951.269C494.13 955.119 498.25 953.759 501.52 951.469C504.109 949.599 506.214 947.137 507.66 944.289L511.1 937.769" stroke="black" stroke-width="5.2" stroke-miterlimit="10"/>
<path d="M892.45 504.51C891.45 511.21 886.14 518.04 880.59 520.23C874.79 522.48 868.17 520.23 862.96 517.59C856.27 514.29 850.06 509.99 843.81 505.97L839.75 504.2C839.758 504.177 839.758 504.153 839.75 504.13C838.422 503.583 836.936 503.558 835.59 504.06C835.274 504.139 834.968 504.257 834.68 504.41C834.102 504.691 833.575 505.066 833.12 505.52C832.404 506.202 831.839 507.027 831.46 507.94C827.97 516.801 825.455 526.015 823.96 535.42L814.42 536.67C814.454 535.797 814.605 534.932 814.87 534.1C814.875 534.089 814.877 534.077 814.877 534.065C814.877 534.053 814.875 534.041 814.87 534.03C815.56 531.67 816.53 529.48 814.87 528.62C814.752 527.186 814.262 525.807 813.45 524.62C812.45 523.34 810.88 522.68 808.45 523.1C807.582 523.243 806.733 523.484 805.92 523.82C803.789 524.665 801.87 525.97 800.3 527.64C799.644 528.308 799.042 529.027 798.5 529.79C797.687 530.906 797.015 532.119 796.5 533.4C796.314 533.813 796.164 534.241 796.05 534.68C795.16 537.346 795.209 540.236 796.19 542.87C796.362 543.325 796.569 543.767 796.81 544.19L789.28 550.68C789.019 550.91 788.741 551.12 788.45 551.31C784.81 553.71 778.98 553.71 773.81 552.39C770.69 551.59 771.96 549.95 769.92 548.39C767.04 549.29 766.92 543.85 767.11 543.19C768.5 539.38 763.3 536.19 762.78 535.8C760.84 535.42 759.63 534.8 759 533.86H760.39C763.27 533.86 767.33 534.49 769.96 533.62C768.4 527.16 766.11 523.73 771.25 518.18C775.52 513.5 777.04 509.18 776.17 502.71C776.17 502.33 778.26 502.57 778.26 502.16C779.64 498.16 782.35 494.42 784.99 493.16C789.7 490.87 796.64 492.77 797.34 486.81C797.811 482.065 799.774 477.591 802.947 474.032C806.12 470.473 810.34 468.011 815 467C821.94 465.47 826.86 471.16 832.8 473.31C840.01 475.98 847.47 471.85 855.03 474.66C858.78 476.05 861.24 478.66 863.74 481.66C865.82 484.23 867.87 486.87 869.74 489.57C871.61 492.27 873.35 494.71 876.41 495.89C880.41 497.45 885.18 496.41 888.76 499.11C890.571 500.435 891.874 502.341 892.45 504.51Z" fill="#B1B2FF"/>
<path d="M761.73 534.08L766.61 542.41C768.26 545.22 770.61 551.08 773.61 552.31H773.67H773.75C778.98 554.39 784.66 553.89 788.38 551.31C788.691 551.115 788.982 550.891 789.25 550.64L796.76 544.14C792.12 535.85 799.64 524.53 808.36 523.03C812.82 522.28 814.36 525.03 814.85 528.53C815.03 530.359 815.03 532.201 814.85 534.03C814.85 534.61 814.78 535.13 814.73 535.68" stroke="black" stroke-width="5.2" stroke-linecap="round" stroke-linejoin="round"/>
<path d="M859.76 526.908C859.76 526.908 846.86 520.298 838.44 529.288" stroke="black" stroke-width="5.2" stroke-miterlimit="10"/>
<path d="M849.1 563.36C852.28 565.68 856.71 568.36 860.62 566.36L859.46 551.55C859.192 547.926 860.165 544.318 862.22 541.32C865.64 536.26 872.12 529.06 871.45 520.41" stroke="black" stroke-width="5.2" stroke-miterlimit="10"/>
<path d="M854.613 541.515C855.816 539.397 855.331 536.851 853.53 535.828C851.729 534.805 849.294 535.692 848.091 537.81C846.888 539.928 847.373 542.474 849.174 543.497C850.974 544.52 853.41 543.632 854.613 541.515Z" fill="black"/>
<path d="M814.4 536.682C814.51 536.382 814.61 536.062 814.72 535.762C814.83 535.462 814.93 535.092 815.06 534.762" stroke="black" stroke-width="5.2" stroke-linecap="round" stroke-linejoin="round"/>
<path d="M814.39 536.69L817.66 536.27L823.94 535.43" stroke="black" stroke-width="5.2" stroke-linecap="round" stroke-linejoin="round"/>
<path d="M831.31 557.578C831.31 557.578 828.22 566.438 836.86 573.888" stroke="black" stroke-width="5.2" stroke-miterlimit="10"/>
<path d="M720.67 533.859C723.55 533.859 767.28 534.489 769.91 533.619C768.35 527.159 766.06 523.729 771.2 518.179C775.47 513.499 776.99 509.179 776.12 502.709C776.057 502.309 776.024 501.904 776.02 501.499C775.67 495.879 778.24 491.439 783.2 488.689C787.92 486.059 793.3 486.579 794.03 480.439C794.326 477.77 795.063 475.168 796.21 472.739C797.822 469.585 800.094 466.814 802.872 464.616C805.65 462.417 808.869 460.843 812.31 459.999C819.46 458.409 824.52 464.299 830.7 466.519C838.09 469.269 845.83 465.029 853.6 467.879C857.48 469.329 860.01 472.009 862.6 475.129C864.79 477.799 866.87 480.509 868.78 483.319C870.65 485.949 872.52 488.589 875.68 489.799C879.78 491.399 884.74 490.319 888.38 493.129C892.02 495.939 893.17 500.209 892.47 504.479C891.47 511.179 886.16 518.009 880.61 520.199C874.81 522.449 868.19 520.199 862.98 517.559C856.29 514.259 850.08 509.959 843.83 505.939L839.77 504.169C838.439 503.607 836.946 503.557 835.58 504.029C835.263 504.108 834.958 504.226 834.67 504.379C834.098 504.67 833.572 505.044 833.11 505.489C832.392 506.17 831.826 506.994 831.45 507.909C827.96 516.77 825.445 525.984 823.95 535.389" stroke="black" stroke-width="5.2" stroke-miterlimit="10"/>
<path d="M798.73 560C798.73 560 810.11 590 825.81 590.68C841.51 591.36 852.09 565.87 852.09 565.87" stroke="black" stroke-width="5.2" stroke-linecap="round" stroke-linejoin="round"/>
<path d="M754.48 619.5L713.73 718.29" stroke="black" stroke-width="5.2" stroke-miterlimit="10"/>
<path d="M759.73 590.289L760.16 590.699C760.01 589.699 759.83 588.839 759.65 587.919C759.422 583.149 758.52 578.436 756.97 573.919C755.108 568.329 752.267 563.115 748.58 558.519C709.93 496.959 599.65 531.839 599.65 531.839C532.65 541.839 426.65 611.209 409.35 703.159C392.05 795.109 507.58 806.709 513.24 807.659C514.746 807.985 516.32 807.761 517.676 807.028C519.031 806.294 520.079 805.099 520.63 803.659C554.48 685.659 636.41 592.479 636.42 592.469C645.42 582.209 647.65 570.589 660.05 562.759C673.61 554.189 690.13 552.559 705.38 557.109C744.61 568.809 750.85 608.939 739.53 643.439C739.53 643.439 760 618.339 759.73 590.289Z" fill="#2E2E2E"/>
<path d="M185.65 443.262L185.62 443.302" stroke="#CCDDE2" stroke-width="5.2" stroke-miterlimit="10"/>
<path d="M303.33 442.811L303.3 442.781" stroke="#CCDDE2" stroke-width="5.2" stroke-miterlimit="10"/>
<path d="M173.75 498.319C156.13 515.739 138.29 526.248 133.92 521.808C129.55 517.368 140.31 499.709 157.92 482.289C175.53 464.869 193.34 454.398 197.71 458.808C197.808 458.889 197.881 458.997 197.92 459.118C201.64 463.998 191 481.319 173.75 498.319Z" stroke="black" stroke-width="5.2" stroke-miterlimit="10"/>
<path d="M242.69 513.239C242.625 521.553 240.669 529.743 236.97 537.19C233.271 544.636 227.927 551.143 221.341 556.218C214.755 561.293 207.101 564.803 198.958 566.482C190.814 568.161 182.396 567.965 174.34 565.909C164.094 563.267 154.832 557.714 147.674 549.922C140.515 542.13 135.766 532.432 134 521.999C133.981 521.94 133.981 521.877 134 521.819C138.37 526.259 156.21 515.749 173.83 498.329C191.07 481.329 201.72 464.019 198.01 459.129H198C208.372 461.085 217.959 465.995 225.608 473.268C233.257 480.541 238.643 489.869 241.12 500.129C242.178 504.418 242.705 508.821 242.69 513.239Z" fill="#B1B2FF"/>
<path d="M198 459.089C193.71 447.869 201 437.569 212.2 435.089C226.41 431.919 236.63 442.779 242.68 454.399C250.25 468.949 247.86 488.179 239.46 502.219" stroke="black" stroke-width="5.2" stroke-miterlimit="10"/>
<path d="M134.2 522.109C123 517.679 112.64 524.849 110 535.999C106.65 550.159 117.38 560.519 128.93 566.719C143.38 574.469 162.3 572.579 176.45 564.359" stroke="black" stroke-width="5.2" stroke-miterlimit="10"/>
<path d="M231.68 545.648L275 589.528C276.516 591.105 277.351 593.216 277.322 595.403C277.294 597.591 276.405 599.679 274.849 601.216C273.292 602.753 271.193 603.615 269.005 603.616C266.817 603.616 264.717 602.755 263.16 601.218L219.83 557.328L231.68 545.648Z" stroke="black" stroke-width="5.2" stroke-miterlimit="10"/>
<path d="M307.63 575.581C313.2 581.231 304.63 598.781 288.38 614.791C272.13 630.801 254.5 639.191 248.93 633.551C244.04 628.601 250.01 614.551 262.4 600.421L263.18 601.221C264.752 602.679 266.827 603.473 268.971 603.438C271.115 603.404 273.162 602.543 274.687 601.035C276.211 599.527 277.095 597.489 277.153 595.346C277.212 593.203 276.44 591.12 275 589.531L274.21 588.741C288.57 576.461 302.74 570.641 307.63 575.581Z" fill="#B1B2FF"/>
<path d="M242.69 513.239C242.625 521.553 240.669 529.743 236.97 537.19C233.271 544.636 227.927 551.143 221.341 556.218C214.755 561.293 207.101 564.803 198.958 566.482C190.814 568.161 182.396 567.965 174.34 565.909C164.094 563.267 154.832 557.714 147.674 549.922C140.515 542.13 135.766 532.432 134 521.999C133.981 521.94 133.981 521.877 134 521.819C138.37 526.259 156.21 515.749 173.83 498.329C191.07 481.329 201.72 464.019 198.01 459.129H198C208.372 461.085 217.959 465.995 225.608 473.268C233.257 480.541 238.643 489.869 241.12 500.129C242.178 504.418 242.705 508.821 242.69 513.239Z" stroke="black" stroke-width="5.2" stroke-miterlimit="10"/>
<path d="M307.63 575.581C313.2 581.231 304.63 598.781 288.38 614.791C272.13 630.801 254.5 639.191 248.93 633.551C244.04 628.601 250.01 614.551 262.4 600.421L263.18 601.221C264.752 602.679 266.827 603.473 268.971 603.438C271.115 603.404 273.162 602.543 274.687 601.035C276.211 599.527 277.095 597.489 277.153 595.346C277.212 593.203 276.44 591.12 275 589.531L274.21 588.741C288.57 576.461 302.74 570.641 307.63 575.581Z" stroke="black" stroke-width="5.2" stroke-miterlimit="10"/>
<path d="M187.05 524.98L184.19 512.66L205.79 533.95L213.14 526.23L198.67 541.24" stroke="white" stroke-width="6.94" stroke-linecap="round" stroke-linejoin="round"/>
<g opacity="0.5">
<path opacity="0.5" d="M340.84 499.922C342.16 504.602 342.26 509.842 340.25 514.322C338.58 518.062 335.36 520.772 331.64 522.682C330.05 533.402 321.96 538.682 312.7 540.092C312.39 540.932 311.94 542.002 311.59 542.702C307.81 549.292 299.17 552.382 292.13 554.082C288.07 554.532 283.66 554.152 280.54 551.402C278.524 549.641 277.175 547.239 276.72 544.602C276.31 541.972 276.97 539.332 277.03 536.732C277.1 531.002 275.58 525.522 271.69 521.222C261.32 509.702 266.8 488.542 292.96 488.162C319.12 487.782 338.1 493.532 347.36 481.602C347.417 481.724 347.464 481.851 347.5 481.982C348.05 487.572 347 494.442 340.84 499.922Z" fill="#B1B2FF"/>
</g>
<path d="M293.86 522.752C296.22 525.282 300.52 526.462 303.61 526.982C313.163 528.491 322.949 526.988 331.61 522.682C335.33 520.772 338.55 518.062 340.22 514.322C342.22 509.842 342.13 504.602 340.81 499.922" stroke="black" stroke-width="5.2" stroke-miterlimit="10"/>
<path d="M289.91 534.998C291.22 536.908 293.72 537.998 295.91 538.678C295.996 538.692 296.08 538.715 296.16 538.748C301.519 540.418 307.185 540.866 312.74 540.058C322 538.678 330.09 533.368 331.68 522.648" stroke="black" stroke-width="5.2" stroke-miterlimit="10"/>
<path d="M312.8 539.711C312.8 539.821 312.73 539.961 312.7 540.091C312.39 540.931 311.94 542.001 311.59 542.701C307.81 549.291 299.17 552.381 292.13 554.081L291.71 554.181C286.92 555.321 281.3 555.641 277.14 552.511C274.814 550.756 273.178 548.24 272.52 545.401C271.87 542.591 272.42 539.681 272.25 536.831C271.9 530.591 269.89 524.761 265.31 520.351C253.17 508.631 257.57 485.211 285.95 482.881C314.33 480.551 335.42 485.381 344.62 471.711C346.17 474.948 347.145 478.43 347.5 482.001C348.05 487.591 347.01 494.461 340.84 499.941C337.646 502.682 333.927 504.744 329.91 506.001C302.29 515.441 297.4 507.001 297.4 507.001" stroke="black" stroke-width="5.2" stroke-miterlimit="10"/>
<g opacity="0.5">
<path opacity="0.5" d="M168.29 664.25C172.91 665.76 178.14 666.07 182.7 664.25C186.51 662.73 189.34 659.61 191.39 655.98C202.17 654.81 207.79 646.98 209.55 637.74C210.39 637.47 211.48 637.06 212.19 636.74C218.93 633.22 222.36 624.74 224.34 617.74C224.95 613.74 224.74 609.29 222.13 606.06C220.443 603.98 218.097 602.537 215.48 601.97C212.86 601.45 210.2 601.97 207.6 601.97C201.88 601.82 196.46 600.07 192.32 595.97C181.22 585.15 159.86 589.78 158.44 615.91C157.02 642.04 162 661.26 149.72 670C149.842 670.065 149.969 670.118 150.1 670.16C155.66 671 162.56 670.21 168.29 664.25Z" fill="#B1B2FF"/>
</g>
<path d="M193 618.219C195.44 620.679 196.45 625.029 196.84 628.129C197.975 637.76 196.07 647.505 191.39 655.999C189.39 659.629 186.51 662.749 182.7 664.269C178.14 666.099 172.91 665.789 168.29 664.269" stroke="black" stroke-width="5.2" stroke-miterlimit="10"/>
<path d="M205.39 614.762C207.25 616.152 208.22 618.692 208.83 620.872C208.83 620.972 208.83 621.042 208.89 621.112C210.343 626.534 210.569 632.212 209.55 637.732C207.79 646.942 202.17 654.802 191.39 655.972" stroke="black" stroke-width="5.2" stroke-miterlimit="10"/>
<path d="M209.16 637.818L209.55 637.728C210.39 637.458 211.48 637.048 212.19 636.728C218.93 633.208 222.36 624.728 224.34 617.728L224.46 617.318C225.79 612.578 226.33 606.978 223.37 602.688C221.706 600.299 219.257 598.569 216.45 597.798C213.67 597.028 210.73 597.468 207.9 597.178C201.67 596.588 195.9 594.348 191.7 589.598C180.47 576.998 156.89 580.468 153.44 608.728C149.99 636.988 154 658.268 140 666.908C143.167 668.586 146.601 669.699 150.15 670.198C155.71 670.968 162.61 670.198 168.34 664.198C171.208 661.119 173.42 657.489 174.84 653.528C185.36 626.308 177.17 621.078 177.17 621.078" stroke="black" stroke-width="5.2" stroke-miterlimit="10"/>
<g opacity="0.71">
<path opacity="0.71" d="M485.91 428.436C474.27 423.546 465.83 417.206 467.07 414.286C468.31 411.366 478.72 412.966 490.37 417.856C502.02 422.746 510.42 429.076 509.2 431.996C509.181 432.057 509.147 432.113 509.1 432.156C507.52 434.856 497.29 433.226 485.91 428.436Z" fill="#B1B2FF"/>
<path opacity="0.71" d="M520.08 452.31C515.08 458.31 506.37 461.02 498.53 460.31C502.787 457.119 506.047 452.781 507.927 447.805C509.808 442.828 510.232 437.419 509.15 432.21C513.63 428.02 519.87 429.44 523.24 434.21C527.47 440.27 524.38 447.21 520.08 452.31Z" fill="#B1B2FF"/>
<path opacity="0.71" d="M467 414.349C462.458 417.187 458.833 421.278 456.562 426.129C454.291 430.979 453.471 436.383 454.2 441.689C448.2 436.589 444.2 428.539 444.97 420.739C445.63 414.069 448.41 406.999 455.73 405.819C461.44 404.849 466.82 408.279 467 414.349Z" fill="#B1B2FF"/>
<path opacity="0.71" d="M475 465L462.81 494C462.374 495.037 461.544 495.858 460.502 496.283C459.46 496.708 458.292 496.701 457.255 496.265C456.218 495.829 455.397 494.998 454.972 493.957C454.547 492.915 454.554 491.747 454.99 490.71L467.18 461.71L475 465Z" fill="#B1B2FF"/>
<path opacity="0.71" d="M475.72 506.571C474.16 510.301 464.21 509.681 453.5 505.181C442.79 500.681 435.39 494.001 437 490.271C438.37 487.001 446.14 487.071 455.22 490.141L455 490.661C454.564 491.698 454.557 492.865 454.982 493.907C455.407 494.949 456.228 495.779 457.265 496.216C458.302 496.652 459.47 496.658 460.512 496.234C461.553 495.809 462.384 494.988 462.82 493.951L463.04 493.421C471.58 497.771 477.1 503.301 475.72 506.571Z" fill="#B1B2FF"/>
<g opacity="0.5">
<path opacity="0.5" d="M517.84 507.408C515.903 509.028 513.465 509.925 510.94 509.948C508.844 509.81 506.86 508.956 505.32 507.528C499.96 508.878 495.89 506.108 493.42 502.018C492.97 502.018 492.37 502.018 491.98 502.018C488.14 501.518 484.98 498.018 482.82 495.078C481.82 493.258 481.13 491.078 481.82 489.078C482.259 487.79 483.123 486.69 484.27 485.958C485.48 485.374 486.742 484.905 488.04 484.558C490.763 483.582 493.005 481.595 494.3 479.008C497.69 471.878 508.73 470.318 514.02 482.558C519.31 494.798 520.31 504.858 527.74 506.888C527.694 506.939 527.644 506.986 527.59 507.028C526.121 507.887 524.463 508.372 522.763 508.438C521.062 508.504 519.371 508.15 517.84 507.408Z" fill="#B1B2FF"/>
</g>
<g opacity="0.5">
<path opacity="0.5" d="M411 453.679C410.506 456.154 410.888 458.724 412.08 460.949C413.207 462.717 414.904 464.047 416.89 464.719C418.29 470.069 422.67 472.319 427.44 472.519C427.65 472.919 427.93 473.439 428.15 473.769C430.42 476.909 434.97 478.009 438.63 478.479C440.71 478.479 442.92 478.059 444.36 476.479C445.283 475.477 445.834 474.188 445.92 472.829C445.849 471.481 445.655 470.142 445.34 468.829C444.888 465.974 445.554 463.055 447.2 460.679C451.83 454.279 447.9 443.849 434.62 445.079C421.34 446.309 412.04 450.259 406.69 444.719L406.64 444.919C406.588 446.625 406.959 448.318 407.719 449.847C408.48 451.375 409.607 452.691 411 453.679Z" fill="#B1B2FF"/>
</g>
<path opacity="0.71" d="M509.15 432.216C507.45 434.896 497.29 433.216 485.94 428.476C475 423.856 467 417.996 467 414.866C466.997 414.665 467.031 414.465 467.1 414.276C467.1 414.276 467.03 414.276 467.03 414.346C462.488 417.185 458.863 421.275 456.592 426.126C454.321 430.977 453.501 436.38 454.23 441.686C454.23 441.756 454.23 441.856 454.23 441.926C454.831 446.121 456.38 450.124 458.758 453.632C461.136 457.139 464.282 460.059 467.957 462.17C471.632 464.28 475.739 465.527 479.968 465.814C484.196 466.101 488.434 465.421 492.36 463.826C494.446 462.961 496.423 461.853 498.25 460.526C498.36 460.456 498.43 460.386 498.53 460.316C502.787 457.125 506.047 452.788 507.927 447.811C509.808 442.835 510.232 437.425 509.15 432.216ZM483.68 437.626L478.2 450.156L481.6 451.576C482.023 451.761 482.355 452.106 482.524 452.535C482.693 452.964 482.684 453.443 482.5 453.866C482.361 454.178 482.131 454.441 481.84 454.619C481.549 454.798 481.211 454.884 480.87 454.866C480.659 454.864 480.449 454.827 480.25 454.756L475.25 452.646C475.14 452.646 475.04 452.536 474.93 452.506L470.49 450.596C470.279 450.512 470.088 450.386 469.926 450.227C469.765 450.067 469.637 449.877 469.551 449.667C469.464 449.458 469.42 449.233 469.422 449.006C469.423 448.779 469.47 448.555 469.56 448.346C469.646 448.133 469.775 447.938 469.937 447.775C470.1 447.611 470.294 447.482 470.507 447.394C470.72 447.307 470.949 447.262 471.18 447.265C471.41 447.267 471.638 447.315 471.85 447.406L475 448.796L478.09 441.726L477.7 441.966C477.513 442.094 477.302 442.183 477.081 442.229C476.859 442.275 476.631 442.277 476.408 442.235C476.186 442.193 475.974 442.107 475.785 441.983C475.595 441.859 475.432 441.698 475.305 441.511C475.178 441.324 475.088 441.114 475.042 440.892C474.996 440.671 474.994 440.442 475.036 440.22C475.079 439.997 475.164 439.785 475.289 439.596C475.413 439.407 475.573 439.244 475.76 439.116L481.1 435.506C481.41 435.287 481.785 435.179 482.164 435.199C482.543 435.219 482.905 435.366 483.19 435.616C483.473 435.857 483.673 436.181 483.762 436.542C483.85 436.903 483.821 437.282 483.68 437.626Z" fill="#B1B2FF"/>
</g>
<g opacity="0.5">
<path opacity="0.5" d="M287.18 746.492C291.59 752.832 293.87 758.872 292.27 759.972C290.67 761.072 285.82 756.842 281.41 750.502C277 744.162 274.72 738.132 276.31 737.022H276.42C278.12 736.092 282.87 740.292 287.18 746.492Z" fill="#B1B2FF"/>
<path opacity="0.5" d="M277.34 723.002C281.91 721.552 287.27 723.002 291.1 725.922C287.858 726.168 284.754 727.333 282.152 729.281C279.55 731.23 277.558 733.881 276.41 736.922C272.72 737.622 269.96 734.842 269.79 731.262C269.58 726.772 273.45 724.202 277.34 723.002Z" fill="#B1B2FF"/>
<path opacity="0.5" d="M292.34 760C295.844 760.036 299.274 758.988 302.16 757C304.675 755.233 306.66 752.813 307.9 750C309.33 754.6 308.78 760.079 305.81 763.849C303.29 767.079 299.53 769.849 295.37 768.039C292.09 766.689 290.44 763.16 292.34 760Z" fill="#B1B2FF"/>
<path opacity="0.5" d="M304.79 731.202L320.58 720.202C321.145 719.804 321.845 719.647 322.526 719.765C323.206 719.883 323.812 720.267 324.21 720.832C324.608 721.397 324.765 722.096 324.647 722.777C324.529 723.458 324.145 724.064 323.58 724.462L307.8 735.462L304.79 731.202Z" fill="#B1B2FF"/>
<path opacity="0.5" d="M318 709.463C320 708.053 325 711.633 329 717.463C333 723.293 334.7 729.173 332.67 730.583C330.89 731.823 326.89 729.243 323.21 724.683L323.49 724.483C324.055 724.085 324.438 723.479 324.557 722.799C324.675 722.118 324.518 721.418 324.12 720.853C323.722 720.288 323.116 719.905 322.435 719.786C321.755 719.668 321.055 719.825 320.49 720.223L320.2 720.423C317.29 715.373 316.25 710.703 318 709.463Z" fill="#B1B2FF"/>
<g opacity="0.5">
<path opacity="0.5" d="M296.55 695.242C298.078 695.038 299.629 695.371 300.94 696.182C301.973 696.943 302.716 698.033 303.05 699.272C306.26 700.332 307.46 703.102 307.39 706.022C307.646 706.167 307.893 706.327 308.13 706.502C309.96 708.012 310.45 710.832 310.6 713.082C310.609 713.72 310.485 714.354 310.237 714.942C309.99 715.531 309.623 716.062 309.16 716.502C308.513 717.027 307.704 717.314 306.87 717.312C306.052 717.217 305.246 717.046 304.46 716.802C302.751 716.426 300.963 716.716 299.46 717.612C295.37 720.192 289.16 717.382 290.46 709.322C291.76 701.262 294.51 695.742 291.34 692.262H291.46C292.487 692.306 293.487 692.601 294.374 693.12C295.261 693.64 296.008 694.368 296.55 695.242Z" fill="#B1B2FF"/>
</g>
<g opacity="0.5">
<path opacity="0.5" d="M337.86 757.003C338.621 755.66 338.893 754.094 338.63 752.573C338.312 751.329 337.578 750.232 336.55 749.463C336.76 746.083 334.64 743.943 331.91 742.913C331.91 742.643 331.8 742.283 331.74 742.043C331.02 739.793 328.59 738.283 326.55 737.303C325.961 737.057 325.327 736.936 324.689 736.946C324.05 736.956 323.421 737.098 322.84 737.363C322.114 737.769 321.55 738.411 321.24 739.183C321.026 739.978 320.885 740.792 320.82 741.613C320.528 743.358 319.58 744.925 318.17 745.993C314.26 748.823 314.55 755.633 322.5 757.453C330.45 759.273 336.61 758.763 338.66 763.013C338.684 762.979 338.704 762.942 338.72 762.903C339.076 761.925 339.183 760.874 339.033 759.845C338.883 758.815 338.48 757.838 337.86 757.003Z" fill="#B1B2FF"/>
</g>
<path opacity="0.5" d="M276.41 736.93C278.16 736.1 282.87 740.29 287.17 746.46C291.28 752.39 293.54 758.06 292.51 759.68C292.447 759.784 292.366 759.875 292.27 759.95C292.27 759.95 292.27 759.95 292.33 759.95C295.834 759.986 299.264 758.938 302.15 756.95C304.662 755.198 306.65 752.796 307.9 750C307.9 750 307.9 749.9 307.96 749.87C309.021 747.506 309.531 744.932 309.45 742.342C309.37 739.752 308.701 737.215 307.495 734.922C306.288 732.628 304.576 730.64 302.488 729.106C300.399 727.573 297.989 726.534 295.44 726.07C294.077 725.829 292.691 725.752 291.31 725.84H291.1C287.858 726.085 284.754 727.251 282.152 729.199C279.55 731.148 277.558 733.799 276.41 736.84V736.93ZM291.34 742.47L298.27 737.8L297 736C296.843 735.765 296.786 735.477 296.84 735.2C296.894 734.923 297.056 734.678 297.29 734.52C297.461 734.395 297.668 734.327 297.88 734.327C298.092 734.327 298.299 734.395 298.47 734.52C298.58 734.586 298.678 734.671 298.76 734.77L300.66 737.51C300.71 737.57 300.74 737.64 300.78 737.69L302.45 740.13C302.537 740.241 302.6 740.369 302.634 740.505C302.669 740.642 302.674 740.784 302.649 740.923C302.625 741.062 302.571 741.194 302.492 741.311C302.413 741.427 302.31 741.526 302.19 741.6C302.075 741.681 301.945 741.739 301.807 741.77C301.669 741.8 301.527 741.803 301.388 741.778C301.249 741.753 301.117 741.7 300.999 741.623C300.881 741.546 300.779 741.447 300.7 741.33L299.5 739.59L295.59 742.24H295.86C295.998 742.235 296.135 742.258 296.264 742.306C296.394 742.355 296.512 742.428 296.613 742.523C296.713 742.617 296.795 742.73 296.852 742.856C296.909 742.981 296.94 743.117 296.945 743.255C296.95 743.393 296.927 743.53 296.878 743.659C296.83 743.789 296.756 743.907 296.662 744.008C296.568 744.108 296.455 744.19 296.329 744.247C296.203 744.304 296.068 744.335 295.93 744.34L291.99 744.46C291.764 744.468 291.542 744.399 291.361 744.264C291.179 744.13 291.048 743.938 290.99 743.72C290.905 743.502 290.893 743.262 290.956 743.036C291.019 742.811 291.154 742.612 291.34 742.47Z" fill="#B1B2FF"/>
</g>
<path d="M398.57 553.281C393.582 553.277 388.705 554.753 384.557 557.522C380.408 560.29 377.173 564.227 375.263 568.835C373.352 573.442 372.851 578.512 373.824 583.405C374.796 588.297 377.197 592.791 380.724 596.317C384.251 599.844 388.745 602.246 393.637 603.218C398.529 604.19 403.599 603.689 408.207 601.778C412.814 599.868 416.751 596.634 419.52 592.485C422.288 588.336 423.764 583.459 423.76 578.471C423.76 575.163 423.109 571.888 421.843 568.831C420.577 565.775 418.721 562.998 416.382 560.659C414.043 558.32 411.266 556.465 408.21 555.199C405.154 553.933 401.878 553.281 398.57 553.281ZM403.7 571.001L398.22 583.531L401.62 584.951C402.043 585.136 402.376 585.48 402.544 585.91C402.713 586.339 402.704 586.818 402.52 587.241C402.381 587.553 402.151 587.815 401.86 587.994C401.569 588.172 401.231 588.259 400.89 588.241C400.679 588.239 400.469 588.202 400.27 588.131L395.27 586.021C395.16 586.021 395.06 585.911 394.96 585.881L390.51 583.971C390.299 583.887 390.108 583.761 389.946 583.602C389.785 583.442 389.657 583.252 389.571 583.042C389.484 582.833 389.44 582.608 389.442 582.381C389.443 582.154 389.49 581.93 389.58 581.721C389.667 581.507 389.795 581.313 389.957 581.149C390.12 580.986 390.314 580.857 390.527 580.769C390.741 580.681 390.969 580.637 391.2 580.639C391.43 580.642 391.658 580.69 391.87 580.781L395.06 582.131L398.15 575.061L397.77 575.301C397.584 575.447 397.37 575.552 397.141 575.612C396.912 575.671 396.674 575.683 396.44 575.647C396.207 575.61 395.983 575.527 395.783 575.401C395.584 575.275 395.412 575.109 395.278 574.914C395.145 574.719 395.053 574.499 395.008 574.267C394.963 574.035 394.966 573.796 395.016 573.565C395.067 573.335 395.165 573.117 395.303 572.925C395.441 572.733 395.617 572.572 395.82 572.451L401.17 568.841C401.478 568.621 401.851 568.512 402.229 568.532C402.607 568.552 402.967 568.7 403.25 568.951C403.535 569.199 403.733 569.533 403.814 569.902C403.895 570.271 403.855 570.657 403.7 571.001Z" fill="#B1B2FF"/>
<path d="M239.7 685.421C239.63 687.912 240.3 690.368 241.626 692.479C242.952 694.589 244.874 696.259 247.149 697.277C249.424 698.295 251.95 698.615 254.408 698.197C256.865 697.78 259.143 696.642 260.954 694.929C262.764 693.217 264.026 691.005 264.58 688.575C265.134 686.145 264.954 683.605 264.065 681.277C263.175 678.949 261.614 676.937 259.581 675.496C257.547 674.054 255.132 673.249 252.64 673.181C249.301 673.089 246.063 674.327 243.637 676.622C241.21 678.917 239.794 682.082 239.7 685.421ZM248.7 683.1L254.89 686.011L255.65 684.331C255.748 684.123 255.923 683.963 256.139 683.884C256.354 683.805 256.592 683.815 256.8 683.91C256.959 683.98 257.092 684.098 257.182 684.246C257.271 684.395 257.313 684.567 257.3 684.741C257.3 684.847 257.279 684.952 257.24 685.051L256.11 687.54L256.04 687.691L255.04 689.881C254.996 689.986 254.931 690.081 254.849 690.16C254.767 690.239 254.67 690.301 254.563 690.342C254.457 690.383 254.343 690.402 254.23 690.399C254.116 690.395 254.004 690.368 253.9 690.321C253.794 690.274 253.699 690.207 253.62 690.123C253.541 690.039 253.479 689.94 253.439 689.832C253.399 689.724 253.381 689.608 253.386 689.493C253.392 689.378 253.42 689.265 253.47 689.16L254.19 687.591L250.69 685.951L250.81 686.141C250.871 686.236 250.913 686.342 250.933 686.453C250.953 686.565 250.951 686.679 250.927 686.789C250.902 686.9 250.857 687.005 250.792 687.097C250.728 687.19 250.645 687.269 250.55 687.331C250.455 687.392 250.349 687.433 250.237 687.453C250.126 687.473 250.012 687.471 249.901 687.447C249.791 687.423 249.686 687.377 249.593 687.313C249.5 687.248 249.421 687.166 249.36 687.071L247.63 684.35C247.532 684.198 247.487 684.018 247.502 683.837C247.516 683.657 247.589 683.486 247.71 683.35C247.824 683.22 247.974 683.126 248.142 683.082C248.309 683.037 248.486 683.044 248.65 683.1H248.7Z" fill="#B1B2FF"/>
</g>
</g>
<defs>
<clipPath id="clip0_434_1789">
<rect width="1000" height="1000" fill="white"/>
</clipPath>
</defs>
</svg>
