<svg width="327" height="327" viewBox="0 0 327 327" fill="none" xmlns="http://www.w3.org/2000/svg">
<circle cx="163.5" cy="163.5" r="153.5" fill="#EEF1FF" stroke="#B1B2FF" stroke-width="20"/>
<path d="M103 200.667H127.4C127.4 213.867 144.114 225.111 164 225.111C183.886 225.111 200.6 213.867 200.6 200.667C200.6 187.222 187.912 182.333 161.072 175.856C135.208 169.378 103 161.311 103 127.333C103 105.456 120.934 86.8778 145.7 80.6444V54H182.3V80.6444C207.066 86.8778 225 105.456 225 127.333H200.6C200.6 114.133 183.886 102.889 164 102.889C144.114 102.889 127.4 114.133 127.4 127.333C127.4 140.778 140.088 145.667 166.928 152.144C192.792 158.622 225 166.689 225 200.667C225 222.544 207.066 241.122 182.3 247.356V274H145.7V247.356C120.934 241.122 103 222.544 103 200.667Z" fill="#B1B2FF"/>
</svg>
