<svg width="901" height="684" viewBox="0 0 901 684" fill="none" xmlns="http://www.w3.org/2000/svg">
<g clip-path="url(#clip0_415_2009)">
<path d="M616.277 616.631L596.517 635.281C596.003 635.767 595.593 636.353 595.313 637.003C595.033 637.653 594.888 638.353 594.887 639.061V668.771C594.886 670.063 595.368 671.309 596.237 672.265C597.106 673.221 598.301 673.819 599.587 673.941L638.477 677.721L659.917 657.481C660.435 656.997 660.848 656.412 661.13 655.761C661.412 655.111 661.557 654.41 661.557 653.701V623.811C661.558 622.514 661.074 621.265 660.201 620.306C659.327 619.348 658.128 618.751 656.837 618.631L620.327 615.241C619.592 615.173 618.851 615.262 618.153 615.501C617.455 615.741 616.815 616.126 616.277 616.631Z" fill="#B1B2FF"/>
<path d="M614.207 611.449L591.017 633.339C590.413 633.91 589.932 634.598 589.604 635.362C589.275 636.125 589.106 636.948 589.107 637.779V672.639C589.105 674.155 589.669 675.617 590.688 676.74C591.707 677.862 593.108 678.564 594.617 678.709L640.257 683.149L665.427 659.389C666.031 658.818 666.512 658.13 666.841 657.366C667.169 656.603 667.338 655.78 667.337 654.949V619.869C667.336 618.349 666.767 616.884 665.743 615.761C664.718 614.638 663.311 613.938 661.797 613.799L618.957 609.799C618.093 609.72 617.223 609.826 616.404 610.111C615.585 610.395 614.836 610.851 614.207 611.449Z" fill="#B1B2FF"/>
<path d="M736.017 417.77V447.65C736.016 448.358 735.871 449.058 735.59 449.708C735.31 450.358 734.901 450.944 734.387 451.43L712.927 471.67L674.017 467.89C672.892 467.789 671.835 467.31 671.017 466.53C677.447 465.75 682.857 462.76 684.517 459.53C687.067 454.53 686.387 445.81 675.517 444.29C673.413 444.009 671.331 443.581 669.287 443.01V433C669.286 432.294 669.43 431.594 669.71 430.946C669.99 430.297 670.401 429.713 670.917 429.23L690.667 410.56C691.203 410.068 691.835 409.691 692.523 409.454C693.211 409.216 693.941 409.123 694.667 409.18L731.177 412.58C732.492 412.669 733.724 413.255 734.623 414.219C735.522 415.183 736.02 416.452 736.017 417.77Z" fill="#B1B2FF"/>
<path d="M741.807 413.829V448.899C741.805 449.735 741.633 450.561 741.301 451.328C740.969 452.095 740.485 452.786 739.877 453.359L714.727 477.099L669.087 472.669C667.577 472.522 666.176 471.818 665.157 470.694C664.138 469.57 663.575 468.106 663.577 466.589V466.449C666.059 466.845 668.587 466.872 671.077 466.529C677.507 465.749 682.917 462.759 684.577 459.529C687.127 454.529 686.447 445.809 675.577 444.289C673.473 444.008 671.391 443.58 669.347 443.009C664.467 441.519 664.167 439.889 664.167 439.889L663.567 440.269V431.769C663.56 430.94 663.726 430.118 664.053 429.355C664.38 428.592 664.861 427.906 665.467 427.339L688.667 405.439C689.297 404.844 690.047 404.39 690.865 404.106C691.684 403.821 692.554 403.713 693.417 403.789L736.257 407.789C737.765 407.932 739.166 408.629 740.191 409.744C741.216 410.859 741.792 412.315 741.807 413.829Z" fill="#B1B2FF"/>
<path d="M743.247 508.3L719.897 530.3C719.288 530.875 718.803 531.567 718.471 532.336C718.139 533.105 717.967 533.933 717.967 534.77V569.88C717.965 571.408 718.532 572.882 719.559 574.013C720.585 575.145 721.996 575.853 723.517 576L769.517 580.47L794.867 556.55C795.476 555.976 795.961 555.283 796.293 554.514C796.625 553.746 796.796 552.917 796.797 552.08V516.78C796.798 515.248 796.227 513.77 795.194 512.638C794.162 511.505 792.743 510.8 791.217 510.66L748.077 506.66C747.201 506.571 746.317 506.672 745.484 506.955C744.65 507.238 743.887 507.697 743.247 508.3Z" fill="#B1B2FF"/>
<path d="M740.797 502.18L713.387 528.05C712.674 528.724 712.106 529.536 711.717 530.437C711.329 531.338 711.128 532.308 711.127 533.29V574.49C711.128 576.282 711.797 578.01 713.002 579.337C714.207 580.664 715.863 581.496 717.647 581.67L771.587 586.91L801.327 558.83C802.043 558.158 802.613 557.346 803.002 556.444C803.39 555.543 803.59 554.571 803.587 553.59V512.13C803.574 510.337 802.894 508.614 801.679 507.295C800.465 505.977 798.802 505.159 797.017 505L746.387 500.29C745.375 500.194 744.354 500.314 743.391 500.639C742.428 500.965 741.544 501.49 740.797 502.18Z" fill="#B1B2FF"/>
<path d="M806.547 529.739L782.247 552.679C781.615 553.277 781.112 553.998 780.768 554.798C780.424 555.597 780.247 556.459 780.247 557.329V593.859C780.247 595.449 780.839 596.982 781.907 598.16C782.976 599.337 784.444 600.075 786.027 600.229L833.857 604.879L860.227 579.999C860.859 579.401 861.362 578.68 861.706 577.88C862.05 577.08 862.227 576.219 862.227 575.349V538.559C862.224 536.965 861.627 535.429 860.553 534.251C859.479 533.073 858.004 532.338 856.417 532.189L811.527 527.999C810.621 527.916 809.707 528.029 808.848 528.329C807.989 528.629 807.205 529.11 806.547 529.739Z" fill="#B1B2FF"/>
<path d="M804.017 523.372L775.497 550.292C774.754 550.994 774.163 551.841 773.759 552.779C773.355 553.718 773.147 554.73 773.147 555.752V598.632C773.146 600.495 773.839 602.291 775.09 603.67C776.342 605.049 778.063 605.913 779.917 606.092L836.017 611.552L867.017 582.332C867.76 581.63 868.351 580.783 868.755 579.844C869.159 578.905 869.367 577.894 869.367 576.872V533.722C869.365 531.853 868.666 530.051 867.407 528.67C866.148 527.288 864.418 526.426 862.557 526.252L809.867 521.352C808.804 521.254 807.733 521.384 806.725 521.732C805.716 522.08 804.793 522.639 804.017 523.372Z" fill="#B1B2FF"/>
<path d="M736.367 556.249L702.297 588.409C701.408 589.246 700.7 590.256 700.216 591.378C699.733 592.499 699.485 593.708 699.487 594.929V646.149C699.495 648.373 700.327 650.514 701.82 652.161C703.314 653.808 705.365 654.844 707.577 655.069L774.637 661.589L811.637 626.679C812.523 625.84 813.229 624.829 813.712 623.708C814.195 622.587 814.445 621.38 814.447 620.159V568.619C814.437 566.388 813.599 564.239 812.095 562.591C810.591 560.943 808.528 559.912 806.307 559.699L743.367 553.839C742.096 553.721 740.815 553.875 739.608 554.291C738.401 554.707 737.296 555.374 736.367 556.249Z" fill="#B1B2FF"/>
<path d="M732.797 547.321L692.797 585.061C691.755 586.044 690.925 587.23 690.357 588.546C689.79 589.861 689.497 591.279 689.497 592.711V652.821C689.495 655.435 690.467 657.956 692.223 659.892C693.98 661.828 696.395 663.04 698.997 663.291L777.687 670.941L821.087 629.941C822.129 628.958 822.959 627.772 823.527 626.457C824.094 625.141 824.387 623.724 824.387 622.291V561.841C824.388 559.221 823.411 556.695 821.646 554.758C819.881 552.821 817.456 551.613 814.847 551.371L741.017 544.501C739.525 544.358 738.02 544.535 736.602 545.022C735.184 545.508 733.887 546.292 732.797 547.321Z" fill="#B1B2FF"/>
<path d="M496.017 115.488C524.017 94.2482 566.427 75.1782 623.167 85.0682" stroke="#CCDDE2" stroke-width="4.59" stroke-miterlimit="10"/>
<path d="M510.237 132.089C535.157 114.779 569.097 101.489 613.357 104.339" stroke="white" stroke-width="4.59" stroke-linecap="round" stroke-linejoin="round"/>
<path d="M705.817 123.129C733.177 148.399 747.557 184.019 752.817 220.319C756.302 244.462 756.333 268.978 752.907 293.129C752.646 294.547 752.469 295.98 752.377 297.419C754.148 296.621 755.98 295.969 757.857 295.469C780.477 289.659 804.537 288.719 826.427 297.659C844.637 305.089 860.137 318.119 871.977 333.659C887.806 354.564 897.38 379.53 899.587 405.659C903.587 455.659 879.677 495.979 843.817 524.419L843.407 524.749" stroke="#CCDDE2" stroke-width="4.59" stroke-linejoin="round"/>
<path d="M701.447 147.191C736.907 188.861 739.157 244.891 736.027 298.291C735.957 299.461 735.517 302.561 735.107 305.711" stroke="white" stroke-width="4.59" stroke-linecap="round" stroke-linejoin="round"/>
<path d="M749.547 311.74C775.707 309.14 804.747 308.37 826.997 321.37C848.997 334.23 865.377 355.02 874.807 378.56C885.517 405.28 887.237 436.56 875.267 463.18C861.837 492.98 839.597 514.31 814.427 534.28C814.357 534.33 817.427 535.01 820.627 535.73" stroke="white" stroke-width="4.59" stroke-linecap="round" stroke-linejoin="round"/>
<path d="M294.317 618.922C288.716 620.939 282.851 622.128 276.907 622.452C192.477 627.642 113.247 581.452 57.4469 529.742C54.8969 527.382 52.4469 524.962 50.0869 522.512" stroke="black" stroke-width="4.59" stroke-miterlimit="10"/>
<path d="M375.537 585.75C380.417 593.21 391.867 590.23 391.867 590.23C455.727 577.13 437.097 492.58 383.077 453.34" stroke="black" stroke-width="4.59" stroke-miterlimit="10"/>
<path d="M449.917 384.001C426.767 406.201 406.097 419.671 386.727 427.651L394.727 371.721C307.477 319.541 284.257 377.721 284.257 377.721C280.917 383.181 279.367 447.961 278.927 470.071C278.817 470.071 276.047 470.071 275.927 470.071C220.927 467.131 171.217 416.821 171.217 416.821C199.007 347.041 298.217 260.821 298.217 260.821C367.077 212.531 419.637 228.771 419.637 228.771C403.447 229.941 425.507 274.771 425.507 274.771C458.017 303.001 470.017 260.841 470.017 260.841C501.477 336.141 449.917 384.001 449.917 384.001Z" fill="#353642"/>
<path d="M506.807 351.43C506.807 351.43 501.097 424.79 451.467 422.36C451.467 422.36 432.857 402.23 433.327 386.92C433.797 371.61 475.327 276 475.327 276C475.327 276 502.247 343.14 506.807 351.43Z" fill="#353642"/>
<path d="M54.647 526.831V527.081L58.887 531.081C58.887 531.081 57.127 532.711 54.647 535.081C51.417 538.081 46.967 542.221 43.647 545.381C37.897 550.841 8.49697 580.231 0.646973 553.501C2.19697 544.151 8.13697 524.921 30.907 501.561C63.287 468.281 58.777 472.411 66.907 472.961C70.657 473.201 75.517 475.401 79.677 477.711C69.157 482.091 53.207 494.241 54.647 526.831Z" fill="#B1B2FF"/>
<path d="M88.467 483.24C88.467 483.24 56.637 486.24 54.647 526.83V527.08C54.517 529.58 54.517 532.21 54.647 535.01C51.417 538.01 46.967 542.15 43.647 545.31C37.897 550.77 8.49697 580.16 0.646973 553.43C2.19697 544.08 8.13697 524.85 30.907 501.49C63.287 468.21 58.777 472.34 66.907 472.89C70.657 473.13 75.517 475.33 79.677 477.64C82.701 479.355 85.635 481.224 88.467 483.24Z" fill="#B1B2FF"/>
<path d="M386.517 429.34C422.517 406.77 480.277 377.87 480.137 312.99C480.137 297.58 478.547 284.99 475.137 273.07L474.807 271.93C473.616 268.071 472.01 264.353 470.017 260.84" stroke="black" stroke-width="4.59" stroke-miterlimit="10"/>
<path d="M212.867 541.648C204.537 534.558 197.017 527.718 192.017 522.998L191.937 522.918C187.997 519.248 185.637 516.918 185.637 516.918C182.287 512.348 179.307 507.918 176.637 503.658C176.585 503.594 176.547 503.519 176.527 503.438C157.107 472.038 155.937 447.018 174.027 410.208C174.132 409.942 174.252 409.681 174.387 409.428C176.387 405.428 178.597 401.248 181.037 396.928C217.247 332.928 323.487 213.678 415.137 228.758" stroke="black" stroke-width="4.59" stroke-miterlimit="10"/>
<path d="M57.4769 529.711C38.4769 553.291 25.1469 561.661 16.1369 563.511C7.12689 565.361 -1.17311 557.371 0.136891 548.131C4.31689 518.931 38.2969 484.001 55.0169 468.381C57.5779 465.972 60.8639 464.479 64.3629 464.135C67.8619 463.791 71.3759 464.616 74.3569 466.481L82.7269 471.691C107.457 487.111 133.267 502.151 159.217 516.011C183.007 528.731 209.147 545.081 237.307 541.381" stroke="black" stroke-width="4.59" stroke-miterlimit="10"/>
<path d="M398.277 310.719C398.6 322.326 398.303 333.943 397.387 345.519C394.217 387.409 385.657 428.729 380.947 470.449C377.947 497.149 376.107 523.969 375.747 550.839C375.447 573.399 375.387 590.609 376.057 613.169C376.487 627.689 384.697 636.959 397.197 643.169C407.727 648.389 415.067 647.329 421.627 657.859C435.117 679.559 408.627 681.099 397.847 678.239C367.607 670.239 323.117 665.849 305.847 635.779C292.077 611.779 290.327 596.089 286.847 569.269C283.047 540.209 279.847 511.029 279.167 481.709C278.117 434.499 281.777 358.559 298.697 313.909" stroke="black" stroke-width="4.59" stroke-miterlimit="10"/>
<path d="M776.017 534.631L775.857 534.791L772.107 534.411L772.247 534.281L776.017 534.631Z" fill="#B1B2FF"/>
<path d="M716.527 529.52L747.337 532.57L716.527 529.77V529.52Z" fill="#B1B2FF"/>
<path d="M776.017 534.629L775.857 534.789L772.107 534.409L771.697 534.789L769.907 534.629L770.317 534.249L770.447 534.109L772.247 534.279L776.017 534.629Z" fill="#B1B2FF"/>
<path d="M776.017 534.629L775.857 534.789L772.107 534.409L770.317 534.249L770.447 534.109L772.247 534.279L776.017 534.629Z" fill="#B1B2FF"/>
<path d="M697.347 588.129L742.897 592.579L697.347 588.489V588.129Z" fill="#B1B2FF"/>
<path d="M785.327 595.612L785.087 595.852L779.537 595.292L778.937 595.852L776.287 595.612L776.887 595.052L777.087 594.852L779.747 595.092L785.327 595.612Z" fill="#B1B2FF"/>
<path d="M785.327 595.612L785.087 595.852L779.537 595.292L776.887 595.052L777.087 594.852L779.747 595.092L785.327 595.612Z" fill="#B1B2FF"/>
<path d="M474.787 271.922C474.787 271.922 504.207 370.062 538.617 392.922C571.037 414.452 614.567 405.112 648.757 393.352C658.197 390.102 667.687 386.932 677.757 387.082C691.927 387.282 720.807 390.422 724.557 406.912" stroke="black" stroke-width="4.59" stroke-miterlimit="10"/>
<path d="M436.117 396.449C486.887 499.259 576.907 478.749 623.247 460.169C627.445 458.461 631.998 457.809 636.507 458.269C640.987 458.759 644.507 460.659 648.677 462.269C655.767 465.069 663.777 467.079 671.467 466.559C679.157 466.039 688.527 460.179 685.287 451.109C682.707 443.879 674.667 444.399 668.507 443.009C662.347 441.619 660.867 432.639 666.627 429.729C666.698 429.707 666.763 429.669 666.817 429.619" stroke="black" stroke-width="4.59" stroke-miterlimit="10"/>
<path d="M667.337 614.328L640.257 639.918L589.107 635.158L616.217 609.578L667.337 614.328Z" stroke="black" stroke-width="4.59" stroke-linecap="square" stroke-linejoin="round"/>
<path d="M640.257 639.92V683.16L589.107 678.19V635.16L640.257 639.92Z" stroke="black" stroke-width="4.59" stroke-linecap="square" stroke-linejoin="round"/>
<path d="M667.337 614.328V657.598L640.257 683.158V639.918L667.337 614.328Z" stroke="black" stroke-width="4.59" stroke-linecap="square" stroke-linejoin="round"/>
<path d="M824.807 552.67L778.467 596.46L690.967 588.31L711.447 568.97V579.88L771.697 585.75L803.587 555.63V550.68L824.807 552.67Z" stroke="black" stroke-width="4.59" stroke-linecap="square" stroke-linejoin="round"/>
<path d="M778.467 596.45V670.42L690.967 661.92V588.32L778.467 596.45Z" stroke="black" stroke-width="4.59" stroke-linecap="square" stroke-linejoin="round"/>
<path d="M824.797 552.68V626.7L778.467 670.42V596.45L824.797 552.68Z" stroke="black" stroke-width="4.59" stroke-linecap="square" stroke-linejoin="round"/>
<path d="M803.587 504.67L771.697 534.79L711.447 529.2L743.367 499.07L803.587 504.67Z" stroke="black" stroke-width="4.59" stroke-linecap="square" stroke-linejoin="round"/>
<path d="M771.697 545.849V534.789L711.447 529.199V575.699" stroke="black" stroke-width="4.59" stroke-linecap="square" stroke-linejoin="round"/>
<path d="M803.587 504.672V555.632L771.697 585.752V534.792L803.587 504.672Z" stroke="black" stroke-width="4.59" stroke-linecap="square" stroke-linejoin="round"/>
<path d="M804.477 522.61L805.847 521.32L869.487 527.24L835.777 559.11L826.327 558.22" stroke="black" stroke-width="4.59" stroke-linecap="square" stroke-linejoin="round"/>
<path d="M825.767 558.16L835.777 559.11V612.92L824.807 611.86" stroke="black" stroke-width="4.59" stroke-linecap="square" stroke-linejoin="round"/>
<path d="M869.477 527.238V581.098L835.767 612.918V559.088L869.477 527.238Z" stroke="black" stroke-width="4.59" stroke-linecap="square" stroke-linejoin="round"/>
<path d="M741.797 408.498L714.717 434.088L663.567 429.328L690.677 403.738L741.797 408.498Z" stroke="black" stroke-width="4.59" stroke-linecap="square" stroke-linejoin="round"/>
<path d="M663.557 466.31V472.37L714.707 477.34V434.1L666.817 429.64L663.557 429.34V433.09V436.98" stroke="black" stroke-width="4.59" stroke-linecap="square" stroke-linejoin="round"/>
<path d="M741.797 408.5V451.77L714.717 477.33V434.09L741.797 408.5Z" stroke="black" stroke-width="4.59" stroke-linecap="square" stroke-linejoin="round"/>
<path d="M480.137 223.09C484.787 229.32 492.947 230.56 498.357 226.27" stroke="black" stroke-width="4.59" stroke-miterlimit="10"/>
<path d="M554.067 161.001C552.063 165.987 548.541 170.215 544.001 173.087C539.46 175.958 534.13 177.328 528.767 177.001C528.649 174.809 528 172.678 526.877 170.791C522.067 162.951 517.547 175.601 500.127 163.371C475.997 146.371 464.947 152.371 464.947 152.371C463.947 152.891 463.157 158.911 462.887 159.961C461.237 166.061 459.597 172.131 457.887 178.221C456.887 181.941 455.887 185.631 454.887 189.321C454.63 188.638 454.333 187.97 453.997 187.321C452.897 178.531 450.187 167.951 440.347 170.831C438.353 171.452 436.533 172.534 435.037 173.991C427.747 181.051 431.187 189.461 436.667 196.131C437.988 198.145 439.524 200.009 441.247 201.691C439.877 203.691 434.297 211.691 434.297 211.691C433.717 212.491 421.367 193.331 420.527 191.311C419.555 186.55 419.389 181.658 420.037 176.841C422.807 157.041 434.347 135.271 452.037 126.381C456.437 124.181 455.577 121.281 456.417 117.501C456.443 117.281 456.541 117.075 456.697 116.917C456.852 116.758 457.056 116.656 457.276 116.626C457.496 116.596 457.72 116.641 457.912 116.752C458.104 116.864 458.253 117.036 458.337 117.241C462.537 123.661 475.017 125.001 475.017 125.001C517.867 120.691 531.177 142.131 539.477 146.851C542.826 148.704 546.704 149.363 550.477 148.721C550.502 149.942 550.862 151.133 551.518 152.163C552.174 153.193 553.101 154.023 554.197 154.561L553.677 156.561C553.3 158.043 553.437 159.608 554.067 161.001Z" fill="#B1B2FF"/>
<path d="M528.737 177.002C534.091 177.328 539.412 175.964 543.948 173.102C548.484 170.24 552.006 166.024 554.017 161.052C554.801 159.151 555.411 157.183 555.837 155.172L555.517 155.082C555.057 154.97 554.613 154.798 554.197 154.572C553.101 154.033 552.174 153.203 551.518 152.173C550.862 151.143 550.502 149.953 550.477 148.732C550.444 148.058 550.519 147.383 550.697 146.732L553.287 137.152C553.287 137.152 544.617 141.752 536.487 137.052C528.357 132.352 516.757 110.972 472.027 115.202C472.027 115.202 462.197 114.292 458.027 107.752C457.94 107.551 457.789 107.384 457.598 107.276C457.407 107.169 457.186 107.128 456.969 107.158C456.752 107.189 456.551 107.29 456.397 107.446C456.243 107.602 456.145 107.804 456.117 108.022C455.277 111.802 453.437 114.282 449.047 116.482C431.317 125.382 419.767 147.152 417.047 166.942C416.024 175.205 417.218 183.592 420.507 191.242C421.347 193.242 433.697 212.422 434.277 211.622C434.277 211.622 439.857 203.622 441.227 201.622L441.557 201.182L441.127 200.792C439.529 199.318 438.032 197.738 436.647 196.062C431.167 189.392 427.727 180.982 435.017 173.922C436.513 172.465 438.333 171.382 440.327 170.762C450.167 167.882 452.877 178.462 453.977 187.252C454.189 188.93 454.219 190.627 454.067 192.312L454.867 189.312C455.867 185.622 456.867 181.932 457.867 178.212C459.537 172.122 461.177 166.052 462.867 159.952C463.137 158.902 463.967 152.882 464.927 152.362C464.927 152.362 475.977 146.422 500.107 163.362C517.527 175.592 522.047 162.942 526.857 170.782C527.981 172.668 528.629 174.799 528.747 176.992C528.772 177.696 528.752 178.401 528.687 179.102C528.702 179.195 528.702 179.289 528.687 179.382C528.547 180.912 528.347 182.442 528.147 183.932C526.147 198.312 522.247 213.062 514.577 225.532C505.277 240.642 484.717 253.822 467.017 243.412C461.507 240.162 456.787 235.542 452.567 230.762" stroke="black" stroke-width="4.59" stroke-miterlimit="10"/>
<path d="M515.727 207.745C516.832 205.593 516.285 203.108 514.507 202.196C512.728 201.283 510.391 202.287 509.286 204.439C508.182 206.591 508.728 209.076 510.507 209.989C512.285 210.902 514.623 209.897 515.727 207.745Z" fill="black"/>
<path d="M487.828 202.577C488.932 200.425 488.386 197.941 486.607 197.028C484.829 196.115 482.491 197.119 481.387 199.271C480.282 201.423 480.829 203.908 482.607 204.821C484.386 205.734 486.723 204.729 487.828 202.577Z" fill="black"/>
<path d="M492.577 211.309C492.577 211.309 501.107 218.029 502.507 212.619C502.947 210.949 507.757 194.709 507.757 194.709C507.757 194.709 516.517 187.869 527.177 195.529" stroke="black" stroke-width="4.59" stroke-miterlimit="10"/>
<path d="M498.207 188.491C498.207 188.491 484.287 178.671 472.687 188.011" stroke="black" stroke-width="4.59" stroke-miterlimit="10"/>
<path d="M430.667 207.07L423.447 230.35L415.197 228.8C410.007 237.46 416.697 265.45 425.547 274.8C450.797 301.56 466.327 270.67 466.327 270.67L470.017 260.81L475.367 246.55" stroke="black" stroke-width="4.59" stroke-miterlimit="10"/>
<path d="M649.367 135.738C651.249 137.428 652.755 139.494 653.788 141.802C654.822 144.11 655.36 146.609 655.367 149.138V151.998C655.375 154.02 655.806 156.018 656.631 157.863C657.457 159.708 658.659 161.361 660.161 162.714C661.663 164.067 663.432 165.091 665.353 165.72C667.274 166.35 669.305 166.57 671.317 166.368C678.787 165.608 684.247 158.818 684.247 151.268V149.128C684.241 146.618 684.761 144.135 685.771 141.838C686.782 139.54 688.263 137.48 690.117 135.788" stroke="#CCDDE2" stroke-width="4.59" stroke-linejoin="round"/>
<path d="M649.367 135.738C651.249 137.428 652.755 139.494 653.788 141.802C654.822 144.11 655.36 146.609 655.367 149.138V151.998C655.375 154.02 655.806 156.018 656.631 157.863C657.457 159.708 658.659 161.361 660.161 162.714C661.663 164.067 663.432 165.091 665.353 165.72C667.274 166.35 669.305 166.57 671.317 166.368C678.787 165.608 684.247 158.818 684.247 151.268V149.128C684.241 146.618 684.761 144.135 685.771 141.838C686.782 139.54 688.263 137.48 690.117 135.788" stroke="#CCDDE2" stroke-width="4.59" stroke-linejoin="round"/>
<path d="M649.367 135.741C648.409 134.907 647.371 134.17 646.267 133.541C637.81 128.687 631.063 121.334 626.952 112.492C622.84 103.651 621.565 93.753 623.301 84.158C625.038 74.563 629.702 65.741 636.652 58.901C643.602 52.062 652.498 47.541 662.12 45.958C671.742 44.376 681.617 45.81 690.392 50.063C699.166 54.316 706.41 61.181 711.128 69.714C715.846 78.248 717.808 88.032 716.744 97.725C715.681 107.418 711.644 116.544 705.187 123.851C705.086 123.948 704.996 124.055 704.917 124.171C701.505 127.918 697.527 131.107 693.127 133.621C692.042 134.224 691.035 134.956 690.127 135.801" stroke="#CCDDE2" stroke-width="4.59" stroke-linejoin="round"/>
<path d="M664.747 132.662C661.697 127.122 656.557 119.782 652.937 114.552C649 109.005 645.784 102.98 643.367 96.6219C643.047 95.9359 642.923 95.1739 643.007 94.4219C643.057 94.0489 643.249 93.7089 643.544 93.4739C643.838 93.2399 644.212 93.1278 644.587 93.1618C645.257 93.2918 645.587 93.9919 645.937 94.6019C647.375 97.4589 649.423 99.9648 651.937 101.942C653.347 103.032 655.347 103.942 656.817 102.942C657.263 102.551 657.622 102.07 657.868 101.53C658.115 100.991 658.244 100.405 658.247 99.8119C658.689 95.6009 657.588 91.3718 655.147 87.9118C654.147 86.5518 652.407 85.2319 650.997 86.1219C649.587 87.0119 649.997 89.2118 650.837 90.6918C652.33 93.4348 654.366 95.8459 656.821 97.7759C659.276 99.7069 662.099 101.118 665.117 101.922C666.597 102.418 668.196 102.435 669.687 101.972C670.515 101.595 671.238 101.022 671.794 100.302C672.349 99.5819 672.721 98.7379 672.877 97.8419C673.175 96.0419 673.02 94.1968 672.427 92.4718C671.607 89.7818 670.017 87.0318 667.347 86.1318C666.511 85.8068 665.583 85.8068 664.747 86.1318C664.192 86.4288 663.732 86.8769 663.419 87.4229C663.106 87.9689 662.953 88.5928 662.977 89.2218C663.043 90.4808 663.428 91.7029 664.097 92.7719C665.647 95.4759 667.829 97.7639 670.458 99.4399C673.086 101.115 676.081 102.128 679.187 102.392C681.261 102.687 683.37 102.183 685.087 100.982C685.803 100.318 686.38 99.5179 686.783 98.6279C687.187 97.7389 687.409 96.7779 687.437 95.8019C687.664 92.8749 686.838 89.9629 685.107 87.5919C684.757 87.1219 684.227 86.5919 683.657 86.7819C683.087 86.9719 682.927 87.6119 682.857 88.1819C682.597 90.4219 682.784 92.6909 683.409 94.8579C684.034 97.0239 685.084 99.0449 686.497 100.802C688.057 102.712 690.427 104.372 692.827 103.802C693.735 103.525 694.55 103.006 695.186 102.301C695.821 101.597 696.254 100.733 696.437 99.8019C696.783 97.9349 696.596 96.0079 695.897 94.2419C695.037 94.7699 694.301 95.4769 693.74 96.3159C693.179 97.1549 692.806 98.1049 692.647 99.1019C692.207 101.102 692.237 103.102 691.897 105.102C690.017 116.322 677.657 121.332 675.257 132.102" stroke="#CCDDE2" stroke-width="4.59" stroke-linejoin="round"/>
<path d="M669.747 28.42L669.277 0" stroke="#CCDDE2" stroke-width="4.59" stroke-linejoin="round"/>
<path d="M615.537 54.8621L595.867 34.3521" stroke="#CCDDE2" stroke-width="4.59" stroke-linejoin="round"/>
<path d="M724.147 56.1408L744.257 36.0508" stroke="#CCDDE2" stroke-width="4.59" stroke-linejoin="round"/>
<path d="M734.887 324.639C740.576 324.639 745.187 320.028 745.187 314.339C745.187 308.651 740.576 304.039 734.887 304.039C729.199 304.039 724.587 308.651 724.587 314.339C724.587 320.028 729.199 324.639 734.887 324.639Z" fill="#B1B2FF"/>
</g>
<defs>
<clipPath id="clip0_415_2009">
<rect width="900.023" height="683.16" fill="white"/>
</clipPath>
</defs>
</svg>
