<svg width="900" height="733" viewBox="0 0 900 733" fill="none" xmlns="http://www.w3.org/2000/svg">
<g clip-path="url(#clip0_414_1785)">
<path d="M214.73 331.425C214.73 331.425 199.39 185.425 303.81 165.765C408.23 146.105 427.64 162.595 500.37 112.675C573.1 62.7546 802.89 210.105 756.37 417.365C750.883 441.945 743.921 466.173 735.52 489.915" stroke="#AAC4FF" stroke-width="3.7" stroke-miterlimit="10"/>
<path d="M665.07 234.774H627.09V730.764H665.07V234.774Z" stroke="#AAC4FF" stroke-width="3.7" stroke-miterlimit="10"/>
<path d="M325.28 616.504V234.774H627.09V730.774H576.24V578.444C576.227 572.337 573.791 566.486 569.468 562.174C565.144 557.861 559.286 555.441 553.18 555.444H401.38C395.275 555.444 389.418 557.865 385.095 562.177C380.772 566.488 378.336 572.338 378.32 578.444V730.774H328.83M325.28 673.354V647.504M361.49 492.964C361.171 492.962 360.856 492.898 360.562 492.775C360.269 492.651 360.002 492.471 359.778 492.244C359.554 492.018 359.377 491.749 359.258 491.454C359.138 491.158 359.077 490.842 359.08 490.524V471.004C359.08 470.364 359.334 469.752 359.786 469.3C360.238 468.848 360.851 468.594 361.49 468.594H400.85C401.169 468.591 401.485 468.651 401.78 468.771C402.075 468.891 402.344 469.068 402.571 469.292C402.797 469.516 402.978 469.782 403.101 470.076C403.224 470.37 403.289 470.685 403.29 471.004V490.524C403.291 490.844 403.229 491.162 403.107 491.459C402.985 491.756 402.805 492.025 402.578 492.252C402.351 492.479 402.082 492.658 401.785 492.781C401.489 492.903 401.171 492.965 400.85 492.964H361.49ZM430.68 524.644C430.675 525.287 430.415 525.903 429.958 526.356C429.501 526.809 428.884 527.064 428.24 527.064H388.88C388.236 527.064 387.619 526.809 387.162 526.356C386.705 525.903 386.445 525.287 386.44 524.644V505.104C386.448 504.462 386.708 503.849 387.165 503.398C387.622 502.947 388.238 502.694 388.88 502.694H428.24C428.882 502.694 429.498 502.947 429.955 503.398C430.412 503.849 430.672 504.462 430.68 505.104V524.644ZM411 490.524V471.004C411.001 470.685 411.066 470.37 411.189 470.076C411.312 469.782 411.493 469.516 411.719 469.292C411.946 469.068 412.215 468.891 412.51 468.771C412.805 468.651 413.121 468.591 413.44 468.594H452.8C453.442 468.594 454.058 468.847 454.515 469.298C454.972 469.749 455.232 470.362 455.24 471.004V490.524C455.237 491.17 454.979 491.789 454.522 492.246C454.065 492.703 453.446 492.961 452.8 492.964H413.43C413.11 492.964 412.793 492.901 412.498 492.778C412.202 492.655 411.934 492.475 411.708 492.248C411.482 492.022 411.304 491.753 411.182 491.457C411.061 491.161 410.999 490.844 411 490.524ZM482.42 524.644C482.421 524.961 482.36 525.275 482.239 525.569C482.119 525.863 481.942 526.129 481.718 526.354C481.494 526.579 481.228 526.758 480.935 526.879C480.642 527.001 480.327 527.064 480.01 527.064H440.61C440.293 527.064 439.979 527.001 439.685 526.879C439.392 526.758 439.126 526.579 438.902 526.354C438.678 526.129 438.501 525.863 438.381 525.569C438.26 525.275 438.199 524.961 438.2 524.644V505.104C438.2 504.465 438.454 503.852 438.906 503.4C439.358 502.948 439.971 502.694 440.61 502.694H480C480.639 502.694 481.252 502.948 481.704 503.4C482.156 503.852 482.41 504.465 482.41 505.104L482.42 524.644ZM507.14 490.524C507.141 490.844 507.079 491.162 506.957 491.459C506.835 491.756 506.655 492.025 506.428 492.252C506.201 492.479 505.932 492.658 505.635 492.781C505.339 492.903 505.021 492.965 504.7 492.964H465.34C465.021 492.962 464.705 492.898 464.411 492.775C464.117 492.652 463.849 492.471 463.625 492.245C463.4 492.018 463.222 491.75 463.101 491.454C462.98 491.159 462.919 490.843 462.92 490.524V471.004C462.92 470.686 462.983 470.372 463.104 470.079C463.226 469.786 463.405 469.52 463.629 469.296C463.854 469.072 464.121 468.895 464.415 468.774C464.708 468.654 465.023 468.592 465.34 468.594H504.69C505.009 468.591 505.325 468.651 505.62 468.771C505.915 468.891 506.184 469.068 506.411 469.292C506.637 469.516 506.818 469.782 506.941 470.076C507.065 470.37 507.129 470.685 507.13 471.004L507.14 490.524ZM559.05 490.524C559.053 490.842 558.992 491.158 558.873 491.454C558.753 491.749 558.576 492.018 558.352 492.244C558.128 492.471 557.861 492.651 557.568 492.775C557.274 492.898 556.959 492.962 556.64 492.964H517.27C516.949 492.965 516.631 492.903 516.335 492.781C516.038 492.658 515.769 492.479 515.542 492.252C515.315 492.025 515.135 491.756 515.013 491.459C514.891 491.162 514.829 490.844 514.83 490.524V471.004C514.831 470.685 514.896 470.37 515.019 470.076C515.142 469.782 515.323 469.516 515.549 469.292C515.776 469.068 516.045 468.891 516.34 468.771C516.635 468.651 516.951 468.591 517.27 468.594H556.63C557.269 468.594 557.882 468.848 558.334 469.3C558.786 469.752 559.04 470.364 559.04 471.004L559.05 490.524ZM595.49 417.234C595.498 420.259 594.909 423.256 593.757 426.054C592.604 428.851 590.911 431.394 588.775 433.536C586.638 435.678 584.1 437.378 581.306 438.537C578.511 439.697 575.515 440.294 572.49 440.294H380.33C374.215 440.291 368.351 437.861 364.027 433.537C359.703 429.213 357.273 423.349 357.27 417.234V335.924C357.27 329.808 359.7 323.942 364.024 319.618C368.349 315.293 374.214 312.864 380.33 312.864H572.45C575.476 312.864 578.471 313.461 581.266 314.62C584.06 315.78 586.598 317.479 588.735 319.621C590.871 321.764 592.564 324.306 593.717 327.104C594.869 329.901 595.458 332.898 595.45 335.924L595.49 417.234ZM592.12 285.934C591.062 287.006 589.8 287.856 588.409 288.435C587.019 289.013 585.526 289.309 584.02 289.304H370.55C367.509 289.301 364.593 288.092 362.442 285.941C360.292 283.791 359.083 280.875 359.08 277.834C359.091 274.795 360.302 271.884 362.451 269.735C364.6 267.586 367.511 266.374 370.55 266.364H584C585.507 266.362 586.999 266.658 588.391 267.234C589.783 267.81 591.048 268.655 592.113 269.72C593.179 270.786 594.024 272.051 594.6 273.443C595.176 274.835 595.471 276.327 595.47 277.834C595.476 279.339 595.182 280.831 594.605 282.222C594.029 283.613 593.18 284.875 592.11 285.934H592.12Z" stroke="#AAC4FF" stroke-width="3.7" stroke-miterlimit="10"/>
<path d="M400.85 492.964H361.49C361.171 492.963 360.856 492.899 360.562 492.775C360.269 492.652 360.002 492.471 359.778 492.245C359.554 492.018 359.377 491.749 359.257 491.454C359.138 491.159 359.077 490.843 359.08 490.524V471.004C359.08 470.365 359.334 469.752 359.786 469.3C360.238 468.848 360.851 468.594 361.49 468.594H400.85C401.169 468.591 401.485 468.652 401.78 468.772C402.075 468.891 402.344 469.068 402.571 469.292C402.797 469.516 402.977 469.783 403.101 470.076C403.224 470.37 403.289 470.685 403.29 471.004V490.524C403.291 490.845 403.229 491.163 403.107 491.459C402.985 491.756 402.805 492.026 402.578 492.252C402.351 492.479 402.082 492.659 401.785 492.781C401.489 492.903 401.171 492.965 400.85 492.964Z" stroke="#AAC4FF" stroke-width="3.7" stroke-miterlimit="10"/>
<path d="M388.88 502.696H428.24C428.882 502.696 429.498 502.948 429.955 503.4C430.412 503.851 430.672 504.464 430.68 505.106V524.646C430.675 525.289 430.415 525.905 429.958 526.358C429.501 526.811 428.884 527.066 428.24 527.066H388.88C388.236 527.066 387.619 526.811 387.162 526.358C386.705 525.905 386.445 525.289 386.44 524.646V505.106C386.448 504.464 386.708 503.851 387.165 503.4C387.622 502.948 388.238 502.696 388.88 502.696Z" stroke="#AAC4FF" stroke-width="3.7" stroke-miterlimit="10"/>
<path d="M455.23 471.004V490.524C455.227 491.17 454.969 491.789 454.512 492.246C454.055 492.704 453.436 492.961 452.79 492.964H413.43C413.109 492.965 412.791 492.903 412.495 492.781C412.198 492.659 411.929 492.479 411.702 492.252C411.475 492.026 411.295 491.756 411.173 491.459C411.051 491.163 410.989 490.845 410.99 490.524V471.004C410.991 470.685 411.056 470.37 411.179 470.076C411.302 469.783 411.483 469.516 411.709 469.292C411.936 469.068 412.205 468.891 412.5 468.772C412.795 468.652 413.111 468.591 413.43 468.594H452.79C453.432 468.594 454.048 468.847 454.505 469.298C454.962 469.749 455.222 470.362 455.23 471.004Z" stroke="#AAC4FF" stroke-width="3.7" stroke-miterlimit="10"/>
<path d="M480 502.696H440.61C439.279 502.696 438.2 503.775 438.2 505.106V524.656C438.2 525.987 439.279 527.066 440.61 527.066H480C481.331 527.066 482.41 525.987 482.41 524.656V505.106C482.41 503.775 481.331 502.696 480 502.696Z" stroke="#AAC4FF" stroke-width="3.7" stroke-miterlimit="10"/>
<path d="M465.34 492.964C465.021 492.963 464.705 492.899 464.411 492.775C464.116 492.652 463.849 492.472 463.625 492.245C463.4 492.019 463.222 491.75 463.101 491.455C462.98 491.159 462.919 490.843 462.92 490.524V471.004C462.92 470.687 462.983 470.373 463.104 470.079C463.226 469.786 463.405 469.52 463.629 469.296C463.854 469.072 464.121 468.895 464.415 468.775C464.708 468.654 465.023 468.593 465.34 468.594H504.69C505.009 468.591 505.325 468.652 505.62 468.772C505.915 468.891 506.184 469.068 506.411 469.292C506.637 469.516 506.818 469.783 506.941 470.076C507.064 470.37 507.129 470.685 507.13 471.004V490.524C507.131 490.845 507.069 491.163 506.947 491.459C506.825 491.756 506.645 492.026 506.418 492.252C506.191 492.479 505.922 492.659 505.625 492.781C505.329 492.903 505.011 492.965 504.69 492.964H465.34Z" stroke="#AAC4FF" stroke-width="3.7" stroke-miterlimit="10"/>
<path d="M517.27 492.964C516.949 492.965 516.631 492.903 516.335 492.781C516.038 492.659 515.769 492.479 515.542 492.252C515.315 492.026 515.135 491.756 515.013 491.459C514.891 491.163 514.829 490.845 514.83 490.524V471.004C514.831 470.685 514.896 470.37 515.019 470.076C515.143 469.783 515.323 469.516 515.549 469.292C515.776 469.068 516.045 468.891 516.34 468.772C516.635 468.652 516.951 468.591 517.27 468.594H556.63C557.269 468.594 557.882 468.848 558.334 469.3C558.786 469.752 559.04 470.365 559.04 471.004V490.524C559.043 490.843 558.982 491.159 558.863 491.454C558.743 491.749 558.566 492.018 558.342 492.245C558.118 492.471 557.852 492.652 557.558 492.775C557.264 492.899 556.949 492.963 556.63 492.964H517.27Z" stroke="#AAC4FF" stroke-width="3.7" stroke-miterlimit="10"/>
<path d="M576.24 578.446V730.776H378.32V578.446C378.336 572.34 380.772 566.49 385.095 562.178C389.418 557.867 395.275 555.446 401.38 555.446H553.18C559.286 555.443 565.144 557.863 569.468 562.176C573.791 566.488 576.227 572.339 576.24 578.446Z" stroke="#AAC4FF" stroke-width="3.7" stroke-miterlimit="10"/>
<path d="M359.08 277.834C359.091 274.795 360.302 271.883 362.451 269.735C364.6 267.586 367.511 266.374 370.55 266.364H584C585.507 266.362 586.999 266.658 588.391 267.234C589.783 267.81 591.048 268.655 592.114 269.72C593.179 270.785 594.024 272.05 594.6 273.443C595.176 274.835 595.471 276.327 595.47 277.834C595.46 280.872 594.248 283.784 592.099 285.932C589.95 288.081 587.039 289.293 584 289.304H370.55C367.509 289.301 364.593 288.092 362.443 285.941C360.292 283.791 359.083 280.875 359.08 277.834Z" stroke="#AAC4FF" stroke-width="3.7" stroke-miterlimit="10"/>
<path d="M464.88 347.295V405.965C464.883 408.097 464.465 410.209 463.651 412.18C462.837 414.15 461.643 415.942 460.137 417.451C458.631 418.96 456.842 420.157 454.873 420.975C452.903 421.792 450.792 422.214 448.66 422.215H391.77C387.465 422.21 383.338 420.495 380.296 417.448C377.255 414.401 375.547 410.27 375.55 405.965V347.295C375.549 345.164 375.967 343.053 376.782 341.083C377.596 339.114 378.79 337.324 380.297 335.816C381.803 334.308 383.591 333.111 385.56 332.294C387.528 331.477 389.639 331.056 391.77 331.055H448.66C450.792 331.055 452.903 331.475 454.872 332.292C456.841 333.108 458.63 334.304 460.136 335.813C461.643 337.321 462.837 339.111 463.651 341.082C464.465 343.052 464.883 345.163 464.88 347.295Z" stroke="#AAC4FF" stroke-width="3.7" stroke-miterlimit="10"/>
<path d="M576.59 347.223V406.043C576.593 408.175 576.175 410.287 575.361 412.258C574.548 414.228 573.353 416.02 571.847 417.529C570.341 419.038 568.552 420.235 566.583 421.053C564.613 421.87 562.502 422.292 560.37 422.293H503.37C501.237 422.292 499.126 421.87 497.156 421.053C495.186 420.236 493.397 419.038 491.89 417.529C490.383 416.02 489.187 414.229 488.373 412.258C487.558 410.288 487.139 408.176 487.14 406.043V347.223C487.139 345.09 487.558 342.978 488.373 341.007C489.187 339.037 490.383 337.246 491.89 335.737C493.397 334.228 495.186 333.03 497.156 332.213C499.126 331.396 501.237 330.974 503.37 330.973H560.37C562.502 330.974 564.613 331.396 566.583 332.213C568.552 333.031 570.341 334.228 571.847 335.737C573.353 337.246 574.548 339.037 575.361 341.008C576.175 342.979 576.593 345.091 576.59 347.223Z" stroke="#AAC4FF" stroke-width="3.7" stroke-miterlimit="10"/>
<path d="M572.45 312.864H380.33C374.214 312.864 368.349 315.293 364.024 319.618C359.7 323.942 357.27 329.808 357.27 335.924V417.234C357.273 423.349 359.703 429.212 364.027 433.536C368.351 437.86 374.215 440.291 380.33 440.294H572.45C575.476 440.294 578.471 439.697 581.266 438.537C584.06 437.377 586.598 435.678 588.735 433.536C590.871 431.394 592.564 428.851 593.717 426.054C594.869 423.256 595.458 420.259 595.45 417.234V335.924C595.458 332.898 594.869 329.901 593.717 327.103C592.564 324.306 590.871 321.763 588.735 319.621C586.598 317.479 584.06 315.78 581.266 314.62C578.471 313.46 575.476 312.864 572.45 312.864ZM464.88 405.964C464.883 408.096 464.465 410.208 463.651 412.178C462.837 414.149 461.643 415.94 460.137 417.449C458.631 418.958 456.842 420.156 454.873 420.973C452.903 421.791 450.792 422.212 448.66 422.214H391.77C387.465 422.208 383.338 420.493 380.296 417.446C377.254 414.399 375.547 410.269 375.55 405.964V347.294C375.549 345.162 375.967 343.051 376.782 341.082C377.596 339.112 378.79 337.322 380.297 335.814C381.803 334.306 383.591 333.11 385.56 332.293C387.528 331.476 389.639 331.055 391.77 331.054H448.66C450.792 331.054 452.903 331.474 454.872 332.29C456.841 333.106 458.63 334.303 460.136 335.811C461.643 337.32 462.837 339.11 463.651 341.08C464.465 343.05 464.883 345.162 464.88 347.294V405.964ZM576.59 406.044C576.593 408.176 576.175 410.288 575.361 412.258C574.547 414.229 573.353 416.02 571.847 417.529C570.341 419.038 568.552 420.236 566.583 421.053C564.613 421.871 562.502 422.292 560.37 422.294H503.37C501.237 422.292 499.126 421.871 497.156 421.053C495.186 420.236 493.397 419.039 491.89 417.53C490.382 416.021 489.187 414.23 488.372 412.259C487.557 410.288 487.139 408.176 487.14 406.044V347.224C487.139 345.091 487.557 342.979 488.372 341.008C489.187 339.037 490.382 337.246 491.89 335.737C493.397 334.228 495.186 333.031 497.156 332.214C499.126 331.396 501.237 330.975 503.37 330.974H560.37C562.502 330.975 564.613 331.396 566.583 332.214C568.552 333.031 570.341 334.229 571.847 335.738C573.353 337.247 574.547 339.038 575.361 341.009C576.175 342.98 576.593 345.091 576.59 347.224V406.044Z" stroke="#AAC4FF" stroke-width="3.7" stroke-miterlimit="10"/>
<path d="M464.88 347.295V405.965C464.883 408.097 464.465 410.209 463.651 412.18C462.837 414.15 461.643 415.942 460.137 417.451C458.631 418.96 456.842 420.157 454.873 420.975C452.903 421.792 450.792 422.214 448.66 422.215H391.77C387.465 422.21 383.338 420.495 380.296 417.448C377.255 414.401 375.547 410.27 375.55 405.965V347.295C375.549 345.164 375.967 343.053 376.782 341.083C377.596 339.114 378.79 337.324 380.297 335.816C381.803 334.308 383.591 333.111 385.56 332.294C387.528 331.477 389.639 331.056 391.77 331.055H448.66C450.792 331.055 452.903 331.475 454.872 332.292C456.841 333.108 458.63 334.304 460.136 335.813C461.643 337.321 462.837 339.111 463.651 341.082C464.465 343.052 464.883 345.163 464.88 347.295Z" stroke="#AAC4FF" stroke-width="3.7" stroke-miterlimit="10"/>
<path d="M576.59 347.223V406.043C576.593 408.175 576.175 410.287 575.361 412.258C574.548 414.228 573.353 416.02 571.847 417.529C570.341 419.038 568.552 420.235 566.583 421.053C564.613 421.87 562.502 422.292 560.37 422.293H503.37C501.237 422.292 499.126 421.87 497.156 421.053C495.186 420.236 493.397 419.038 491.89 417.529C490.383 416.02 489.187 414.229 488.373 412.258C487.558 410.288 487.139 408.176 487.14 406.043V347.223C487.139 345.09 487.558 342.978 488.373 341.007C489.187 339.037 490.383 337.246 491.89 335.737C493.397 334.228 495.186 333.03 497.156 332.213C499.126 331.396 501.237 330.974 503.37 330.973H560.37C562.502 330.974 564.613 331.396 566.583 332.213C568.552 333.031 570.341 334.228 571.847 335.737C573.353 337.246 574.548 339.037 575.361 341.008C576.175 342.979 576.593 345.091 576.59 347.223Z" stroke="#AAC4FF" stroke-width="3.7" stroke-miterlimit="10"/>
<path d="M576.59 347.223V406.043C576.593 408.175 576.175 410.287 575.361 412.258C574.548 414.228 573.353 416.02 571.847 417.529C570.341 419.038 568.552 420.235 566.583 421.053C564.613 421.87 562.502 422.292 560.37 422.293H503.37C501.237 422.292 499.126 421.87 497.156 421.053C495.186 420.236 493.397 419.038 491.89 417.529C490.383 416.02 489.187 414.229 488.373 412.258C487.558 410.288 487.139 408.176 487.14 406.043V347.223C487.139 345.09 487.558 342.978 488.373 341.007C489.187 339.037 490.383 337.246 491.89 335.737C493.397 334.228 495.186 333.03 497.156 332.213C499.126 331.396 501.237 330.974 503.37 330.973H560.37C562.502 330.974 564.613 331.396 566.583 332.213C568.552 333.031 570.341 334.228 571.847 335.737C573.353 337.246 574.548 339.037 575.361 341.008C576.175 342.979 576.593 345.091 576.59 347.223Z" stroke="#AAC4FF" stroke-width="3.7" stroke-miterlimit="10"/>
<path d="M464.88 347.295V405.965C464.883 408.097 464.465 410.209 463.651 412.18C462.837 414.15 461.643 415.942 460.137 417.451C458.631 418.96 456.842 420.157 454.873 420.975C452.903 421.792 450.792 422.214 448.66 422.215H391.77C387.465 422.21 383.338 420.495 380.296 417.448C377.255 414.401 375.547 410.27 375.55 405.965V347.295C375.549 345.164 375.967 343.053 376.782 341.083C377.596 339.114 378.79 337.324 380.297 335.816C381.803 334.308 383.591 333.111 385.56 332.294C387.528 331.477 389.639 331.056 391.77 331.055H448.66C450.792 331.055 452.903 331.475 454.872 332.292C456.841 333.108 458.63 334.304 460.136 335.813C461.643 337.321 462.837 339.111 463.651 341.082C464.465 343.052 464.883 345.163 464.88 347.295Z" stroke="#AAC4FF" stroke-width="3.7" stroke-miterlimit="10"/>
<path d="M576.24 578.446V730.776H378.32V578.446C378.336 572.34 380.772 566.49 385.095 562.178C389.418 557.867 395.275 555.446 401.38 555.446H553.18C559.286 555.443 565.144 557.863 569.468 562.176C573.791 566.488 576.227 572.339 576.24 578.446Z" stroke="#AAC4FF" stroke-width="3.7" stroke-miterlimit="10"/>
<path d="M403.29 471.004V490.524C403.291 490.845 403.229 491.163 403.107 491.459C402.985 491.756 402.805 492.026 402.578 492.252C402.351 492.479 402.082 492.659 401.785 492.781C401.489 492.903 401.171 492.965 400.85 492.964H361.49C361.171 492.963 360.856 492.899 360.562 492.775C360.269 492.652 360.002 492.471 359.778 492.245C359.554 492.018 359.377 491.749 359.257 491.454C359.138 491.159 359.077 490.843 359.08 490.524V471.004C359.08 470.365 359.334 469.752 359.786 469.3C360.238 468.848 360.851 468.594 361.49 468.594H400.85C401.169 468.591 401.485 468.652 401.78 468.772C402.075 468.891 402.344 469.068 402.571 469.292C402.797 469.516 402.977 469.783 403.101 470.076C403.224 470.37 403.289 470.685 403.29 471.004Z" stroke="#AAC4FF" stroke-width="3.7" stroke-miterlimit="10"/>
<path d="M455.23 471.004V490.524C455.227 491.17 454.969 491.789 454.512 492.246C454.055 492.704 453.436 492.961 452.79 492.964H413.43C413.109 492.965 412.791 492.903 412.495 492.781C412.198 492.659 411.929 492.479 411.702 492.252C411.475 492.026 411.295 491.756 411.173 491.459C411.051 491.163 410.989 490.845 410.99 490.524V471.004C410.991 470.685 411.056 470.37 411.179 470.076C411.302 469.783 411.483 469.516 411.709 469.292C411.936 469.068 412.205 468.891 412.5 468.772C412.795 468.652 413.111 468.591 413.43 468.594H452.79C453.432 468.594 454.048 468.847 454.505 469.298C454.962 469.749 455.222 470.362 455.23 471.004Z" stroke="#AAC4FF" stroke-width="3.7" stroke-miterlimit="10"/>
<path d="M507.13 471.004V490.524C507.131 490.845 507.069 491.163 506.947 491.459C506.825 491.756 506.645 492.026 506.418 492.252C506.191 492.479 505.922 492.659 505.625 492.781C505.329 492.903 505.011 492.965 504.69 492.964H465.34C465.021 492.963 464.705 492.899 464.411 492.775C464.116 492.652 463.849 492.472 463.625 492.245C463.4 492.019 463.222 491.75 463.101 491.455C462.98 491.159 462.919 490.843 462.92 490.524V471.004C462.92 470.687 462.983 470.373 463.104 470.079C463.226 469.786 463.405 469.52 463.629 469.296C463.854 469.072 464.121 468.895 464.415 468.775C464.708 468.654 465.023 468.593 465.34 468.594H504.69C505.009 468.591 505.325 468.652 505.62 468.772C505.915 468.891 506.184 469.068 506.411 469.292C506.637 469.516 506.818 469.783 506.941 470.076C507.064 470.37 507.129 470.685 507.13 471.004Z" stroke="#AAC4FF" stroke-width="3.7" stroke-miterlimit="10"/>
<path d="M559 471.004V490.524C559.003 490.843 558.942 491.159 558.823 491.454C558.703 491.749 558.526 492.018 558.302 492.245C558.078 492.471 557.811 492.652 557.518 492.775C557.224 492.899 556.909 492.963 556.59 492.964H517.27C516.949 492.965 516.631 492.903 516.335 492.781C516.038 492.659 515.769 492.479 515.542 492.252C515.315 492.026 515.135 491.756 515.013 491.459C514.891 491.163 514.829 490.845 514.83 490.524V471.004C514.831 470.685 514.896 470.37 515.019 470.076C515.143 469.783 515.323 469.516 515.549 469.292C515.776 469.068 516.045 468.891 516.34 468.772C516.635 468.652 516.951 468.591 517.27 468.594H556.63C557.262 468.605 557.865 468.863 558.308 469.314C558.752 469.765 559 470.372 559 471.004Z" stroke="#AAC4FF" stroke-width="3.7" stroke-miterlimit="10"/>
<path d="M430.68 505.106V524.646C430.675 525.289 430.415 525.905 429.958 526.358C429.501 526.811 428.884 527.066 428.24 527.066H388.88C388.236 527.066 387.619 526.811 387.162 526.358C386.705 525.905 386.445 525.289 386.44 524.646V505.106C386.448 504.464 386.708 503.851 387.165 503.4C387.622 502.948 388.238 502.696 388.88 502.696H428.24C428.882 502.696 429.498 502.948 429.955 503.4C430.412 503.851 430.672 504.464 430.68 505.106Z" stroke="#AAC4FF" stroke-width="3.7" stroke-miterlimit="10"/>
<path d="M480 502.696H440.61C439.279 502.696 438.2 503.775 438.2 505.106V524.656C438.2 525.987 439.279 527.066 440.61 527.066H480C481.331 527.066 482.41 525.987 482.41 524.656V505.106C482.41 503.775 481.331 502.696 480 502.696Z" stroke="#AAC4FF" stroke-width="3.7" stroke-miterlimit="10"/>
<path d="M595.48 277.834C595.47 280.874 594.256 283.787 592.105 285.936C589.955 288.085 587.041 289.296 584 289.304H370.55C367.509 289.301 364.593 288.092 362.443 285.941C360.292 283.791 359.083 280.875 359.08 277.834C359.091 274.795 360.302 271.883 362.451 269.735C364.6 267.586 367.511 266.374 370.55 266.364H584C585.508 266.361 587.001 266.656 588.394 267.231C589.787 267.806 591.054 268.651 592.12 269.717C593.186 270.782 594.032 272.047 594.609 273.44C595.185 274.833 595.481 276.326 595.48 277.834Z" stroke="#AAC4FF" stroke-width="3.7" stroke-miterlimit="10"/>
<path d="M552.56 573.063H401.41C397.826 573.063 394.92 575.968 394.92 579.553V579.803C394.92 583.387 397.826 586.293 401.41 586.293H552.56C556.144 586.293 559.05 583.387 559.05 579.803V579.553C559.05 575.968 556.144 573.063 552.56 573.063Z" stroke="#AAC4FF" stroke-width="3.7" stroke-miterlimit="10"/>
<path d="M552.56 600.364H401.41C397.826 600.364 394.92 603.269 394.92 606.854V607.104C394.92 610.688 397.826 613.594 401.41 613.594H552.56C556.144 613.594 559.05 610.688 559.05 607.104V606.854C559.05 603.269 556.144 600.364 552.56 600.364Z" stroke="#AAC4FF" stroke-width="3.7" stroke-miterlimit="10"/>
<path d="M552.56 627.664H401.41C397.826 627.664 394.92 630.57 394.92 634.154V634.404C394.92 637.989 397.826 640.894 401.41 640.894H552.56C556.144 640.894 559.05 637.989 559.05 634.404V634.154C559.05 630.57 556.144 627.664 552.56 627.664Z" stroke="#AAC4FF" stroke-width="3.7" stroke-miterlimit="10"/>
<path d="M552.56 654.973H401.41C397.826 654.973 394.92 657.879 394.92 661.463V661.713C394.92 665.297 397.826 668.203 401.41 668.203H552.56C556.144 668.203 559.05 665.297 559.05 661.713V661.463C559.05 657.879 556.144 654.973 552.56 654.973Z" stroke="#AAC4FF" stroke-width="3.7" stroke-miterlimit="10"/>
<path d="M552.56 682.274H401.41C397.826 682.274 394.92 685.179 394.92 688.764V689.014C394.92 692.598 397.826 695.504 401.41 695.504H552.56C556.144 695.504 559.05 692.598 559.05 689.014V688.764C559.05 685.179 556.144 682.274 552.56 682.274Z" stroke="#AAC4FF" stroke-width="3.7" stroke-miterlimit="10"/>
<path d="M297.37 189.594H683.45C689.502 189.594 695.307 191.998 699.586 196.278C703.866 200.557 706.27 206.362 706.27 212.414V234.414H274.55V212.414C274.55 206.362 276.954 200.557 281.234 196.278C285.513 191.998 291.318 189.594 297.37 189.594Z" stroke="#AAC4FF" stroke-width="3.7" stroke-miterlimit="10"/>
<path d="M665.06 545.903H706.57V583.673H745.96V627.053H784.32V661.023H822.07V690.913H900V730.753H665.06V545.903Z" stroke="#AAC4FF" stroke-width="3.7" stroke-miterlimit="10"/>
<path d="M672.89 462.274H706.84H707.87L746.02 500.434L784.48 538.884L822.08 576.484L839.86 594.264" stroke="#AAC4FF" stroke-width="3.7" stroke-miterlimit="10"/>
<path d="M706.84 583.674V462.274" stroke="#AAC4FF" stroke-width="3.7" stroke-miterlimit="10"/>
<path d="M822.08 661.035V576.485" stroke="#AAC4FF" stroke-width="3.7" stroke-miterlimit="10"/>
<path d="M746.02 600.672V500.422" stroke="#AAC4FF" stroke-width="3.7" stroke-miterlimit="10"/>
<path d="M784.32 538.883V630.373" stroke="#AAC4FF" stroke-width="3.7" stroke-miterlimit="10"/>
<path d="M325.13 647.723V673.353" stroke="#AAC4FF" stroke-width="3.7" stroke-miterlimit="10"/>
<path d="M287.15 673.355V657.595C288.76 662.215 293.09 666.245 298.67 668.235C296.86 655.035 293.32 634.235 287.15 615.625" stroke="#AAC4FF" stroke-width="3.7" stroke-miterlimit="10"/>
<path d="M325.13 596.394V376.594H287.15V586.514" stroke="#AAC4FF" stroke-width="3.7" stroke-miterlimit="10"/>
<path d="M287.15 657.614V673.354" stroke="#AAC4FF" stroke-width="3.7" stroke-miterlimit="10"/>
<path d="M287.15 586.514V376.594H50.73V730.774H284.08H287.15" stroke="#AAC4FF" stroke-width="3.7" stroke-miterlimit="10"/>
<path d="M122.64 428.465V566.855C122.64 579.342 132.763 589.465 145.25 589.465H198.25C210.737 589.465 220.86 579.342 220.86 566.855V428.465C220.86 415.978 210.737 405.855 198.25 405.855H145.25C132.763 405.855 122.64 415.978 122.64 428.465Z" stroke="#AAC4FF" stroke-width="3.7" stroke-miterlimit="10"/>
<path d="M136.61 436.345V473.465C136.61 482.263 143.742 489.395 152.54 489.395H191.06C199.858 489.395 206.99 482.263 206.99 473.465V436.345C206.99 427.547 199.858 420.415 191.06 420.415H152.54C143.742 420.415 136.61 427.547 136.61 436.345Z" stroke="#AAC4FF" stroke-width="3.7" stroke-miterlimit="10"/>
<path d="M136.67 522.435V559.445C136.67 568.243 143.802 575.375 152.6 575.375H191C199.798 575.375 206.93 568.243 206.93 559.445V522.435C206.93 513.637 199.798 506.505 191 506.505H152.6C143.802 506.505 136.67 513.637 136.67 522.435Z" stroke="#AAC4FF" stroke-width="3.7" stroke-miterlimit="10"/>
<path d="M126.35 610.414H86.91C85.59 610.414 84.52 611.484 84.52 612.804V632.404C84.52 633.724 85.59 634.794 86.91 634.794H126.35C127.67 634.794 128.74 633.724 128.74 632.404V612.804C128.74 611.484 127.67 610.414 126.35 610.414Z" stroke="#AAC4FF" stroke-width="3.7" stroke-miterlimit="10"/>
<path d="M178.27 610.414H138.83C137.51 610.414 136.44 611.484 136.44 612.804V632.404C136.44 633.724 137.51 634.794 138.83 634.794H178.27C179.59 634.794 180.66 633.724 180.66 632.404V612.804C180.66 611.484 179.59 610.414 178.27 610.414Z" stroke="#AAC4FF" stroke-width="3.7" stroke-miterlimit="10"/>
<path d="M230.19 610.414H190.75C189.43 610.414 188.36 611.484 188.36 612.804V632.404C188.36 633.724 189.43 634.794 190.75 634.794H230.19C231.51 634.794 232.58 633.724 232.58 632.404V612.804C232.58 611.484 231.51 610.414 230.19 610.414Z" stroke="#AAC4FF" stroke-width="3.7" stroke-miterlimit="10"/>
<path d="M153.73 644.524H114.29C112.97 644.524 111.9 645.594 111.9 646.914V666.514C111.9 667.834 112.97 668.904 114.29 668.904H153.73C155.05 668.904 156.12 667.834 156.12 666.514V646.914C156.12 645.594 155.05 644.524 153.73 644.524Z" stroke="#AAC4FF" stroke-width="3.7" stroke-miterlimit="10"/>
<path d="M205.47 644.524H166.03C164.71 644.524 163.64 645.594 163.64 646.914V666.514C163.64 667.834 164.71 668.904 166.03 668.904H205.47C206.79 668.904 207.86 667.834 207.86 666.514V646.914C207.86 645.594 206.79 644.524 205.47 644.524Z" stroke="#AAC4FF" stroke-width="3.7" stroke-miterlimit="10"/>
<path d="M23.26 331.422H325.26V376.212H0V354.692C0.0026 348.523 2.4538 342.607 6.815 338.244C11.1762 333.881 17.091 331.427 23.26 331.422Z" stroke="#AAC4FF" stroke-width="3.7" stroke-miterlimit="10"/>
<path d="M306.5 625.656C308.57 623.976 310.97 622.426 312.63 620.576C317.29 615.366 315.5 608.706 318.49 602.986C322.13 595.986 333.57 591.136 344.82 591.776C343.755 595.067 343.024 598.458 342.64 601.896C342.31 604.956 343.11 608.356 342.23 611.326C340.8 616.086 333.16 618.976 332.23 623.866C331.41 628.186 336.47 632.226 335.63 636.626C334.74 641.346 327.49 643.956 324.82 648.126C322.64 651.526 323.67 655.406 322.54 659.016C321.17 663.376 316.43 667.226 310.22 669.016L309.6 669.196C307.319 667.239 305.362 664.934 303.8 662.366" stroke="#AAC4FF" stroke-width="3.7" stroke-miterlimit="10"/>
<path d="M338 597.254C321.23 614.364 313.34 650.434 310.27 669.034C310.02 670.604 309.79 672.034 309.6 673.344" stroke="#AAC4FF" stroke-width="3.7" stroke-miterlimit="10"/>
<path d="M339.5 683.824L331.78 726.964C331.566 728.175 330.933 729.271 329.991 730.061C329.049 730.851 327.859 731.284 326.63 731.284H286.3C285.059 731.284 283.858 730.842 282.913 730.038C281.968 729.234 281.339 728.119 281.14 726.894L274 683.824H339.5Z" stroke="#AAC4FF" stroke-width="3.7" stroke-miterlimit="10"/>
<path d="M346.83 679.014C346.722 680.325 346.125 681.547 345.158 682.438C344.192 683.329 342.925 683.824 341.61 683.824H272C270.697 683.825 269.441 683.339 268.477 682.463C267.514 681.586 266.912 680.381 266.79 679.084C266.72 678.358 266.803 677.625 267.033 676.932C267.263 676.24 267.636 675.603 268.126 675.062C268.617 674.522 269.214 674.09 269.882 673.794C270.549 673.498 271.27 673.345 272 673.344H341.57C342.298 673.339 343.018 673.485 343.686 673.774C344.354 674.062 344.954 674.487 345.449 675.02C345.944 675.554 346.322 676.184 346.56 676.872C346.798 677.559 346.89 678.289 346.83 679.014Z" stroke="#AAC4FF" stroke-width="3.7" stroke-miterlimit="10"/>
<path d="M287.15 657.595C287.032 657.267 286.932 656.934 286.85 656.595C285.74 652.415 286.73 647.885 284.64 643.965C282.07 639.135 275.13 636.115 274.25 630.635C273.47 625.555 278.33 620.855 277.52 615.845C276.64 610.195 269.3 606.845 267.91 601.315C267.08 597.895 267.84 593.945 267.54 590.395C267.167 586.435 266.458 582.515 265.42 578.675C273.72 578.105 282.12 581.295 287.15 586.475C288.658 587.971 289.869 589.739 290.72 591.685C293.59 598.295 291.88 606.015 296.36 612.055C298.8 615.325 302.85 617.765 304.93 621.185C305.626 622.302 306.113 623.535 306.37 624.825C306.38 624.92 306.397 625.013 306.42 625.105C306.47 625.285 306.49 625.455 306.52 625.605C307.27 630.665 305.34 636.145 305.96 641.355C306.52 645.675 308.86 650.005 307.52 654.225C306.581 657.063 305.334 659.789 303.8 662.355C302.556 664.566 301.026 666.604 299.25 668.415C299.05 668.365 298.87 668.285 298.67 668.215C296.86 655.015 293.32 634.215 287.15 615.605" stroke="#AAC4FF" stroke-width="3.7" stroke-miterlimit="10"/>
<path d="M299.33 673.332C299.15 671.792 298.92 670.112 298.67 668.252C296.86 655.052 293.32 634.252 287.15 615.642C283.26 603.792 278.3 592.782 272.04 585.082" stroke="#AAC4FF" stroke-width="3.7" stroke-miterlimit="10"/>
<path d="M296.36 612.083C296.36 612.083 297.47 594.863 306.76 589.623C316.05 584.383 315.85 613.743 315.85 613.743" stroke="#AAC4FF" stroke-width="3.7" stroke-miterlimit="10"/>
<path d="M306.5 625.654C305.451 619.118 305.94 612.427 307.93 606.114" stroke="#AAC4FF" stroke-width="3.7" stroke-miterlimit="10"/>
<path d="M446.42 303.485C447.71 304.883 448.455 306.698 448.519 308.6C448.583 310.501 447.962 312.363 446.77 313.845L423.66 353.595L422.85 361.595L415.66 433.845L404.24 548.595C404.17 549.325 404.02 550.055 403.89 550.785C403.82 551.365 403.74 551.945 403.64 552.525C403.49 553.275 403.31 553.985 403.14 554.705C402.97 555.425 402.86 555.895 402.68 556.475C402.5 557.055 402.26 557.855 402.01 558.535L401.4 560.245C401.13 560.925 400.85 561.575 400.57 562.245C400.29 562.915 400.04 563.335 399.77 563.885C399.5 564.435 399.14 565.145 398.77 565.745C398.4 566.345 398.16 566.805 397.84 567.305C397.52 567.805 397.11 568.485 396.7 569.065C396.29 569.645 396 570.065 395.65 570.525C394.89 571.525 394.14 572.465 393.31 573.365C392.88 573.865 392.43 574.365 391.98 574.845C391.53 575.325 390.98 575.775 390.52 576.235C390.06 576.695 389.61 577.085 389.13 577.485C388.65 577.885 388.13 578.345 387.58 578.745C387.03 579.145 386.58 579.525 386.07 579.875C385.56 580.225 384.98 580.635 384.43 581.015C383.88 581.395 383.35 581.685 382.8 582.015C382.25 582.345 381.66 582.675 381.09 583.015C380.52 583.355 379.93 583.595 379.33 583.865C378.73 584.135 378.17 584.445 377.57 584.695C376.97 584.945 376.28 585.205 375.63 585.425C374.98 585.645 374.47 585.875 373.89 586.055C372.79 586.405 371.66 586.705 370.52 586.965C369.87 587.115 369.24 587.235 368.59 587.335C367.94 587.435 367.33 587.585 366.68 587.695H366.78L375.7 606.695L384.05 606.775C381.355 607.157 378.628 607.275 375.91 607.125L389.13 635.315C391.253 639.835 392.2 644.819 391.884 649.803C391.567 654.787 389.999 659.61 387.322 663.826C384.646 668.043 380.948 671.515 376.572 673.922C372.196 676.329 367.284 677.592 362.29 677.595H346.29C345.671 677.596 345.058 677.72 344.486 677.958C343.914 678.197 343.395 678.546 342.959 678.985C342.522 679.424 342.177 679.945 341.942 680.519C341.707 681.092 341.587 681.705 341.59 682.325V684.665C347.051 686.516 351.678 690.247 354.644 695.192C357.611 700.137 358.724 705.975 357.786 711.665C356.848 717.355 353.919 722.527 349.523 726.258C345.126 729.989 339.547 732.037 333.78 732.037C328.013 732.037 322.434 729.989 318.037 726.258C313.641 722.527 310.712 717.355 309.774 711.665C308.836 705.975 309.949 700.137 312.916 695.192C315.882 690.247 320.509 686.516 325.97 684.665V682.325C325.971 681.704 325.85 681.089 325.614 680.516C325.377 679.942 325.03 679.42 324.591 678.981C324.153 678.542 323.632 678.193 323.059 677.955C322.485 677.717 321.871 677.595 321.25 677.595H144.7C144.079 677.595 143.465 677.717 142.891 677.955C142.318 678.193 141.797 678.542 141.359 678.981C140.92 679.42 140.573 679.942 140.336 680.516C140.1 681.089 139.979 681.704 139.98 682.325V684.665C145.45 686.516 150.084 690.251 153.056 695.202C156.028 700.153 157.145 705.999 156.206 711.697C155.268 717.394 152.336 722.574 147.934 726.311C143.531 730.048 137.945 732.099 132.17 732.099C126.395 732.099 120.809 730.048 116.406 726.311C112.004 722.574 109.072 717.394 108.134 711.697C107.195 705.999 108.312 700.153 111.284 695.202C114.256 690.251 118.89 686.516 124.36 684.665V682.325C124.36 681.07 123.862 679.867 122.975 678.98C122.088 678.093 120.884 677.595 119.63 677.595H92.19C90.927 677.592 89.694 677.214 88.646 676.511C87.597 675.807 86.781 674.809 86.3 673.641C85.818 672.474 85.693 671.191 85.941 669.952C86.188 668.714 86.797 667.577 87.69 666.685C88.28 666.093 88.981 665.623 89.754 665.304C90.526 664.985 91.354 664.822 92.19 664.825H356.54C359.877 664.821 363.159 663.978 366.083 662.371C369.008 660.765 371.481 658.449 373.275 655.635C375.068 652.821 376.124 649.601 376.345 646.272C376.566 642.942 375.946 639.611 374.54 636.585L351.81 587.535L124 569.115C123.826 569.074 123.648 569.048 123.47 569.035C122.47 568.935 121.47 568.805 120.47 568.635C120.134 568.592 119.8 568.532 119.47 568.455C118.34 568.255 117.26 568.005 116.17 567.725L115.24 567.455C114.24 567.145 113.24 566.825 112.24 566.455L111.46 566.155C110.55 565.805 109.65 565.405 108.77 564.975C108.397 564.819 108.033 564.642 107.68 564.445C106.88 564.045 106.08 563.615 105.3 563.135C98.736 559.278 93.294 553.773 89.513 547.166C85.731 540.558 83.741 533.078 83.74 525.465V426.715C83.742 416.181 87.542 406.001 94.442 398.042C101.343 390.083 110.882 384.879 121.31 383.385L406.66 342.385L434.77 303.455C435.52 302.662 436.424 302.031 437.427 301.601C438.43 301.171 439.51 300.951 440.601 300.953C441.693 300.956 442.772 301.182 443.772 301.618C444.773 302.053 445.674 302.688 446.42 303.485Z" fill="white"/>
<path d="M771.17 640.153C752.72 601.873 714.74 533.543 662.58 492.273L657.5 400.583C661.349 400.393 665.158 399.721 668.84 398.583C673.02 397.903 675.84 396.843 676.84 395.283C677.608 393.985 678.146 392.564 678.43 391.083C679.267 389.257 679.665 387.26 679.59 385.253C679.59 384.253 679.51 383.063 679.49 381.853C679.86 371.773 678.88 357.283 677.7 340.083C676.49 315.283 675.14 291.083 675.11 290.863V290.813C675.11 290.463 675.26 268.733 676.27 244.743C677.57 258.353 683.21 266.873 690.6 272.103C698.6 278.693 709.09 280.483 718.09 280.483C724.67 280.469 731.221 279.605 737.58 277.913C748.29 274.573 757.1 269.243 763.64 261.643C769.64 255.863 774.64 248.493 776.01 239.433C777.257 232.104 776.861 224.59 774.85 217.433C773.083 209.109 768.362 201.706 761.56 196.593C759.961 195.241 758.197 194.099 756.31 193.193C753.14 191.353 749.87 189.573 746.77 187.533C742.586 184.607 738.942 180.976 736 176.803C734.063 173.236 732.882 169.307 732.53 165.263C732.845 158.507 732.751 151.738 732.25 144.993C732.25 143.583 732.1 142.173 731.95 140.793C731.57 135.963 731.22 132.623 731.22 132.623C727.116 122.056 720.106 112.865 711 106.113C710.44 105.663 709.87 105.233 709.31 104.803C701.317 98.9669 692.035 95.1459 682.25 93.6629C681.35 93.5329 680.44 93.4329 679.56 93.3629C676.673 92.8919 673.755 92.6319 670.83 92.5829C667.093 91.0179 663.883 88.4159 661.58 85.0829C659.558 81.4049 658.124 77.4339 657.33 73.3129C656.2 66.5729 656.1 58.4829 655.54 49.1529C655.627 39.7839 653.189 30.5639 648.48 22.4629C648.459 22.3999 648.425 22.3419 648.38 22.2929C646.371 18.9169 643.934 15.8149 641.13 13.0629C633.06 3.50287 621.82 -2.47711 607.84 1.01289C607.71 1.01289 607.58 1.09288 607.43 1.14288C606.85 1.14288 606.28 1.14288 605.7 1.24288C605.684 1.23788 605.666 1.23788 605.65 1.24288C600.179 1.69788 594.877 3.36489 590.13 6.12289C588.382 7.13589 586.732 8.30689 585.2 9.62289C575.95 17.6229 570.64 29.9929 569.2 42.2429C569.13 42.7429 569.1 43.2429 569.08 43.7429C567.46 45.6959 566.501 48.1109 566.34 50.6429C566.182 53.1049 566.741 55.5609 567.949 57.7119C569.158 59.8629 570.965 61.6179 573.15 62.7629V63.3929C573.305 67.7179 574.251 71.9789 575.94 75.9629C578.78 82.7029 583.86 90.3729 592.46 91.6029C592.77 91.6029 593.07 91.6529 593.34 91.7029L599.63 102.923L601.14 109.433L604.64 124.523L605.84 123.843C607.23 123.063 608.61 122.293 610.04 121.533L610.95 123.193C605.576 126.265 600.445 129.741 595.6 133.593C583.23 142.923 568.04 157.183 557.35 176.693C551.06 187.613 546.61 199.483 545.23 212.083C545.222 212.251 545.205 212.417 545.18 212.583C545 213.713 544.85 214.843 544.73 216.003V210.493C544.51 210.493 544.3 210.393 544.08 210.373V210.273C543.309 210.161 542.544 210.008 541.79 209.813L484.15 175.493C481.563 173.173 479.692 170.161 478.76 166.813C477.163 160.358 473.552 154.579 468.45 150.313C464.094 146.922 458.963 144.668 453.52 143.753C453.19 143.673 452.84 143.623 452.52 143.573C452.74 143.091 452.854 142.568 452.856 142.038C452.858 141.508 452.746 140.984 452.53 140.501C452.313 140.017 451.996 139.585 451.599 139.234C451.203 138.883 450.736 138.62 450.23 138.463L407.63 125.013C406.741 124.73 405.778 124.79 404.931 125.18C404.083 125.571 403.413 126.264 403.05 127.123L393.24 150.333C393.04 150.813 392.942 151.329 392.953 151.849C392.964 152.368 393.083 152.88 393.304 153.351C393.524 153.822 393.84 154.241 394.232 154.582C394.624 154.924 395.083 155.18 395.58 155.333L396.69 155.683V155.783L421.87 163.593L422.33 163.743C422.33 164.243 422.33 164.743 422.38 165.243C422.449 167.632 422.7 170.012 423.13 172.363C423.31 173.363 423.53 174.363 423.78 175.363C423.93 175.913 424.06 176.443 424.26 176.973L424.34 177.253C424.49 177.723 424.64 178.253 424.84 178.703C424.889 178.89 424.949 179.073 425.02 179.253C425.036 179.259 425.054 179.259 425.07 179.253C425.694 180.87 426.478 182.421 427.41 183.883C429.606 187.313 432.814 189.976 436.59 191.503C440.16 192.903 443.98 192.633 447.59 194.063C450.369 195.225 452.916 196.878 455.11 198.943L456.47 200.423C455.74 201.513 449.18 211.643 453.91 214.833L453.73 214.913L458.51 217.913L517.16 256.643C517.74 257.093 518.34 257.523 518.92 257.943L514.7 262.593C503.06 266.713 489.32 271.213 478.43 274.333C471.9 275.993 465.31 277.453 458.67 278.633C448.48 280.393 438.09 280.473 427.96 282.203C420.59 283.413 414.35 290.283 412.96 297.973C411.8 304.233 411.52 310.973 418.44 314.193C426.36 317.873 430.31 306.603 435.11 302.603C442.51 296.343 449.87 303.813 457.57 308.063C458.27 312.183 459.48 316.153 460.41 320.203C460.655 321.639 461.212 323.004 462.04 324.203C463.45 326.013 464.93 326.203 466.24 325.533L465.91 325.813C468.43 325.146 470.97 324.48 473.53 323.813C475.93 323.44 478.295 322.868 480.6 322.103C497.78 318.023 516.09 314.223 534.4 309.623H534.47C535.33 309.403 536.21 309.173 537.06 308.973C537.346 308.964 537.631 309.011 537.898 309.112C538.166 309.213 538.41 309.366 538.619 309.562C538.827 309.759 538.994 309.994 539.111 310.255C539.228 310.516 539.292 310.797 539.3 311.083C539.2 312.393 539.07 313.723 538.95 315.083C537.62 320.943 535.43 336.763 532.95 349.533C531.59 355.193 530.18 360.473 528.82 365.153C526.61 370.153 524.45 375.083 525.13 379.153C525.204 380.968 525.907 382.701 527.119 384.055C528.33 385.408 529.974 386.299 531.77 386.573L534.93 387.053C537.1 387.573 540.77 388.203 545.37 388.863C546 393.333 546.68 397.863 547.43 402.263L547.61 403.373C548.14 406.283 548.69 409.253 549.24 412.193V412.273V412.373L549.69 414.783L550.17 417.383L546.52 449.723L545.43 459.593L517.67 704.383L488.47 712.153L466.59 717.993C465.792 718.163 465.033 718.478 464.35 718.923C463.334 719.558 462.498 720.443 461.922 721.494C461.346 722.544 461.049 723.725 461.06 724.923C461.062 726.097 461.365 727.25 461.94 728.273C462.255 728.878 462.652 729.437 463.12 729.933C464.087 730.888 465.309 731.544 466.64 731.823C467.135 731.94 467.642 731.997 468.15 731.993H553.43L560.43 704.403L602.23 539.003L604.42 541.003C604.42 541.003 604.42 541.083 604.5 541.103V541.153L668.6 602.093L669.36 602.763L670.36 603.763L683.71 616.433L684.71 617.363L685.11 617.763C734.96 665.923 736.74 672.213 735.63 672.873H735L712 720.593C711.283 722.092 711.112 723.794 711.515 725.406C711.919 727.018 712.872 728.438 714.21 729.423L715.82 730.603C717.267 731.649 719.055 732.11 720.827 731.895C722.599 731.68 724.225 730.805 725.38 729.443L783.77 661.193C783.77 661.193 779.44 657.203 771.17 640.153ZM468 324.033C468.302 323.666 468.58 323.278 468.83 322.873C468.841 322.999 468.886 323.12 468.96 323.223L468 324.033ZM517.49 261.593C517.82 261.443 518.14 261.313 518.49 261.183L521.94 259.833L522.09 259.903C520.61 260.453 519.07 261.033 517.49 261.593ZM540.9 209.593C537.915 208.658 535.164 207.096 532.83 205.013L529.64 203.103L541.46 209.693C541.26 209.703 541.08 209.703 540.9 209.653V209.593Z" fill="white"/>
<path d="M525.16 260.504L523.42 259.854C523.296 259.788 523.175 259.714 523.06 259.634C513.97 253.754 506.87 245.454 500.8 236.634C494.4 227.324 472.44 217.744 465.34 208.924C460.79 203.344 456.03 196.924 449.06 194.144C445.47 192.734 441.63 193.004 438.06 191.584C434.281 190.066 431.074 187.4 428.89 183.964C427.943 182.499 427.148 180.941 426.52 179.314C426.443 179.128 426.38 178.938 426.33 178.744C426.095 178.179 425.905 177.597 425.76 177.004C425.57 176.464 425.43 175.944 425.29 175.394C425.016 174.407 424.799 173.405 424.64 172.394C424.267 170.133 424.03 167.852 423.93 165.564V165.454C423.85 163.134 423.88 160.854 423.99 158.624V158.564H423.88L413.67 154.974C412.261 154.508 411.004 153.67 410.033 152.549C409.061 151.428 408.41 150.064 408.15 148.604C408.011 147.79 408.038 146.956 408.23 146.154C408.463 145.093 408.925 144.096 409.583 143.233C410.241 142.369 411.079 141.66 412.04 141.154C412.927 140.683 413.902 140.401 414.904 140.326C415.905 140.25 416.912 140.382 417.86 140.714L438.41 148.174L442.63 149.694L442.74 149.754C442.74 149.754 442.74 143.494 448.74 143.624C454.29 143.764 474.4 145.394 480.36 167.384C481.29 170.727 483.161 173.733 485.75 176.044L534.33 205.134C537.633 208.127 541.777 210.03 546.2 210.584V216.754C546.194 216.759 546.188 216.766 546.185 216.774C546.181 216.782 546.18 216.79 546.18 216.799C546.18 216.807 546.181 216.815 546.185 216.823C546.188 216.831 546.194 216.838 546.2 216.844V221.334L550.06 248.384L552.78 267.294C549.231 267.583 545.66 267.455 542.14 266.914L539.83 266.044H539.77L525.16 260.504Z" fill="white"/>
<path d="M545.56 216.433V216.513C544.41 226.643 543.27 238.403 542.37 251.413C535.89 254.413 529.28 257.013 522.78 259.603C522.656 259.537 522.535 259.464 522.42 259.383C518.003 256.482 513.948 253.065 510.34 249.203L455.2 214.983C458.612 213.257 461.652 210.879 464.15 207.983L464.32 207.813C474.71 196.653 483.72 177.813 484.84 175.453L485.08 175.703L533.66 204.793C536.963 207.784 541.108 209.684 545.53 210.233L545.56 216.433Z" fill="#2E2E2E"/>
<path d="M447.75 159.033L446.64 162.033L445.58 164.943L445 166.593L444.92 166.843L444.81 167.143C444.549 167.893 444.001 168.509 443.287 168.856C442.573 169.202 441.751 169.252 441 168.993L423.42 163.593H423.34L398.08 155.833L404.64 140.323L407.53 133.493C407.899 132.634 408.574 131.943 409.424 131.555C410.275 131.166 411.24 131.109 412.13 131.393L446.94 142.393C445.812 142.136 444.665 141.972 443.51 141.903C442.69 141.854 441.869 141.988 441.106 142.294C440.344 142.6 439.659 143.071 439.1 143.673C438.571 144.274 438.19 144.991 437.987 145.765C437.784 146.539 437.764 147.35 437.93 148.133C438.451 150.143 439.485 151.983 440.93 153.473C441.07 153.633 441.21 153.773 441.37 153.933C442.663 155.367 444.159 156.603 445.81 157.603C445.81 157.603 445.86 157.603 445.92 157.683C446.498 158.175 447.11 158.626 447.75 159.033Z" fill="#B1B2FF"/>
<path d="M423.8 163.594C423.8 164.134 423.8 164.714 423.86 165.254C423.932 167.647 424.186 170.03 424.62 172.384C424.78 173.395 424.997 174.397 425.27 175.384C425.41 175.924 425.54 176.444 425.73 176.984C425.92 177.524 426.12 178.184 426.36 178.784C426.437 179.006 426.527 179.223 426.63 179.434" stroke="black" stroke-width="3.7" stroke-miterlimit="10"/>
<path d="M455.75 161.045C454.75 160.885 453.75 160.695 452.75 160.445C451.75 160.195 451.01 159.925 450.17 159.605C448.831 159.083 447.545 158.434 446.33 157.665C446.33 157.665 446.25 157.665 446.22 157.585C444.393 156.469 442.75 155.075 441.35 153.455C439.903 151.966 438.869 150.125 438.35 148.115C438.167 147.332 438.178 146.517 438.382 145.739C438.585 144.962 438.976 144.246 439.52 143.655C440.08 143.053 440.765 142.583 441.527 142.277C442.29 141.971 443.11 141.837 443.93 141.885C445.469 142.006 446.997 142.244 448.5 142.595C450.65 142.975 452.8 143.325 454.93 143.765C460.373 144.693 465.504 146.945 469.87 150.325C474.961 154.595 478.57 160.368 480.18 166.815C481.1 170.161 482.96 173.173 485.54 175.495L546.17 211.595" stroke="black" stroke-width="3.7" stroke-miterlimit="10"/>
<path d="M423.87 165.242C423.87 165.242 425.81 176.152 440.98 175.852C442.156 175.809 443.29 175.407 444.23 174.701C445.171 173.994 445.872 173.016 446.24 171.899C446.608 170.781 446.625 169.578 446.289 168.451C445.953 167.323 445.28 166.326 444.36 165.592L444.16 165.442" stroke="black" stroke-width="3.7" stroke-miterlimit="10"/>
<path d="M426.31 178.695C426.31 178.695 433.74 186.425 441.15 183.085C447.7 180.085 443.22 174.215 443.22 174.215" stroke="black" stroke-width="3.7" stroke-miterlimit="10"/>
<path d="M446.58 165.094L446.04 164.934" stroke="black" stroke-width="3.7" stroke-miterlimit="10"/>
<path d="M368.14 587.673C364.987 588.125 361.793 588.215 358.62 587.943L353.62 587.543L368.14 587.673Z" fill="#D7E8F0"/>
<path d="M424.34 361.645L405.69 548.645C404.712 558.417 400.476 567.576 393.664 574.649C386.852 581.723 377.858 586.3 368.13 587.645C364.977 588.096 361.783 588.187 358.61 587.915L353.61 587.515L125.44 569.085C118.828 568.569 112.423 566.54 106.72 563.155C103.962 557.357 102.537 551.015 102.55 544.595V540.245L312.18 557.245L317.18 557.655C320.353 557.917 323.546 557.826 326.7 557.385C336.426 556.035 345.417 551.457 352.228 544.384C359.04 537.311 363.277 528.155 364.26 518.385L379.26 368.235L424.34 361.645Z" fill="#B1B2FF"/>
<path d="M379.24 368.125L364.24 518.275C363.257 528.045 359.02 537.202 352.208 544.274C345.397 551.347 336.406 555.926 326.68 557.275C323.526 557.717 320.334 557.807 317.16 557.545L312.16 557.135L102.53 540.135V445.825C102.535 435.29 106.334 425.11 113.231 417.147C120.129 409.184 129.664 403.972 140.09 402.465L379.24 368.125Z" fill="#D7E8F0"/>
<path d="M385.54 606.783C382.384 607.234 379.187 607.325 376.01 607.053L371.01 606.653L385.54 606.783Z" fill="#D7E8F0"/>
<path d="M368.26 587.674L390.62 635.334C392.738 639.854 393.682 644.836 393.363 649.818C393.044 654.8 391.474 659.621 388.797 663.835C386.119 668.049 382.422 671.519 378.048 673.924C373.673 676.329 368.762 677.591 363.77 677.594H347.77C347.151 677.593 346.537 677.714 345.965 677.95C345.392 678.186 344.872 678.532 344.433 678.97C343.995 679.407 343.647 679.927 343.41 680.499C343.172 681.071 343.05 681.685 343.05 682.304V705.544C343.05 707.615 342.227 709.602 340.763 711.067C339.298 712.531 337.311 713.354 335.24 713.354C333.169 713.354 331.182 712.531 329.718 711.067C328.253 709.602 327.43 707.615 327.43 705.544V682.294C327.431 681.674 327.31 681.06 327.073 680.488C326.836 679.915 326.489 679.395 326.05 678.957C325.611 678.519 325.09 678.173 324.517 677.937C323.944 677.701 323.33 677.581 322.71 677.584H146.17C145.551 677.583 144.938 677.704 144.366 677.94C143.794 678.176 143.274 678.523 142.837 678.961C142.399 679.398 142.052 679.918 141.816 680.49C141.58 681.062 141.459 681.675 141.46 682.294V705.534C141.388 707.558 140.533 709.475 139.075 710.882C137.617 712.288 135.671 713.074 133.645 713.074C131.619 713.074 129.673 712.288 128.215 710.882C126.758 709.475 125.902 707.558 125.83 705.534V682.294C125.831 681.675 125.71 681.062 125.474 680.49C125.238 679.918 124.891 679.398 124.453 678.961C124.016 678.523 123.496 678.176 122.924 677.94C122.352 677.704 121.739 677.583 121.12 677.584H93.6799C92.0279 677.519 90.465 676.816 89.319 675.624C88.173 674.432 87.533 672.843 87.533 671.189C87.533 669.535 88.173 667.946 89.319 666.754C90.465 665.562 92.0279 664.859 93.6799 664.794H358C361.332 664.79 364.61 663.947 367.531 662.344C370.453 660.741 372.924 658.428 374.716 655.619C376.509 652.81 377.567 649.596 377.791 646.271C378.015 642.946 377.399 639.618 376 636.594L353.27 587.594" fill="#2E2E2E"/>
<path d="M358.61 587.945L125.44 569.095C114.473 568.211 104.242 563.229 96.7819 555.143C89.3219 547.056 85.1789 536.457 85.1799 525.455V426.715C85.1829 416.182 88.9819 406.003 95.8799 398.043C102.779 390.083 112.314 384.876 122.74 383.375L408.08 342.375L436.21 303.425C436.963 302.629 437.872 301.996 438.88 301.565C439.888 301.134 440.974 300.916 442.07 300.922C443.166 300.929 444.249 301.161 445.252 301.603C446.255 302.046 447.156 302.69 447.9 303.495C449.18 304.898 449.919 306.711 449.985 308.609C450.051 310.507 449.439 312.367 448.26 313.855L425.12 353.645L405.71 548.645C404.571 560.059 398.999 570.571 390.191 577.92C381.383 585.269 370.044 588.869 358.61 587.945Z" stroke="black" stroke-width="3.7" stroke-miterlimit="10"/>
<path d="M359.63 707.663C359.639 712.14 358.413 716.534 356.086 720.359C353.76 724.185 350.423 727.295 346.443 729.346C342.463 731.398 337.995 732.312 333.529 731.988C329.063 731.664 324.773 730.115 321.131 727.51C317.489 724.905 314.636 721.347 312.886 717.225C311.136 713.104 310.557 708.579 311.212 704.15C311.867 699.721 313.732 695.558 316.6 692.12C319.468 688.682 323.23 686.101 327.47 684.663V705.543C327.47 707.614 328.293 709.6 329.757 711.065C331.222 712.53 333.209 713.353 335.28 713.353C337.351 713.353 339.338 712.53 340.802 711.065C342.267 709.6 343.09 707.614 343.09 705.543V684.653C347.911 686.271 352.101 689.363 355.069 693.492C358.037 697.621 359.632 702.578 359.63 707.663Z" stroke="black" stroke-width="3.7" stroke-miterlimit="10"/>
<path d="M158 707.663C158.008 712.139 156.782 716.531 154.455 720.355C152.128 724.179 148.792 727.287 144.812 729.337C140.833 731.387 136.365 732.299 131.901 731.974C127.436 731.648 123.148 730.098 119.508 727.492C115.868 724.886 113.018 721.327 111.27 717.206C109.523 713.085 108.946 708.561 109.604 704.134C110.262 699.706 112.128 695.545 114.998 692.11C117.868 688.675 121.63 686.098 125.87 684.663V705.543C125.873 707.615 126.698 709.601 128.164 711.066C129.63 712.53 131.618 713.353 133.69 713.353C135.761 713.353 137.748 712.53 139.213 711.065C140.677 709.6 141.5 707.614 141.5 705.543V684.653C146.316 686.274 150.5 689.367 153.461 693.497C156.422 697.626 158.01 702.581 158 707.663Z" stroke="black" stroke-width="3.7" stroke-miterlimit="10"/>
<path d="M368.26 587.674L390.62 635.334C392.738 639.854 393.682 644.836 393.363 649.818C393.044 654.8 391.474 659.621 388.797 663.835C386.119 668.049 382.422 671.519 378.048 673.924C373.673 676.329 368.762 677.591 363.77 677.594H347.77C347.151 677.593 346.537 677.714 345.965 677.95C345.392 678.186 344.872 678.532 344.433 678.97C343.995 679.407 343.647 679.927 343.41 680.499C343.172 681.071 343.05 681.685 343.05 682.304V705.544C343.05 707.615 342.227 709.602 340.763 711.067C339.298 712.531 337.311 713.354 335.24 713.354C333.169 713.354 331.182 712.531 329.718 711.067C328.253 709.602 327.43 707.615 327.43 705.544V682.294C327.431 681.674 327.31 681.06 327.073 680.488C326.836 679.915 326.489 679.395 326.05 678.957C325.611 678.519 325.09 678.173 324.517 677.937C323.944 677.701 323.33 677.581 322.71 677.584H146.17C145.551 677.583 144.938 677.704 144.366 677.94C143.794 678.176 143.274 678.523 142.837 678.961C142.399 679.398 142.052 679.918 141.816 680.49C141.58 681.062 141.459 681.675 141.46 682.294V705.534C141.388 707.558 140.533 709.475 139.075 710.882C137.617 712.288 135.671 713.074 133.645 713.074C131.619 713.074 129.673 712.288 128.215 710.882C126.758 709.475 125.902 707.558 125.83 705.534V682.294C125.831 681.675 125.71 681.062 125.474 680.49C125.238 679.918 124.891 679.398 124.453 678.961C124.016 678.523 123.496 678.176 122.924 677.94C122.352 677.704 121.739 677.583 121.12 677.584H93.6799C92.0279 677.519 90.465 676.816 89.319 675.624C88.173 674.432 87.533 672.843 87.533 671.189C87.533 669.535 88.173 667.946 89.319 666.754C90.465 665.562 92.0279 664.859 93.6799 664.794H358C361.332 664.79 364.61 663.947 367.531 662.344C370.453 660.741 372.924 658.428 374.716 655.619C376.509 652.81 377.567 649.596 377.791 646.271C378.015 642.946 377.399 639.618 376 636.594L353.27 587.594" stroke="black" stroke-width="3.7" stroke-miterlimit="10"/>
<path d="M448.32 158.756L446 164.936L445.37 166.596L445.18 167.146C444.919 167.881 444.381 168.486 443.68 168.832C442.98 169.177 442.173 169.236 441.43 168.996L423.8 163.596L397 155.356C396.504 155.202 396.045 154.946 395.653 154.605C395.261 154.264 394.944 153.844 394.724 153.373C394.504 152.903 394.384 152.391 394.373 151.871C394.362 151.352 394.46 150.835 394.66 150.356L404.46 127.136C404.83 126.278 405.506 125.588 406.356 125.2C407.206 124.812 408.169 124.754 409.06 125.036L451.65 138.486C452.159 138.64 452.629 138.901 453.029 139.25C453.43 139.599 453.752 140.03 453.974 140.512C454.196 140.995 454.313 141.52 454.317 142.051C454.322 142.583 454.214 143.109 454 143.596" stroke="black" stroke-width="3.7" stroke-miterlimit="10"/>
<path d="M439.5 146.204L401.59 133.934" stroke="black" stroke-width="3.7" stroke-miterlimit="10"/>
<path d="M485.58 175.492C485.58 175.492 471 207.202 456.87 214.732C456.767 214.784 456.679 214.861 456.616 214.958C456.553 215.054 456.517 215.165 456.51 215.28C456.504 215.395 456.529 215.509 456.581 215.612C456.634 215.714 456.713 215.801 456.81 215.862L523.06 259.592" stroke="black" stroke-width="3.7" stroke-miterlimit="10"/>
<path d="M458 200.395C458 200.395 449.82 212.315 455.86 215.235" stroke="black" stroke-width="3.7" stroke-miterlimit="10"/>
<path d="M462.53 278.195C462.53 278.195 459.18 278.345 465.9 286.805C472.62 295.265 474.9 311.365 470.33 322.875C470.33 322.875 470.13 325.875 482.09 322.135C494.05 318.395 536 309.645 536 309.645C536 309.645 542.55 306.195 540.52 314.935C538.49 323.675 534.52 355.825 530.37 365.095C526.22 374.365 522.18 383.555 536.46 387.035C550.74 390.515 628.64 397.835 628.64 397.835C628.64 397.835 681.64 409.585 681.08 385.245C680.52 360.905 676.63 290.835 676.63 290.835C676.63 290.835 676.95 236.745 680.52 204.765C680.52 204.765 689.84 123.515 662.13 116.005C634.42 108.495 625.01 116.485 617.98 120.275C610.95 124.065 548.98 156.455 545.6 223.275C545.6 223.275 545.37 249.095 540.14 252.945C534.91 256.795 473.71 277.965 462.53 278.195Z" fill="#2E2E2E"/>
<path d="M561.87 704.383L554.87 731.973H469.64C467.769 731.96 465.977 731.222 464.64 729.913C463.746 729.015 463.108 727.894 462.794 726.667C462.48 725.439 462.5 724.149 462.854 722.932C463.207 721.715 463.88 720.615 464.803 719.747C465.725 718.878 466.864 718.272 468.1 717.993L519.18 704.383C519.18 704.383 548.75 714.773 561.87 704.383Z" fill="#2E2E2E"/>
<path d="M660.91 399.363C660.26 399.363 659.58 399.423 658.91 399.423C656.243 416.643 653.277 433.806 650.01 450.913C611.83 442.363 559.08 457.523 559.08 457.523L560.19 463.523C551.49 463.993 548.82 460.783 548.82 460.783L546.9 459.593L551.69 417.323L550.77 412.323V412.163C550.2 409.223 549.66 406.253 549.14 403.313L548.95 402.233C548.19 397.683 547.48 393.113 546.85 388.563L547.48 388.653C547.7 388.653 547.91 388.733 548.16 388.753L548.7 388.843C549.17 388.893 549.63 388.973 550.09 389.033C551.09 389.163 552.38 389.353 553.82 389.573C554.39 389.573 554.99 389.713 555.62 389.823C577.3 392.833 633.78 400.183 660.91 399.363Z" fill="#B1B2FF"/>
<path d="M603.81 538.464L603.68 538.985L561.87 704.384L554.87 731.974H469.64C467.769 731.961 465.977 731.223 464.64 729.914C463.746 729.016 463.109 727.894 462.795 726.666C462.481 725.437 462.502 724.148 462.855 722.93C463.208 721.713 463.881 720.612 464.803 719.742C465.726 718.872 466.864 718.266 468.1 717.985L519.18 704.384L546.9 459.594L551.69 417.324" stroke="black" stroke-width="3.7" stroke-miterlimit="10"/>
<path d="M472.52 310.365C469.52 310.505 467.84 310.535 467.84 310.535C464.84 310.745 461.93 309.605 459.05 308.055C451.35 303.805 443.97 296.355 436.57 302.615C431.78 306.615 427.83 317.875 419.91 314.205C413 310.995 413.27 304.205 414.41 297.985C415.83 290.285 422.06 283.425 429.41 282.195C439.53 280.485 449.93 280.405 460.11 278.635C480.615 274.885 500.683 269.048 520 261.215C541.45 252.665 564.85 243.855 580.69 226.295C599.5 205.505 611.45 178.295 617.98 151.235" stroke="black" stroke-width="3.7" stroke-miterlimit="10"/>
<path d="M578.43 39.4318C578.43 39.4318 580.3 8.3018 609.36 1.0118C638.42 -6.2782 655.76 27.4818 657.07 49.1518C658.38 70.8218 657.07 85.7718 672.34 92.5918C672.34 92.5918 716.47 92.0518 732.73 132.592C732.73 132.592 734.93 152.462 734.03 165.252C733.13 178.042 749.09 189.252 757.78 193.192C766.47 197.132 781.59 213.192 777.48 239.422C773.37 265.652 739.06 277.882 739.06 277.882C739.06 277.882 709.74 286.562 692.06 272.072C673.29 256.702 678.6 228.592 678.6 228.592C678.6 228.592 688.73 137.172 670.29 122.152C660.14 113.882 655.53 114.632 648.36 110.272C640.81 105.682 638.11 104.272 635.58 101.042C630.66 94.7118 621.94 85.1518 628.25 62.6018C634.56 40.0518 628.25 51.4218 622.25 48.2418C622.25 48.2418 614.89 36.8818 603.78 44.9118C592.67 52.9418 595.38 33.3518 595.38 33.3518L590.5 39.9118C590.5 39.9118 582.87 41.4418 578.43 39.4318Z" fill="#B1B2FF"/>
<path d="M571.59 50.195C571.32 35.665 576.74 19.345 588.03 9.665C589.563 8.345 591.209 7.164 592.95 6.135C605.15 -1.075 622.1 -0.425004 634.24 6.585C640.696 10.42 646.082 15.819 649.9 22.285L650 22.465C654.704 30.568 657.146 39.786 657.07 49.155C657.13 61.335 657.2 77.865 665.02 87.975C669.96 94.375 676.53 92.575 683.76 93.665C693.55 95.136 702.836 98.962 710.82 104.815C721.6 112.745 730.58 124.575 733.06 137.935C735.45 150.795 730.78 165.295 737.71 177.185C742.79 185.875 752.45 189.845 760.63 194.915C777.05 205.215 780.43 225.175 775.23 242.735C769.81 261.045 757.07 272.295 739.06 277.905C739.06 277.905 678.2 292.905 677.45 239.565" stroke="black" stroke-width="3.7" stroke-miterlimit="10"/>
<path d="M594.53 32.4336C593.9 36.7136 591.3 40.6636 586.67 41.8436C581.45 43.1736 578.67 48.2536 577.21 53.3636C575.121 60.8606 575.661 68.8456 578.74 75.9936C581.59 82.7136 586.68 90.3936 595.28 91.6236C611.02 93.8636 618.85 87.2336 618.85 87.2336" stroke="black" stroke-width="3.7" stroke-miterlimit="10"/>
<path d="M607.64 55.3028C609.137 55.3028 610.35 54.0898 610.35 52.5928C610.35 51.0958 609.137 49.8828 607.64 49.8828C606.143 49.8828 604.93 51.0958 604.93 52.5928C604.93 54.0898 606.143 55.3028 607.64 55.3028Z" fill="black"/>
<path d="M583.87 53.526C585.367 53.526 586.58 52.3119 586.58 50.8159C586.58 49.3189 585.367 48.106 583.87 48.106C582.373 48.106 581.16 49.3189 581.16 50.8159C581.16 52.3119 582.373 53.526 583.87 53.526Z" fill="black"/>
<path d="M594.53 32.4336C593.934 35.0056 594.027 37.6886 594.8 40.2136C594.919 40.6226 595.073 41.0206 595.26 41.4036C597.14 45.8136 601.51 49.3336 609.26 48.8936C626.09 47.9636 632.09 46.8936 630.72 54.6236C630.153 57.3586 629.336 60.0366 628.28 62.6236C626.43 67.5336 625.14 75.9636 627.04 85.1436C629.23 95.8736 634.43 106.834 651.96 112.934" stroke="black" stroke-width="3.7" stroke-miterlimit="10"/>
<path d="M596 53.2539C596 53.2539 593.16 63.6339 593.45 65.1639C593.74 66.6939 597.37 65.5039 597.37 65.5039" stroke="black" stroke-width="3.7" stroke-miterlimit="10"/>
<path d="M598 75.0158C603.43 77.9458 609.73 76.0958 612.19 71.1958" stroke="black" stroke-width="3.7" stroke-miterlimit="10"/>
<path d="M620.947 63.3679C625.617 58.4199 625.295 50.53 620.227 45.746C615.159 40.961 607.264 41.0939 602.593 46.0409C597.922 50.9889 598.244 58.879 603.313 63.663C608.381 68.448 616.276 68.3149 620.947 63.3679Z" stroke="black" stroke-width="3.7" stroke-miterlimit="10"/>
<path d="M589.418 60.4729C594.089 55.5249 593.767 47.6359 588.698 42.8509C583.63 38.0669 575.735 38.1989 571.064 43.1469C566.394 48.0949 566.716 55.9839 571.784 60.7689C576.852 65.5529 584.747 65.4209 589.418 60.4729Z" stroke="black" stroke-width="3.7" stroke-miterlimit="10"/>
<path d="M580 43.1748C580.27 43.1598 580.54 43.1598 580.81 43.1748C583.118 43.3878 585.252 44.4918 586.761 46.2528C588.269 48.0128 589.033 50.2908 588.89 52.6048C588.762 54.7288 587.823 56.7218 586.267 58.1738C584.712 59.6248 582.658 60.4239 580.53 60.4049C580.26 60.4049 579.99 60.4049 579.72 60.4049C577.414 60.1859 575.283 59.0798 573.776 57.3208C572.268 55.5618 571.503 53.2869 571.64 50.9749C571.768 48.8509 572.707 46.8569 574.263 45.4059C575.819 43.9539 577.872 43.1548 580 43.1748ZM580 41.3249C577.406 41.3109 574.904 42.2898 573.006 44.0588C571.109 45.8278 569.958 48.2559 569.79 50.8449C569.619 53.6399 570.542 56.3918 572.364 58.5188C574.185 60.6468 576.762 61.9819 579.55 62.2449C579.88 62.2449 580.21 62.2948 580.55 62.2948C583.146 62.3048 585.647 61.3248 587.545 59.5538C589.442 57.7828 590.592 55.3548 590.76 52.7648C590.928 49.9698 590.004 47.2188 588.184 45.0918C586.363 42.9658 583.787 41.6288 581 41.3648C580.67 41.3648 580.34 41.3648 580 41.3648V41.3249Z" fill="white"/>
<path d="M599.31 53.5558L592.69 52.9458" stroke="black" stroke-width="3.7" stroke-miterlimit="10"/>
<path d="M611.49 45.8039H612.32C614.698 46.0279 616.896 47.1659 618.45 48.9799C620.004 50.7929 620.793 53.1399 620.65 55.5239C620.507 57.7059 619.534 59.7509 617.931 61.2379C616.328 62.7259 614.217 63.5439 612.03 63.5239C611.75 63.5239 611.48 63.5239 611.2 63.5239C608.822 63.2999 606.624 62.1609 605.07 60.3469C603.516 58.5339 602.727 56.1879 602.87 53.8039C603.011 51.6209 603.983 49.5739 605.586 48.0859C607.19 46.5979 609.302 45.7809 611.49 45.8039ZM611.49 43.9539C608.826 43.9349 606.257 44.9359 604.306 46.7499C602.356 48.5639 601.173 51.0559 601 53.7139C600.826 56.5769 601.772 59.3959 603.638 61.5759C605.504 63.7549 608.144 65.1239 611 65.3939C611.34 65.3939 611.67 65.4439 612 65.4439C614.66 65.4539 617.224 64.4489 619.168 62.6329C621.112 60.8179 622.289 58.3279 622.46 55.6739C622.649 52.8059 621.708 49.9789 619.84 47.7959C617.971 45.6129 615.322 44.2489 612.46 43.9939C612.12 43.9939 611.79 43.9939 611.46 43.9939L611.49 43.9539Z" fill="white"/>
<path d="M588.117 59.2448C592.124 54.9998 591.846 48.2298 587.497 44.1248C583.148 40.0188 576.373 40.1318 572.366 44.3768C568.359 48.6218 568.636 55.3908 572.985 59.4968C577.335 63.6028 584.109 63.4898 588.117 59.2448Z" fill="#B1B2FF"/>
<path d="M619.691 62.1678C623.717 57.9028 623.439 51.1018 619.07 46.9768C614.7 42.8518 607.894 42.9658 603.868 47.2308C599.842 51.4958 600.12 58.2968 604.489 62.4218C608.859 66.5468 615.665 66.4328 619.691 62.1678Z" fill="#B1B2FF"/>
<path d="M607.64 125.383L603.96 109.463L599.96 92.293" stroke="black" stroke-width="3.7" stroke-miterlimit="10"/>
<path d="M785.27 661.235L726.89 729.485C725.734 730.845 724.107 731.719 722.335 731.932C720.563 732.145 718.776 731.682 717.33 730.635L715.73 729.465C714.388 728.486 713.43 727.069 713.023 725.458C712.615 723.847 712.784 722.145 713.5 720.645L736.44 672.905C736.44 672.905 772.94 673.955 772.64 640.125C780.91 657.215 785.27 661.235 785.27 661.235Z" fill="#2E2E2E"/>
<path d="M686.61 617.802L686.2 617.392L670.85 602.802L670.11 602.122L605.99 541.122V541.062L605.9 540.982L603.73 538.982L584.24 520.452C573.566 510.289 566.383 497.008 563.72 482.512L560.19 463.592L559.07 457.592L551.69 417.422L550.77 412.422V412.262C550.2 409.322 549.66 406.352 549.14 403.412L548.95 402.332" stroke="black" stroke-width="3.7" stroke-miterlimit="10"/>
<path d="M546.82 388.594C547.45 393.144 548.16 397.714 548.92 402.264L549.11 403.344C549.63 406.284 550.17 409.254 550.74 412.194V412.354" stroke="black" stroke-width="3.7" stroke-linejoin="round"/>
<path d="M605.84 541.024L605.92 541.104L605.98 541.164" stroke="black" stroke-width="3.7" stroke-linejoin="round"/>
<path d="M670.1 602.123L670.84 602.803C676.387 608.003 681.503 612.867 686.19 617.393L686.59 617.803C748.08 677.213 736.43 672.903 736.43 672.903L713.48 720.643C712.767 722.144 712.601 723.847 713.01 725.457C713.419 727.068 714.378 728.485 715.72 729.463L717.32 730.633C718.766 731.68 720.553 732.143 722.325 731.93C724.097 731.717 725.724 730.843 726.88 729.483L785.25 661.233C785.25 661.233 780.9 657.233 772.63 640.123C752.76 598.943 710.33 522.953 651.92 483.353C649.746 481.894 648.053 479.824 647.054 477.404C646.056 474.983 645.797 472.321 646.31 469.753C647.43 464.333 648.49 458.913 649.53 453.473C649.69 452.633 649.85 451.783 649.99 450.943C653.25 433.823 656.217 416.66 658.89 399.453" stroke="black" stroke-width="3.7" stroke-linejoin="round"/>
<path d="M543 251.664C543.9 238.664 545 226.894 546.19 216.664C546.35 215.114 546.54 213.584 546.7 212.084C549.14 189.794 561.23 169.674 576.1 153.364C590.8 137.244 609.51 121.574 630.74 115.224C637.579 113.069 644.778 112.291 651.92 112.934C656.822 113.524 661.507 115.296 665.571 118.099C669.635 120.902 672.957 124.652 675.25 129.024C678.096 134.614 679.912 140.67 680.61 146.904C680.61 146.984 680.61 147.064 680.61 147.154C681.86 157.154 681.15 167.644 681.26 177.574C681.45 198.294 679.68 218.974 677.39 239.574" stroke="black" stroke-width="3.7" stroke-linejoin="round"/>
<path d="M541.22 303.483V303.453" stroke="black" stroke-width="3.7" stroke-linejoin="round"/>
<path d="M460.14 278.594C469.61 289.674 475.51 305.844 471.45 320.304C470.45 323.734 466.83 328.384 463.54 324.154C462.708 322.957 462.151 321.591 461.91 320.154C460.98 316.084 459.76 312.084 459.05 307.954" stroke="black" stroke-width="3.7" stroke-miterlimit="10"/>
<path d="M467.41 325.794C544.76 305.354 654.29 298.434 677.88 190.594C680.968 176.235 681.891 161.495 680.62 146.864" stroke="black" stroke-width="3.7" stroke-miterlimit="10"/>
<path d="M541 308.355C539.47 334.155 531.39 362.355 526.93 376.355C526.581 377.441 526.472 378.589 526.61 379.721C526.749 380.853 527.131 381.941 527.731 382.911C528.331 383.881 529.134 384.709 530.085 385.338C531.036 385.967 532.113 386.382 533.24 386.555C536.89 387.125 541.51 387.805 546.82 388.555L547.45 388.645C547.67 388.645 547.88 388.725 548.13 388.745L548.67 388.835C549.14 388.885 549.6 388.965 550.06 389.025C551.26 389.215 552.51 389.375 553.79 389.565C554.36 389.565 554.96 389.705 555.59 389.815C586.59 394.215 632.77 399.965 658.9 399.395C659.58 399.395 660.26 399.395 660.9 399.335L662.9 399.255L664.84 399.145C671.98 398.625 676.84 397.405 678.23 395.255C687.23 381.645 670.53 303.425 678.53 228.555" stroke="black" stroke-width="3.7" stroke-miterlimit="10"/>
<path d="M749.03 731.985H16.8" stroke="black" stroke-width="3.7" stroke-linejoin="round"/>
<path d="M50.73 502.696C50.73 502.696 -48.42 618.986 50.73 730.776" stroke="#AAC4FF" stroke-width="3.7" stroke-miterlimit="10"/>
</g>
<defs>
<clipPath id="clip0_414_1785">
<rect width="900" height="732.099" fill="white"/>
</clipPath>
</defs>
</svg>
