<svg width="1000" height="1000" viewBox="0 0 1000 1000" fill="none" xmlns="http://www.w3.org/2000/svg">
<g clip-path="url(#clip0_415_1904)">
<mask id="mask0_415_1904" style="mask-type:luminance" maskUnits="userSpaceOnUse" x="0" y="0" width="1000" height="1000">
<path d="M1000 0H0V1000H1000V0Z" fill="white"/>
</mask>
<g mask="url(#mask0_415_1904)">
<path d="M656.4 188.441V-358.379H906.9V260.121" stroke="#CCDDE2" stroke-width="4.82" stroke-miterlimit="10"/>
<path d="M681.3 8.0013V40.0014H713.3V-18.7188H681.3V8.0013ZM686.56 -13.4788H708V8.0013H686.56V-13.4788ZM686.56 13.2512H708V34.7514H686.56V13.2512Z" fill="#D7E8F0"/>
<path d="M737.72 8.0013V40.0014H769.72V-18.7188H737.72V8.0013ZM743 -13.4588H764.48V8.0013H743V-13.4588ZM743 13.2712H764.48V34.7514H743V13.2712Z" fill="#D7E8F0"/>
<path d="M792.6 8.0013V40.0014H824.6V-18.7188H792.6V8.0013ZM797.86 -13.4788H819.34V8.0013H797.86V-13.4788ZM797.86 13.2512H819.34V34.7514H797.86V13.2512Z" fill="#D7E8F0"/>
<path d="M844.26 8.0013V40.0014H876.26V-18.7188H844.26V8.0013ZM849.51 -13.4788H871V8.0013H849.51V-13.4788ZM849.51 13.2512H871V34.7514H849.51V13.2512Z" fill="#D7E8F0"/>
<path d="M645.35 681.129C636.9 689.649 628.53 699.129 619.61 707.739C617.157 710.133 614.647 712.446 612.08 714.679C609.23 717.159 606.29 719.519 603.28 721.679C603.061 721.049 602.794 720.438 602.48 719.849C597.43 709.849 583.73 703.519 582.03 692.179C580.48 681.589 590.03 671.859 588.47 661.479C586.71 649.739 572.27 642.769 569.6 631.299C567.9 624.179 569.42 615.969 568.8 608.629C568.091 600.422 566.703 592.287 564.65 584.309C565.65 584.239 566.65 584.209 567.65 584.179C587.95 583.839 607.93 595.239 614.5 611.259C619.79 624.259 617.1 639.169 624.13 651.319C624.553 652.105 625.031 652.86 625.56 653.579C626.492 654.854 627.493 656.076 628.56 657.239L630.79 659.559C631.16 659.929 631.57 660.269 631.94 660.669C632.31 661.069 632.71 661.419 633.08 661.819C636.58 665.169 640.15 668.539 642.47 672.539C642.68 672.887 642.867 673.247 643.03 673.619C643.241 673.99 643.428 674.375 643.59 674.769C643.8 675.199 643.96 675.609 644.11 676.009C644.26 676.409 644.45 677.009 644.61 677.429C644.83 678.179 645.04 678.889 645.2 679.629C645.2 679.819 645.2 679.979 645.26 680.129C645.32 680.279 645.26 680.249 645.26 680.319C645.274 680.378 645.274 680.44 645.26 680.499C645.26 680.629 645.26 680.719 645.32 680.809V680.869C645.305 680.957 645.316 681.047 645.35 681.129Z" fill="white"/>
<path d="M645.48 681.75H645.51L645.48 681.78V681.75Z" fill="white"/>
<path d="M645.54 681.692C645.79 681.472 646 681.322 646.25 681.102C646.04 681.292 645.79 681.502 645.57 681.722C645.57 681.722 645.57 681.722 645.51 681.722L645.54 681.692Z" fill="white"/>
<path d="M716.61 632.46C716.395 635.947 716.395 639.443 716.61 642.93C710.51 644.42 704.5 646.06 698.61 648.04C694.95 649.25 691.36 650.58 687.77 652.1C677.81 656.14 668.431 661.487 659.88 668C661.743 664.823 663.055 661.354 663.76 657.74C663.76 657.59 663.82 657.43 663.85 657.25C665.4 649.76 665.52 641.89 669.05 634.73C675.62 621.53 694.83 611.96 714.94 611.34H715.31C717.14 611.34 719 611.34 720.86 611.43C718.777 618.289 717.354 625.331 716.61 632.46Z" fill="white"/>
<path d="M707.47 622.82L698.55 648C694.89 649.21 691.3 650.54 687.71 652.06C693.44 640.92 700 630.85 707.47 622.82Z" fill="white"/>
<path d="M645.58 681.789C645.58 681.589 645.549 681.39 645.49 681.199C645.55 681.569 645.58 681.789 645.58 681.789Z" fill="white"/>
<path d="M577.75 597.512C597.75 623.442 611.03 667.512 619.61 707.742C617.157 710.135 614.647 712.448 612.08 714.682L577.75 597.512Z" fill="white"/>
<path d="M648.37 641.23C644.37 653.44 644.22 665.771 644.69 673.581C644.811 676.104 645.078 678.618 645.49 681.11L648.37 641.23Z" fill="white"/>
<path d="M645.35 681.129C636.9 689.649 628.53 699.129 619.61 707.739C617.157 710.133 614.647 712.446 612.08 714.679C609.23 717.159 606.29 719.519 603.28 721.679C603.061 721.049 602.794 720.438 602.48 719.849C597.43 709.849 583.73 703.519 582.03 692.179C580.48 681.589 590.03 671.859 588.47 661.479C586.71 649.739 572.27 642.769 569.6 631.299C567.9 624.179 569.42 615.969 568.8 608.629C568.091 600.422 566.703 592.287 564.65 584.309C565.65 584.239 566.65 584.209 567.65 584.179C587.95 583.839 607.93 595.239 614.5 611.259C619.79 624.259 617.1 639.169 624.13 651.319C624.553 652.105 625.031 652.86 625.56 653.579C626.492 654.854 627.493 656.076 628.56 657.239L630.79 659.559C631.16 659.929 631.57 660.269 631.94 660.669C632.31 661.069 632.71 661.419 633.08 661.819C636.58 665.169 640.15 668.539 642.47 672.539C642.68 672.887 642.867 673.247 643.03 673.619C643.241 673.99 643.428 674.375 643.59 674.769C643.8 675.199 643.96 675.609 644.11 676.009C644.26 676.409 644.45 677.009 644.61 677.429C644.83 678.179 645.04 678.889 645.2 679.629C645.2 679.819 645.2 679.979 645.26 680.129C645.32 680.279 645.26 680.249 645.26 680.319C645.274 680.378 645.274 680.44 645.26 680.499C645.26 680.629 645.26 680.719 645.32 680.809V680.869C645.305 680.957 645.316 681.047 645.35 681.129Z" stroke="#CCDDE2" stroke-width="4.65" stroke-miterlimit="10"/>
<path d="M663.76 657.77C663.052 661.374 661.74 664.832 659.88 668" stroke="#CCDDE2" stroke-width="4.65" stroke-miterlimit="10"/>
<path d="M716.58 642.928C716.365 639.442 716.365 635.945 716.58 632.458C717.326 625.339 718.749 618.307 720.83 611.458C718.97 611.338 717.11 611.338 715.28 611.368H714.91C694.8 611.988 675.59 621.558 669.02 634.758C665.49 641.918 665.37 649.758 663.82 657.278" stroke="#CCDDE2" stroke-width="4.65" stroke-miterlimit="10"/>
<path d="M663.77 657.781C663.77 657.621 663.83 657.471 663.86 657.281" stroke="#CCDDE2" stroke-width="4.65" stroke-miterlimit="10"/>
<path d="M663.85 657.238C663.85 657.418 663.79 657.578 663.76 657.728C663.056 661.346 661.744 664.819 659.88 667.998" stroke="#CCDDE2" stroke-width="4.65" stroke-miterlimit="10"/>
<path d="M663.77 657.781C663.77 657.621 663.83 657.471 663.86 657.281" stroke="#CCDDE2" stroke-width="4.65" stroke-miterlimit="10"/>
<path d="M645.48 681.602V681.752" stroke="#CCDDE2" stroke-width="4.65" stroke-miterlimit="10"/>
<path d="M707.47 622.82C700 630.82 693.47 640.92 687.71 652.1" stroke="#CCDDE2" stroke-width="4.65" stroke-miterlimit="10"/>
<path d="M645.58 681.789C645.58 681.589 645.549 681.39 645.49 681.199C645.55 681.569 645.58 681.789 645.58 681.789Z" stroke="#CCDDE2" stroke-width="4.65" stroke-miterlimit="10"/>
<path d="M577.75 597.512C597.75 623.442 611.03 667.512 619.61 707.742" stroke="#CCDDE2" stroke-width="4.65" stroke-miterlimit="10"/>
<path d="M648.37 641.23C644.37 653.44 644.22 665.771 644.69 673.581C644.811 676.104 645.078 678.618 645.49 681.11" stroke="#CCDDE2" stroke-width="4.65" stroke-miterlimit="10"/>
<path d="M861.08 353.379C873.81 401.059 886.94 452.429 885.86 501.439C884.71 553.089 858.41 596.439 811.29 618.439C780.62 632.749 747.65 635.379 716.58 642.909C710.48 644.399 704.47 646.039 698.58 648.019C694.92 649.229 691.33 650.559 687.74 652.079C677.789 656.128 668.42 661.481 659.88 667.999" stroke="#CCDDE2" stroke-width="4.65" stroke-miterlimit="10"/>
<path d="M352.27 81.9997C352.27 81.9997 292.91 68.4497 243.5 85.1497C237.345 87.1777 231.381 89.7477 225.68 92.8297C197.68 107.98 176.55 136.45 178.1 188.16C178.93 215.16 177.35 241.79 172.03 267.63C170.29 276.016 168.14 284.316 165.58 292.53C159.309 312.612 150.258 331.717 138.69 349.29C101.85 405.15 107.43 463.21 148.29 517.05C150.43 519.87 152.63 522.66 154.89 525.39" stroke="#CCDDE2" stroke-width="4.65" stroke-miterlimit="10"/>
<path d="M784.79 57.2617H419.43C377.291 57.2617 343.13 91.4224 343.13 133.562V477.902C343.13 520.041 377.291 554.202 419.43 554.202H784.79C826.929 554.202 861.09 520.041 861.09 477.902V133.562C861.09 91.4224 826.929 57.2617 784.79 57.2617Z" fill="#B1B2FF"/>
<path d="M779.72 50H416.94C372.001 50 335.57 86.4306 335.57 131.37V472.83C335.57 517.769 372.001 554.2 416.94 554.2H779.72C824.659 554.2 861.09 517.769 861.09 472.83V131.37C861.09 86.4306 824.659 50 779.72 50Z" stroke="black" stroke-width="4.65" stroke-miterlimit="10"/>
<path d="M774.6 67.0312H429.62C387.481 67.0312 353.32 101.192 353.32 143.331V468.121C353.32 510.261 387.481 544.421 429.62 544.421H774.6C816.739 544.421 850.9 510.261 850.9 468.121V143.331C850.9 101.192 816.739 67.0312 774.6 67.0312Z" fill="#B1B2FF"/>
<path d="M792.11 92.0898H687.92C673.76 92.0898 662.27 104.45 662.27 119.66V360.82C662.27 376.06 673.76 388.45 687.92 388.45H792.11C806.3 388.45 817.83 376.06 817.83 360.82V119.66C817.83 104.45 806.3 92.0898 792.11 92.0898ZM810.45 361.87C810.432 366.939 808.409 371.796 804.823 375.38C801.237 378.964 796.38 380.984 791.31 381H688.79C683.713 380.984 678.848 378.962 675.256 375.375C671.663 371.788 669.634 366.927 669.61 361.85V118.67C669.634 113.593 671.663 108.731 675.256 105.144C678.848 101.557 683.713 99.5356 688.79 99.5198H791.31C796.383 99.5357 801.244 101.559 804.83 105.147C808.416 108.735 810.437 113.597 810.45 118.67V361.87Z" fill="#D7E8F0"/>
<path d="M790.74 416.75H686.55C672.4 416.75 660.9 429.11 660.9 444.32V481C660.9 496.25 672.4 508.64 686.55 508.64H790.74C804.93 508.64 816.46 496.25 816.46 481V444.32C816.46 429.11 804.93 416.75 790.74 416.75ZM809.08 482.06C809.067 487.132 807.046 491.993 803.459 495.579C799.873 499.166 795.012 501.187 789.94 501.2H687.42C682.344 501.187 677.479 499.167 673.886 495.582C670.293 491.996 668.264 487.136 668.24 482.06V443.33C668.264 438.253 670.293 433.392 673.886 429.805C677.478 426.217 682.343 424.196 687.42 424.18H789.94C795.013 424.196 799.874 426.219 803.46 429.807C807.046 433.395 809.067 438.257 809.08 443.33V482.06Z" fill="#D7E8F0"/>
<path d="M557.25 443.412L404.57 441.172C402.927 441.145 401.362 440.468 400.219 439.289C399.075 438.11 398.446 436.524 398.47 434.882C398.468 434.313 398.549 433.747 398.71 433.202C399.104 431.909 399.907 430.78 400.998 429.983C402.089 429.186 403.409 428.764 404.76 428.782L557.44 431.002C556.298 432.775 555.659 434.824 555.59 436.932C555.507 439.207 556.084 441.457 557.25 443.412Z" fill="#B1B2FF"/>
<path d="M594.27 439.41C593.883 440.7 593.09 441.831 592.009 442.634C590.928 443.438 589.617 443.871 588.27 443.87L577.27 443.71C578.45 441.867 579.092 439.731 579.126 437.542C579.159 435.354 578.583 433.199 577.46 431.32L588.46 431.48C590.1 431.514 591.661 432.194 592.803 433.372C593.945 434.549 594.576 436.13 594.56 437.77C594.541 438.328 594.443 438.88 594.27 439.41Z" fill="#D7E8F0"/>
<path d="M593.91 463.999C593.523 465.287 592.729 466.415 591.648 467.213C590.566 468.012 589.255 468.439 587.91 468.429L436.16 466.209C437.577 464.519 438.486 462.462 438.782 460.276C439.077 458.09 438.747 455.865 437.83 453.859L588.05 455.999C589.691 456.031 591.253 456.71 592.396 457.888C593.538 459.066 594.169 460.648 594.15 462.289C594.155 462.868 594.074 463.444 593.91 463.999Z" fill="#D7E8F0"/>
<path d="M417.9 465.93L404.22 465.73C402.581 465.706 401.018 465.035 399.873 463.861C398.728 462.688 398.094 461.109 398.11 459.47C398.117 458.892 398.201 458.316 398.36 457.76C398.744 456.473 399.537 455.346 400.621 454.552C401.704 453.758 403.017 453.339 404.36 453.36L416.55 453.55C415.837 455.029 415.435 456.639 415.37 458.28C415.269 461.051 416.166 463.766 417.9 465.93Z" fill="#B1B2FF"/>
<path d="M546.45 492.68L404.78 490.62C403.141 490.584 401.582 489.903 400.44 488.726C399.299 487.549 398.666 485.97 398.68 484.33C398.684 483.774 398.771 483.221 398.94 482.69C399.324 481.399 400.117 480.266 401.198 479.462C402.28 478.659 403.592 478.226 404.94 478.23L546.4 480.31C545.245 482.167 544.633 484.309 544.633 486.495C544.633 488.682 545.245 490.824 546.4 492.68H546.45Z" fill="#B1B2FF"/>
<path d="M594.5 488.869C594.116 490.158 593.322 491.286 592.24 492.083C591.157 492.881 589.844 493.304 588.5 493.289L566.24 492.999L546.45 492.729C545.295 490.873 544.683 488.731 544.683 486.544C544.683 484.358 545.295 482.216 546.45 480.359L566.61 480.659L588.61 480.979C590.247 481.006 591.808 481.679 592.951 482.852C594.094 484.025 594.726 485.602 594.71 487.239C594.717 487.79 594.647 488.339 594.5 488.869Z" fill="#D7E8F0"/>
<path d="M577.21 443.711C575.672 446.114 573.315 447.878 570.576 448.674C567.836 449.47 564.901 449.245 562.315 448.041C559.728 446.837 557.667 444.735 556.514 442.126C555.36 439.516 555.192 436.577 556.042 433.854C556.892 431.13 558.701 428.808 561.133 427.317C563.566 425.827 566.457 425.27 569.269 425.75C572.081 426.23 574.623 427.714 576.424 429.926C578.225 432.139 579.161 434.93 579.06 437.781C578.987 439.888 578.348 441.936 577.21 443.711Z" fill="white"/>
<g opacity="0.72">
<path opacity="0.72" d="M572.78 436.51C572.515 437.917 571.852 439.219 570.87 440.26C570.392 440.79 569.87 441.278 569.31 441.72C569 441.94 567.39 443.23 567.08 443.07C564.96 442 562.29 439.31 561.96 436.68C561.905 436.268 561.905 435.851 561.96 435.44C562.077 434.732 562.444 434.089 562.995 433.629C563.545 433.168 564.242 432.92 564.96 432.93C565.43 432.947 565.89 433.075 566.301 433.302C566.713 433.53 567.065 433.851 567.33 434.24C567.63 433.878 568.008 433.589 568.436 433.393C568.864 433.197 569.33 433.101 569.8 433.11C570.223 433.124 570.639 433.225 571.022 433.407C571.405 433.588 571.747 433.846 572.026 434.165C572.305 434.483 572.516 434.856 572.646 435.259C572.776 435.663 572.821 436.088 572.78 436.51Z" fill="#B1B2FF"/>
</g>
<path d="M436.14 466.211C435.02 467.553 433.613 468.629 432.024 469.358C430.434 470.087 428.702 470.451 426.953 470.424C425.205 470.398 423.484 469.98 421.918 469.203C420.351 468.425 418.979 467.307 417.9 465.931C416.174 463.764 415.283 461.049 415.39 458.281C415.456 456.64 415.857 455.03 416.57 453.551C417.574 451.511 419.147 449.805 421.099 448.639C423.05 447.473 425.298 446.897 427.57 446.981C429.758 447.05 431.883 447.735 433.7 448.957C435.516 450.18 436.951 451.889 437.84 453.891C438.757 455.897 439.087 458.121 438.792 460.307C438.496 462.493 437.587 464.55 436.17 466.241L436.14 466.211Z" fill="white"/>
<g opacity="0.72">
<path opacity="0.72" d="M432.59 457.842C432.319 459.246 431.653 460.543 430.67 461.582C430.2 462.119 429.677 462.608 429.11 463.042C428.81 463.262 427.19 464.562 426.89 464.392C424.77 463.332 422.1 460.642 421.76 458.002C421.705 457.59 421.705 457.173 421.76 456.762C421.863 456.176 422.138 455.634 422.549 455.205C422.961 454.776 423.491 454.479 424.071 454.351C424.652 454.224 425.258 454.271 425.811 454.489C426.365 454.706 426.841 455.083 427.18 455.572C427.577 455.021 428.149 454.62 428.803 454.436C429.457 454.252 430.153 454.296 430.779 454.559C431.405 454.823 431.923 455.291 432.249 455.888C432.574 456.484 432.687 457.173 432.57 457.842H432.59Z" fill="#B1B2FF"/>
</g>
<path d="M566.24 492.999C564.828 495.131 562.759 496.745 560.347 497.596C557.935 498.447 555.311 498.489 552.874 497.714C550.436 496.94 548.317 495.391 546.839 493.304C545.36 491.217 544.602 488.705 544.68 486.149C544.754 484.1 545.357 482.105 546.43 480.359C547.253 479.043 548.329 477.903 549.594 477.005C550.86 476.108 552.291 475.47 553.805 475.128C555.319 474.786 556.886 474.748 558.414 475.015C559.943 475.282 561.404 475.85 562.712 476.684C564.02 477.519 565.15 478.605 566.036 479.879C566.923 481.153 567.548 482.589 567.876 484.106C568.204 485.623 568.228 487.19 567.948 488.716C567.667 490.242 567.086 491.698 566.24 492.999Z" fill="white"/>
<g opacity="0.72">
<path opacity="0.72" d="M561.89 485.66C561.622 487.068 560.955 488.369 559.97 489.41C559.5 489.947 558.977 490.436 558.41 490.87C558.11 491.09 556.49 492.38 556.19 492.22C554.07 491.15 551.4 488.47 551.06 485.83C551.005 485.418 551.005 485.001 551.06 484.59C551.163 484.004 551.438 483.462 551.849 483.033C552.261 482.604 552.791 482.307 553.371 482.179C553.952 482.052 554.558 482.1 555.111 482.317C555.665 482.534 556.141 482.911 556.48 483.4C556.877 482.85 557.448 482.451 558.1 482.268C558.752 482.084 559.448 482.127 560.073 482.389C560.698 482.651 561.216 483.117 561.542 483.711C561.868 484.305 561.984 484.992 561.87 485.66H561.89Z" fill="#B1B2FF"/>
</g>
<path d="M397.3 121.359L397.56 157.549C397.627 163.861 400.131 169.904 404.55 174.412C408.969 178.92 414.96 181.546 421.27 181.739L457.09 182.359C460.17 182.406 463.229 181.834 466.084 180.677C468.939 179.519 471.532 177.8 473.71 175.621C475.888 173.443 477.606 170.849 478.762 167.993C479.918 165.138 480.489 162.079 480.44 158.999L480.17 122.809C480.108 116.497 477.606 110.455 473.188 105.947C468.77 101.44 462.779 98.8171 456.47 98.6288L420.65 97.9988C417.57 97.9515 414.511 98.5236 411.656 99.6809C408.801 100.838 406.208 102.557 404.03 104.736C401.852 106.915 400.134 109.509 398.978 112.364C397.822 115.22 397.251 118.279 397.3 121.359Z" fill="white"/>
<path d="M402.81 130.441L403 156.641C403.059 162.122 405.235 167.368 409.073 171.281C412.91 175.195 418.112 177.474 423.59 177.641L454.7 178.181C457.375 178.222 460.032 177.725 462.511 176.72C464.991 175.716 467.244 174.224 469.137 172.333C471.03 170.442 472.524 168.19 473.531 165.711C474.538 163.232 475.038 160.577 475 157.901V156.131C470.63 147.191 462.12 133.811 453 141.811C439.91 153.311 433.92 144.561 426.29 133.271C419.92 123.821 410.23 116.921 402.81 130.441Z" fill="#B1B2FF"/>
<path d="M461.34 126.822C465.292 124.197 466.31 118.779 463.614 114.722C460.919 110.665 455.53 109.504 451.578 112.129C447.627 114.755 446.609 120.172 449.305 124.229C452 128.286 457.389 129.447 461.34 126.822Z" fill="#B1B2FF"/>
<path d="M605.38 136.001C599.782 135.999 594.32 137.73 589.746 140.957C585.171 144.183 581.707 148.747 579.83 154.021C577.953 159.295 577.754 165.021 579.262 170.412C580.77 175.803 583.909 180.596 588.25 184.131L517.25 328.841C516.813 328.772 516.372 328.729 515.93 328.711C514.798 328.726 513.673 328.901 512.59 329.231L466.4 271.841C468.462 268.995 469.63 265.599 469.755 262.087C469.879 258.574 468.954 255.104 467.098 252.12C465.242 249.135 462.54 246.771 459.334 245.329C456.129 243.886 452.567 243.432 449.102 244.022C445.638 244.613 442.428 246.222 439.881 248.645C437.335 251.068 435.568 254.194 434.806 257.625C434.044 261.056 434.322 264.637 435.603 267.909C436.884 271.182 439.111 273.999 442 276.001L409.63 368.121C406.808 368.29 404.131 369.431 402.054 371.349C399.978 373.268 398.629 375.847 398.239 378.647C397.848 381.447 398.438 384.297 399.91 386.711C401.382 389.125 403.644 390.955 406.312 391.89C408.981 392.825 411.89 392.808 414.547 391.841C417.204 390.874 419.444 389.017 420.887 386.586C422.33 384.154 422.887 381.298 422.462 378.503C422.038 375.707 420.659 373.145 418.56 371.251L450.93 279.121C451.33 279.121 451.72 279.181 452.12 279.181C454.527 279.181 456.908 278.691 459.12 277.741L505.3 335.111C504.327 336.876 503.811 338.856 503.8 340.871C503.753 342.505 504.035 344.131 504.627 345.654C505.22 347.177 506.112 348.565 507.251 349.737C508.39 350.909 509.753 351.84 511.258 352.477C512.763 353.113 514.381 353.441 516.015 353.441C517.649 353.441 519.267 353.113 520.772 352.477C522.277 351.84 523.64 350.909 524.779 349.737C525.917 348.565 526.81 347.177 527.402 345.654C527.995 344.131 528.277 342.505 528.23 340.871C528.222 338.154 527.299 335.519 525.61 333.391L596.61 188.681C600.342 189.995 604.316 190.476 608.254 190.091C612.192 189.706 615.998 188.463 619.404 186.451C622.811 184.438 625.735 181.704 627.973 178.441C630.21 175.178 631.706 171.465 632.356 167.562C633.006 163.659 632.793 159.661 631.734 155.849C630.674 152.037 628.793 148.503 626.222 145.496C623.651 142.488 620.453 140.08 616.853 138.439C613.252 136.799 609.336 135.967 605.38 136.001Z" fill="#D7E8F0"/>
<path d="M691.18 188.148H786.18" stroke="white" stroke-width="4.65" stroke-miterlimit="10"/>
<path d="M691.18 202.82H786.18" stroke="white" stroke-width="4.65" stroke-miterlimit="10"/>
<path d="M691.18 217.48H786.18" stroke="white" stroke-width="4.65" stroke-miterlimit="10"/>
<path d="M691.18 232.141H786.18" stroke="white" stroke-width="4.65" stroke-miterlimit="10"/>
<path d="M691.18 246.809H786.18" stroke="white" stroke-width="4.65" stroke-miterlimit="10"/>
<path d="M691.18 332.449H786.18" stroke="white" stroke-width="4.65" stroke-miterlimit="10"/>
<path d="M691.18 345.391H786.18" stroke="white" stroke-width="4.65" stroke-miterlimit="10"/>
<path d="M766.22 444.479C767.175 445.271 767.94 446.267 768.459 447.394C768.978 448.52 769.238 449.749 769.22 450.989L769 480.319C768.992 481.426 768.766 482.521 768.334 483.54C767.902 484.56 767.274 485.484 766.484 486.259C765.694 487.035 764.759 487.647 763.732 488.061C762.705 488.474 761.607 488.681 760.5 488.669L716.5 488.289C714.269 488.268 712.137 487.362 710.573 485.77C709.009 484.178 708.141 482.031 708.16 479.799L708.42 450.449C708.504 448.238 709.43 446.143 711.008 444.593C712.586 443.042 714.698 442.154 716.91 442.109L760.91 442.489C762.859 442.506 764.74 443.211 766.22 444.479Z" fill="white"/>
<path d="M760 449.842L739.48 467.472C739.218 467.695 738.885 467.817 738.54 467.817C738.196 467.817 737.862 467.695 737.6 467.472L716.71 449.472C716.479 449.277 716.315 449.016 716.241 448.723C716.167 448.431 716.187 448.123 716.297 447.842C716.408 447.562 716.604 447.323 716.857 447.159C717.111 446.996 717.409 446.916 717.71 446.932L759.12 447.302C759.411 447.311 759.692 447.409 759.926 447.582C760.161 447.755 760.337 447.994 760.432 448.269C760.528 448.544 760.537 448.842 760.46 449.123C760.383 449.403 760.223 449.654 760 449.842Z" fill="#B1B2FF"/>
<path d="M740.06 270.379C735.676 270.375 731.39 271.671 727.743 274.104C724.096 276.536 721.253 279.996 719.572 284.045C717.892 288.094 717.45 292.55 718.303 296.85C719.156 301.15 721.265 305.1 724.363 308.201C727.462 311.302 731.41 313.415 735.709 314.272C740.008 315.128 744.465 314.691 748.516 313.014C752.566 311.337 756.028 308.497 758.464 304.852C760.9 301.208 762.2 296.923 762.2 292.539C762.201 289.63 761.63 286.75 760.518 284.062C759.406 281.374 757.775 278.931 755.719 276.874C753.664 274.816 751.222 273.183 748.536 272.069C745.849 270.954 742.969 270.38 740.06 270.379ZM740.06 309.379C739.201 309.379 738.377 309.038 737.769 308.43C737.161 307.822 736.82 306.998 736.82 306.139C736.82 305.28 737.161 304.455 737.769 303.848C738.377 303.24 739.201 302.899 740.06 302.899C740.919 302.899 741.743 303.24 742.351 303.848C742.959 304.455 743.3 305.28 743.3 306.139C743.3 306.998 742.959 307.822 742.351 308.43C741.743 309.038 740.919 309.379 740.06 309.379ZM744.13 284.459C743.45 289.269 742.87 294.319 741.44 298.979C741.307 299.232 741.107 299.445 740.862 299.593C740.617 299.741 740.336 299.819 740.05 299.819C739.764 299.819 739.483 299.741 739.238 299.593C738.993 299.445 738.793 299.232 738.66 298.979C737.646 295.469 736.871 291.894 736.34 288.279C735.89 285.659 734.34 281.389 735.83 278.849C737.12 276.559 740.77 276.289 742.83 277.479C745.46 278.889 744.44 281.999 744.13 284.419V284.459Z" fill="white"/>
<path d="M605.77 183.53C616.76 183.53 625.67 174.621 625.67 163.63C625.67 152.64 616.76 143.73 605.77 143.73C594.78 143.73 585.87 152.64 585.87 163.63C585.87 174.621 594.78 183.53 605.77 183.53Z" fill="white"/>
<path d="M739.9 135.12C743.573 135.12 746.55 132.143 746.55 128.47C746.55 124.798 743.573 121.82 739.9 121.82C736.227 121.82 733.25 124.798 733.25 128.47C733.25 132.143 736.227 135.12 739.9 135.12Z" fill="white"/>
<path d="M721.33 158.539C721.33 153.614 723.287 148.89 726.769 145.408C730.252 141.925 734.975 139.969 739.9 139.969C744.825 139.969 749.548 141.925 753.031 145.408C756.514 148.89 758.47 153.614 758.47 158.539H721.33Z" fill="white"/>
<path d="M612 794.19C611.996 795.701 611.531 797.174 610.668 798.414C609.806 799.654 608.585 800.601 607.17 801.13L537.52 827.13C537.52 827.13 534.2 820.97 528.41 810.68L488.63 744.13C477.88 799.43 465.89 854.8 458.46 889.31L451.3 923.67L480 933.11C481.725 933.526 483.261 934.509 484.361 935.902C485.462 937.294 486.064 939.015 486.07 940.79C486.067 941.994 485.791 943.181 485.262 944.263C484.733 945.344 483.965 946.291 483.016 947.032C482.067 947.772 480.962 948.288 479.785 948.539C478.608 948.79 477.388 948.77 476.22 948.48L409.7 931.62V915.36L408.12 915.05L409.49 725.38L344.49 710.01C336.34 712.55 327.73 714.88 318.93 716.77C318.835 716.783 318.742 716.803 318.65 716.83C297.291 722.429 274.981 723.391 253.22 719.65C253.03 719.65 252.81 719.56 252.63 719.52C251.05 719.22 249.47 718.87 247.92 718.52C247.45 718.43 246.99 718.34 246.52 718.21C245.16 717.9 243.8 717.5 242.44 717.13C241.69 716.91 240.95 716.73 240.24 716.51C239.53 716.29 239 716.11 238.38 715.89C226.668 712.213 215.851 706.133 206.62 698.04C199.542 692.097 193.541 684.98 188.88 677C186.88 673.84 185.01 670.52 183.27 667.11C172.71 646.26 170.51 639.17 173.58 638.98C166.819 636.598 160.27 633.655 154 630.18C154 630.18 140.18 549.53 170.32 468.36C169.743 463.339 169.847 458.263 170.63 453.27C176.98 407.73 211.93 360.92 253.63 341.96C275.97 331.8 312.4 316.21 300.63 285.17C296.91 275.35 291.63 266.89 290.63 256.7C290.54 255.7 290.42 254.81 290.35 253.82C288.68 229.82 302.65 207.03 325.27 198.82C332.671 196.033 340.582 194.859 348.474 195.377C356.366 195.894 364.056 198.091 371.03 201.82C373.439 203.091 375.6 204.785 377.41 206.82C384.29 207 392.93 208.21 396.99 210.1C403.87 213.32 409.38 218.96 413.5 225.31C421.1 237.146 424.151 251.336 422.09 265.25C420.906 272.95 418.163 280.327 414.03 286.93C411.992 290.238 409.627 293.334 406.97 296.17C404.64 298.61 401.33 302.17 398.14 303.48C398.176 303.508 398.22 303.524 398.265 303.524C398.31 303.524 398.355 303.508 398.39 303.48L397.46 318.35C416.56 314 467.59 296.08 505 222.09C507.7 216.36 510.48 210.66 513.4 205.02C522.04 188.23 531.3 171.53 543.57 157.09C546.57 153.59 551.01 150.43 555.78 151.95C559.96 153.28 562.78 157.95 559.87 161.87L539.79 189.31L546.2 188.48C546.899 188.649 547.552 188.968 548.115 189.415C548.677 189.863 549.136 190.427 549.457 191.07C549.779 191.713 549.957 192.418 549.978 193.136C549.999 193.855 549.863 194.569 549.58 195.23L545.52 204.87L547.44 202.61C548.761 201.05 550.633 200.061 552.667 199.85C554.7 199.639 556.735 200.222 558.348 201.477C559.961 202.733 561.027 204.563 561.322 206.586C561.616 208.608 561.118 210.666 559.93 212.33L549.35 226C547.933 227.805 546.133 229.274 544.08 230.3L523.14 240.4C529.333 248.013 535.092 255.969 540.39 264.23C528.892 286.268 515.413 307.214 500.12 326.81C474.34 360.02 437.22 397.14 391.9 412.66C390.9 440.11 386.05 467.31 378.52 493.92C402.03 493.92 424.46 493.92 447.14 493.92L464.24 447.26C465.026 445.107 466.455 443.248 468.333 441.935C470.211 440.622 472.448 439.918 474.74 439.92H543.09C544.279 439.924 545.457 440.155 546.56 440.6C548.235 441.292 549.668 442.465 550.677 443.97C551.687 445.476 552.227 447.247 552.23 449.06C552.218 450.171 552.008 451.272 551.61 452.31L547.08 464.09H546.93H527.66L519.82 486.55L522.05 480.88H531.69C533.2 480.88 534.686 481.253 536.017 481.965C537.348 482.678 538.482 483.709 539.318 484.966C540.154 486.223 540.667 487.667 540.81 489.17C540.954 490.673 540.723 492.188 540.14 493.58L531.93 513.22C529.455 519.134 525.53 524.329 520.517 528.326C515.505 532.323 509.566 534.993 503.25 536.09L502.38 536.24L500.77 541L501.6 539.36C501.33 540.01 501.02 540.72 500.74 541.5H522.36C522.36 541.5 517.56 555.5 508.73 556.34C508.016 556.396 507.299 556.372 506.59 556.27H461.79C464.3 559.06 467.12 562.44 470.13 566.41C483.13 566.22 502.04 567.61 506.72 576.69C507.525 577.593 508.261 578.555 508.92 579.57C510.71 582.57 511.3 589.57 510.87 599.68C510.996 610.106 510.122 620.521 508.26 630.78C510.527 635.033 512.707 639.31 514.8 643.61C519.352 652.117 523.458 660.855 527.1 669.79C527.225 670.027 527.329 670.274 527.41 670.53C538.326 695.563 547.903 721.159 556.1 747.21L556.56 748.82C562.76 767.1 567.81 783.71 569.73 793.82L602.23 787.16C603.345 786.79 604.531 786.69 605.693 786.867C606.854 787.045 607.956 787.495 608.91 788.181C609.863 788.867 610.64 789.769 611.177 790.814C611.715 791.858 611.997 793.015 612 794.19Z" fill="white"/>
<path d="M499.85 542.699H521.47C520.583 545.138 519.454 547.483 518.1 549.699C515.43 553.879 511.31 558.249 505.86 557.509H440.27C437.72 557.526 435.237 556.696 433.21 555.149C432.761 553.071 432.889 550.909 433.58 548.899C460.07 544.839 487.21 540.469 499.35 537.959L501.64 537.559L499.85 542.699Z" fill="#B1B2FF"/>
<path d="M551.34 450.379C551.328 451.49 551.118 452.591 550.72 453.629L546.2 465.399H526.92L519 487.999L516.12 495.219H453.28L467.84 455.559C468.63 453.407 470.062 451.549 471.941 450.236C473.821 448.924 476.058 448.22 478.35 448.219H546.69C547.88 448.221 549.058 448.452 550.16 448.899C550.543 449.055 550.917 449.232 551.28 449.429C551.31 449.729 551.34 450.069 551.34 450.379Z" fill="#B1B2FF"/>
<path d="M551.35 450.369C551.337 451.48 551.127 452.581 550.73 453.619L546.2 465.389H526.93L533.63 447.209C534.37 445.193 535.796 443.502 537.659 442.432C539.521 441.363 541.7 440.984 543.815 441.361C545.929 441.738 547.843 442.847 549.22 444.494C550.598 446.141 551.352 448.221 551.35 450.369Z" fill="#B1B2FF"/>
<path d="M521.46 542.7C521.46 542.7 515.26 560.92 504 557C497 554.59 498.05 547.62 499.88 542.66L521.46 542.7Z" fill="#B1B2FF"/>
<path d="M505.62 465.391H474.19" stroke="white" stroke-width="4.65" stroke-linecap="round" stroke-linejoin="round"/>
<path d="M501.75 477.23H470.32" stroke="white" stroke-width="4.65" stroke-linecap="round" stroke-linejoin="round"/>
<path d="M526.37 670.999C520.927 657.838 514.579 645.071 507.37 632.789C510.29 617.319 512.28 590.219 505.95 577.919C501.27 568.829 482.38 567.449 469.34 567.639C459.27 554.329 451.13 547.469 451.13 547.469C451.13 547.469 390.51 557.289 376.67 557.369C362.83 557.449 362.84 565.119 362.84 565.119C362.84 565.119 353.2 594.209 342.3 608.659C331.4 623.109 302.08 640.659 259.83 647.419C217.58 654.179 184.35 645.849 176.73 641.609C169.11 637.369 168.86 641.459 182.5 668.329C196.14 695.199 217.14 714.519 252.41 720.889C274.164 724.635 296.469 723.673 317.82 718.069C317.82 718.069 373.63 703.999 390 693.269C406.37 682.539 408.93 697.129 408.93 697.129L407.33 916.309L450.53 924.929L487.85 745.399L527.65 811.999L569 794.999C564.13 769.429 539.12 701.999 526.37 670.999Z" fill="#2E2E2E"/>
<path d="M413.47 377.931C412.584 384.019 409.995 389.732 406 394.411C402.931 398.332 399.027 401.52 394.57 403.741C393.524 404.246 392.437 404.661 391.32 404.981C391.32 401.511 391.26 397.981 391.07 394.541C390.36 381.651 387.76 368.231 379.55 358.321C375.6 353.586 370.615 349.823 364.98 347.321C365.14 344.941 365.33 342.581 365.48 340.201C365.91 336.131 365.89 332.026 365.42 327.961C364.89 325.494 364.589 322.983 364.52 320.461C364.61 318.111 364.27 309.091 366.13 307.141C369.233 308.434 372.558 309.114 375.92 309.141C383.45 309.081 389.43 304.461 393.46 298.551C394.942 298.067 396.483 297.784 398.04 297.711C402.6 298.391 388.99 310.661 393.43 309.271C390.54 310.161 388.43 314.501 387.07 316.981C385.07 320.821 383.91 325.341 385.87 329.401C387.79 333.281 391.81 336.621 394.66 339.811C398.502 343.845 402.096 348.11 405.42 352.581C410.68 359.901 414.52 368.891 413.47 377.931Z" fill="#B1B2FF"/>
<path d="M344.26 342.219C351.421 342.664 358.444 344.384 365 347.299C370.631 349.803 375.612 353.567 379.56 358.299C387.77 368.219 390.37 381.629 391.08 394.519C391.27 397.989 391.36 401.519 391.33 404.959C391.18 435.479 386.1 465.679 377.76 495.209C403.66 495.209 428.23 495.209 453.26 495.209H516.12L519 487.999L521.3 482.199H531C532.511 482.199 533.998 482.572 535.33 483.285C536.662 483.999 537.797 485.03 538.634 486.288C539.472 487.545 539.985 488.991 540.129 490.495C540.273 491.999 540.043 493.515 539.46 494.909L531.25 514.549C528.769 520.459 524.84 525.651 519.827 529.646C514.813 533.641 508.876 536.31 502.56 537.409L501.69 537.569L499.4 537.969C487.26 540.479 460.12 544.849 433.63 548.909C409.4 552.659 385.7 556.129 374.49 557.739C370.24 558.359 365.9 558.819 361.49 559.099C335.32 560.709 308.3 554.889 301.3 525.099C296.74 506.019 297.74 485.449 297.95 465.589" stroke="black" stroke-width="4.65" stroke-miterlimit="10"/>
<path d="M469.55 568.499C486.49 567.719 501.67 570.229 508.18 580.829C511.46 586.189 510.66 605.089 507.28 631.449" stroke="black" stroke-width="4.65" stroke-miterlimit="10"/>
<path d="M185.76 673.93C185.797 673.975 185.827 674.026 185.85 674.08C193.1 688.86 205.85 701.62 222.16 710.55C279.63 741.99 366.07 705.15 397.16 689.82C398.401 689.209 399.777 688.925 401.158 688.994C402.539 689.064 403.879 689.484 405.053 690.216C406.226 690.948 407.193 691.967 407.863 693.177C408.533 694.386 408.883 695.747 408.88 697.13V932.9L475.39 949.75C476.42 950.014 477.492 950.068 478.543 949.907C479.594 949.746 480.602 949.374 481.505 948.813C482.409 948.253 483.19 947.515 483.8 946.645C484.411 945.775 484.84 944.79 485.06 943.75C485.498 941.729 485.127 939.617 484.026 937.867C482.925 936.117 481.181 934.869 479.17 934.39L450.48 924.94C451.81 915.62 471.27 830.39 487.81 745.41" stroke="black" stroke-width="4.65" stroke-miterlimit="10"/>
<path d="M449.85 546.359C466.85 560.759 479.06 582.899 490.49 601.709C518.34 647.539 539.17 697.419 555.35 748.459C560.24 763.879 564.74 779.459 568.99 795.039L601.47 788.369C603.313 787.77 605.318 787.916 607.055 788.776C608.792 789.636 610.124 791.141 610.765 792.97C611.407 794.799 611.307 796.807 610.487 798.563C609.668 800.32 608.194 801.686 606.38 802.369L536.73 828.369C536.73 828.369 516.35 790.299 487.87 745.369C446.13 679.449 369 577.849 348.64 599.519" stroke="black" stroke-width="4.65" stroke-miterlimit="10"/>
<path d="M389.09 320.779C389.09 320.779 457.39 316.049 504.21 223.359C504.21 223.359 519.01 233.569 539.64 265.509C539.64 265.509 481.76 382.979 391.08 413.979" stroke="black" stroke-width="4.65" stroke-miterlimit="10"/>
<path d="M382.91 212.398L386.91 218.478L389.32 222.178C391.765 227.874 393.914 233.692 395.76 239.608L395.88 240.028L400.46 257.528C400.468 257.548 400.468 257.569 400.46 257.588C401.999 260.122 404.122 262.251 406.65 263.798C407.248 264.121 407.805 264.514 408.31 264.968C411.06 267.728 403.81 268.528 402.31 269.438C401.648 269.893 401.105 270.5 400.728 271.208C400.35 271.917 400.148 272.706 400.14 273.508C391.53 309.338 397.07 299.928 393.37 307.898C396.58 305.178 404.56 296.528 404.56 296.528C405.56 295.878 406.5 293.928 407.15 292.958C409.215 289.79 410.992 286.443 412.46 282.958C417.023 272.549 418.076 260.939 415.46 249.878C411.33 232.688 401.7 215.488 382.91 212.398Z" fill="#B1B2FF"/>
<path d="M382.09 223.21C381.358 226.928 379.594 230.366 377 233.13C374.183 236.209 370.904 238.831 367.28 240.9C360.46 244.96 352.87 248.03 347.14 253.51C341.403 259.027 337.969 266.512 337.53 274.46C337.13 282.6 340.04 291.03 341.81 298.65C347.42 323.28 345.62 346.95 342.52 371.74C339.58 395.13 333.32 418.02 321.18 438.38C306.86 462.38 283.35 481.59 256.89 491.45C234.89 499.66 192.14 506.94 175.97 484.1C173.18 476.89 173.15 468.64 174.23 460.87C180.58 415.29 215.53 368.51 257.23 349.55C279.57 339.39 316 323.78 304.23 292.73C300.48 282.94 295.23 274.49 294.23 264.26C294.14 263.33 294.05 262.4 293.96 261.41C292.28 237.41 306.25 214.63 328.87 206.41C336.27 203.615 344.182 202.437 352.075 202.955C359.968 203.472 367.658 205.673 374.63 209.41C377.105 210.727 379.321 212.482 381.17 214.59C381.297 214.733 381.411 214.887 381.51 215.05C381.651 215.404 381.764 215.768 381.85 216.14C382.402 218.457 382.484 220.861 382.09 223.21Z" fill="#B1B2FF"/>
<path d="M391.38 403.93C403.46 401.14 414.06 392.49 417.09 379.85C419.91 368.14 415.45 356.12 408.54 346.7C402.13 338 388.78 330.7 389.83 318.36C390.17 314.36 392.15 310.86 394.73 307.76C395.66 306.68 396.62 305.68 397.67 304.66" stroke="black" stroke-width="4.65" stroke-miterlimit="10"/>
<path d="M366.47 306.859L365.91 347.689" stroke="black" stroke-width="4.65" stroke-miterlimit="10"/>
<path d="M299.87 286.389C296.14 276.589 290.87 268.139 289.87 257.919C289.77 256.979 289.68 256.039 289.61 255.039C287.92 231.039 301.9 208.269 324.51 200.039C331.912 197.247 339.825 196.07 347.72 196.588C355.614 197.105 363.306 199.305 370.28 203.039C372.749 204.361 374.958 206.12 376.8 208.229L377.27 208.799C378.903 210.795 380.09 213.117 380.75 215.609C381.411 218.102 381.53 220.707 381.1 223.249C380.372 226.957 378.619 230.387 376.04 233.149C373.213 236.234 369.928 238.865 366.3 240.949C359.48 245.009 351.9 248.059 346.15 253.539C340.41 259.071 336.985 266.578 336.57 274.539C336.16 282.679 339.08 291.099 340.82 298.739C346.43 323.369 344.64 347.029 341.54 371.809C338.6 395.199 332.35 418.099 320.19 438.459C305.87 462.459 282.37 481.679 255.9 491.529C233.47 499.889 189.49 507.289 174.04 482.819C168.85 474.609 168.51 464.219 169.85 454.599C176.2 409.029 211.17 362.229 252.85 343.279C275.23 332.999 311.66 317.429 299.87 286.389Z" stroke="black" stroke-width="4.65" stroke-miterlimit="10"/>
<path d="M385.74 258.678C387.888 258.678 389.63 256.937 389.63 254.788C389.63 252.64 387.888 250.898 385.74 250.898C383.592 250.898 381.85 252.64 381.85 254.788C381.85 256.937 383.592 258.678 385.74 258.678Z" fill="black"/>
<path d="M384.83 242.25C384.83 242.25 371.66 248.19 375.83 259.74" stroke="black" stroke-width="4.65" stroke-miterlimit="10"/>
<path d="M397 304.851C400.3 303.651 403.82 299.851 406.22 297.361C408.874 294.528 411.245 291.444 413.3 288.151C419.086 278.892 422.109 268.173 422.011 257.255C421.914 246.338 418.701 235.675 412.75 226.521C408.63 220.161 403.14 214.521 396.26 211.321C390.525 208.619 384.108 207.713 377.85 208.721C381.347 211.576 384.484 214.847 387.19 218.461C391.266 223.81 394.12 229.989 395.55 236.561C395.77 237.711 395.96 238.851 396.16 240.011C397.16 246.191 397.72 252.451 400.75 257.511C402.295 260.065 404.428 262.215 406.97 263.781C407.568 264.103 408.125 264.496 408.63 264.951C411.38 267.711 404.13 268.501 402.63 269.411C398.78 271.661 400.21 278.121 399.7 281.861C399.085 286.226 397.779 290.466 395.83 294.421C395.14 295.826 394.355 297.182 393.48 298.481C389.48 304.411 383.48 309.051 375.94 309.091C372.585 309.061 369.267 308.381 366.17 307.091C360.858 304.932 356.107 301.591 352.28 297.321" stroke="black" stroke-width="4.65" stroke-miterlimit="10"/>
<path d="M389.76 284.16C389.76 284.16 380.69 289.33 376.76 277.43" stroke="black" stroke-width="4.65" stroke-miterlimit="10"/>
<path d="M520.72 242.498L543.32 231.578C545.386 230.582 547.191 229.116 548.59 227.298L559.14 213.608C560.355 211.946 560.875 209.877 560.591 207.838C560.306 205.799 559.238 203.951 557.614 202.686C555.99 201.42 553.937 200.837 551.89 201.06C549.844 201.283 547.964 202.293 546.65 203.878L544.72 206.128L548.79 196.498C549.066 195.836 549.197 195.123 549.174 194.406C549.15 193.689 548.972 192.985 548.652 192.343C548.333 191.701 547.879 191.135 547.321 190.684C546.763 190.233 546.115 189.907 545.42 189.728L538.99 190.578L559.09 163.128C561.94 159.238 559.17 154.538 555 153.208C550.2 151.678 545.76 154.838 542.78 158.338C530.52 172.778 521.23 189.478 512.6 206.278C509.7 211.925 506.903 217.618 504.21 223.358" stroke="black" stroke-width="4.65" stroke-linejoin="round"/>
<path d="M539 190.578C539 190.578 525.89 206.888 544.73 206.128" stroke="black" stroke-width="4.65" stroke-miterlimit="10"/>
<path d="M502.5 537.398C502.5 537.398 492.78 553.168 504.1 557.038C515.42 560.908 521.61 542.708 521.61 542.708H499.76" stroke="black" stroke-width="4.65" stroke-miterlimit="10"/>
<path d="M505.98 557.5H460.9" stroke="black" stroke-width="4.65" stroke-miterlimit="10"/>
<path d="M551.49 450.369C551.477 451.48 551.267 452.581 550.87 453.619L546.35 465.389H527.08L533.77 447.209C534.51 445.193 535.937 443.502 537.799 442.432C539.661 441.363 541.841 440.984 543.955 441.361C546.069 441.738 547.983 442.847 549.361 444.494C550.738 446.141 551.492 448.221 551.49 450.369Z" stroke="black" stroke-width="4.65" stroke-miterlimit="10"/>
<path d="M457.4 465.39L446.4 495.2L463.47 448.57C464.26 446.414 465.694 444.554 467.578 443.241C469.462 441.927 471.704 441.226 474 441.23H542.34" stroke="black" stroke-width="4.65" stroke-miterlimit="10"/>
<path d="M516.14 495.201L527.08 465.391" stroke="black" stroke-width="4.65" stroke-miterlimit="10"/>
<path d="M169.59 469.609C139.44 550.779 153.26 631.449 153.26 631.449C198.8 656.789 263.37 654.589 309.62 632.319C325.98 624.419 343.62 612.519 350.76 595.079C356 582.309 361.45 569.639 365.94 556.689" stroke="black" stroke-width="4.65" stroke-miterlimit="10"/>
<path d="M143.59 722.871H408.92" stroke="black" stroke-width="4.65" stroke-miterlimit="10"/>
<path d="M377.78 495.23L374.92 504.9" stroke="black" stroke-width="4.65" stroke-miterlimit="10"/>
<path d="M185.85 674.081C185.85 674.081 174.17 653.241 170.37 639.371" stroke="black" stroke-width="4.65" stroke-miterlimit="10"/>
<path d="M243.5 85.1484V292.528H165.58C168.147 284.322 170.297 276.022 172.03 267.628C177.35 241.788 178.93 215.108 178.1 188.158C176.55 136.448 197.65 107.978 225.68 92.8284C231.381 89.7465 237.345 87.1764 243.5 85.1484Z" stroke="#CCDDE2" stroke-width="4.65" stroke-miterlimit="10"/>
<path d="M225.68 92.8281V267.628H172C177.32 241.788 178.9 215.108 178.07 188.158C176.55 136.448 197.65 107.998 225.68 92.8281Z" stroke="#CCDDE2" stroke-width="4.65" stroke-miterlimit="10"/>
</g>
</g>
<defs>
<clipPath id="clip0_415_1904">
<rect width="1000" height="1000" fill="white"/>
</clipPath>
</defs>
</svg>
