<svg width="1000" height="1000" viewBox="0 0 1000 1000" fill="none" xmlns="http://www.w3.org/2000/svg">
<path d="M328.42 789.559C334.42 795.399 340.54 801.019 346.92 806.399C418.56 866.759 510.74 902.239 604.35 905.719C606.09 905.779 607.8 905.859 609.54 905.909" stroke="#CCDDE2" stroke-width="4.08" stroke-miterlimit="10"/>
<path d="M726.47 897C726.407 897.014 726.343 897.014 726.28 897C722.12 898 717.94 899 713.73 899.74" stroke="#CCDDE2" stroke-width="4.08" stroke-miterlimit="10"/>
<path d="M737.5 894C737.5 894 737.58 894 737.61 894H737.77L739.45 893.48C739.565 893.461 739.677 893.424 739.78 893.37C759.56 887.5 778.413 878.868 795.78 867.73C810.53 858.19 824.61 846.51 832.65 830.89C846.37 804.18 839.77 771.12 825.65 744.61C820.8 735.693 815.354 727.113 809.35 718.93" stroke="#CCDDE2" stroke-width="4.08" stroke-miterlimit="10"/>
<path d="M751.63 614.601C751.63 614.471 751.63 614.301 751.57 614.141C750.78 606.453 751.019 598.695 752.28 591.071C758.5 552.991 789.6 528.431 810.5 498.411C831.423 468.278 847.61 435.121 858.5 400.091C880.5 329.381 881.05 251.241 854.5 181.671C828.34 113.001 765.62 55.2106 692.27 50.3506C650.65 47.6006 609.41 61.5106 572.76 81.4806C548 95.0006 524.59 111.001 501.8 127.531C481.61 142.091 461.73 159.151 436.54 163.821C402.12 170.211 373.65 150.701 341.92 142.281C315.6 135.281 288.16 131.871 260.92 134.371C156.14 144.041 113.03 237.771 128.13 333.371C134.568 374.228 147.452 413.804 166.3 450.621C182.41 482.021 204.66 510.411 210.77 546.061C214.55 568.061 210.15 593.731 205.72 615.471" stroke="#CCDDE2" stroke-width="4.08" stroke-miterlimit="10"/>
<path d="M671.27 905.18C660.07 905.97 648.77 906.32 637.47 906.35" stroke="#CCDDE2" stroke-width="4.08" stroke-miterlimit="10"/>
<path d="M343.8 462.141C344.629 462.979 345.58 463.687 346.62 464.241C345.62 463.991 344.62 463.721 343.62 463.391C343.71 462.691 343.77 462.251 343.8 462.141Z" fill="#D7E8F0"/>
<path d="M438.36 392.92C439.98 396.03 438.12 399.92 437.63 403.25C428.8 389.72 416.06 379.15 401.77 371.52C387.77 364.04 371.77 360.89 356.16 363.8C333.53 368 329.23 381.32 329 390C325.227 398.241 322.919 407.076 322.18 416.11C321.96 418.45 321.66 420.78 321.26 423.11C319.706 431.188 317.533 439.135 314.76 446.88C300.26 433.43 282.61 412.44 291.15 392.88C307.01 356.56 339.64 299.02 384.89 320.39C409.87 332.22 420.68 358.86 438.36 392.92Z" fill="#D7E8F0"/>
<path d="M755.05 403.44C752.25 406.1 736.05 417.67 739.62 422.53C739.286 422.094 738.985 421.632 738.72 421.15C734.67 414.44 735.54 405.53 736.17 397.24C736.25 396.43 736.3 395.61 736.36 394.82C747.12 380.13 746.36 355.98 693.27 350.9C668.27 348.52 644.18 355.9 637.43 382.74C634.88 392.9 635.43 403.64 637.59 413.88C638.53 418.27 639.78 422.67 639.59 427.15C639.4 431.63 637.47 436.36 633.52 438.5L642.98 444.1C643.051 444.63 642.997 445.168 642.823 445.673C642.65 446.179 642.361 446.636 641.98 447.01C638.29 442.73 634.19 438.2 628.65 437.07C627.852 436.977 627.073 436.761 626.34 436.43C624.73 435.55 624.26 433.5 623.91 431.71C622.22 423.27 617.04 415.31 615.71 407.09C611.55 381.42 624.27 351.52 643.92 334.87C655.49 325.06 673.98 317.34 689.08 316.01C707.34 314.44 722.88 325.01 734.5 338.1C740.131 344.594 745.221 351.537 749.72 358.86C754.96 367.25 760.99 376.19 761.81 386.32C762.28 392.3 760.56 398.17 755.05 403.44Z" fill="#D7E8F0"/>
<path d="M624.13 435.468C609.6 432.418 591.94 436.228 570.69 451.298C533.69 477.548 513.89 518.428 505.06 561.188C503.175 570.339 501.77 579.581 500.85 588.878C502.85 552.278 495.74 516.448 471.85 489.878C468.26 485.876 464.361 482.161 460.19 478.768C408.49 436.688 354.95 500.338 333.95 530.298C332.243 532.697 330.354 534.96 328.3 537.068C325.93 539.588 323.92 541.468 323.19 542.688C322.1 528.368 324.87 511.338 335.93 502.098C336.826 501.363 337.761 500.675 338.73 500.038C339.44 499.598 340.14 499.168 340.9 498.758C349.42 494.198 358 484.998 365.1 474.258C377.38 455.728 385.28 432.858 381.1 422.258C379.33 417.658 375.31 415.358 368.41 416.708C355.35 419.288 345.27 413.638 338.72 407.908C337.473 406.461 336.33 404.927 335.3 403.318C334.615 400.733 334.322 398.06 334.43 395.388C334.67 386.668 338.97 373.328 361.68 369.148C376.86 366.318 392.54 369.148 406.23 376.368C415.036 380.901 423.165 386.643 430.38 393.428C435.328 398.983 439.506 405.179 442.8 411.848C447.52 421.528 451.63 431.168 459.37 437.658C459.386 437.652 459.404 437.652 459.42 437.658C463.493 442.984 469.113 446.921 475.51 448.928C486.92 452.568 499.77 451.238 510.66 446.538C511.42 446.218 512.15 445.858 512.89 445.478C521.66 440.998 527.64 433.528 535.33 427.358C542.995 421.291 551.553 416.447 560.7 412.998C578.63 406.098 607.94 401.288 624.7 414.898L624.79 414.988C628.89 420.468 627.85 429.628 624.13 435.468Z" fill="#B1B2FF"/>
<path d="M812.93 695.371C811.71 745.371 746.16 879.781 737.93 896.491C737.93 895.891 737.88 895.291 737.83 894.691C737.23 887.411 734.49 880.321 730.55 873.691C715.14 847.861 681.21 828.541 681.21 828.541C687.633 792.544 695.874 756.895 705.9 721.731C687.21 734.491 669.9 743.731 654.01 750.091C572.1 783.041 526.92 741.091 518.37 721.751L518.12 721.161C515.441 714.883 513.199 708.428 511.41 701.841C555.77 649.031 627.2 627.081 629.41 626.421L629.66 626.341C629.686 626.35 629.714 626.35 629.74 626.341C812.47 587.441 814.21 642.001 812.93 695.371Z" fill="#B1B2FF"/>
<path d="M464.72 711.81C446.81 740.18 413.62 756.21 379.98 750.5C365.23 748 350.83 741.92 337.44 734.5C387.32 681.82 338.36 601.57 338.36 601.57L294.08 594.32C294.08 594.32 340.08 598.47 364.77 608.99C364.77 609 455.07 637.15 464.72 711.81Z" fill="#2E2E2E"/>
<path d="M706.16 722.48C695.495 759.901 686.872 797.874 680.33 836.23C672.33 848.16 660.44 865.73 652.92 876.93C653.67 875.674 654.07 874.24 654.079 872.777C654.087 871.314 653.705 869.876 652.97 868.61C651.342 865.678 649.469 862.888 647.37 860.271C629.93 838.271 601.3 831.831 601.3 831.831C615.59 807.271 636.64 775.05 653.24 751.25C669.43 744.84 687.06 735.52 706.16 722.48Z" fill="#B1B2FF"/>
<path d="M508.75 357.611C509.583 367.193 509.83 376.818 509.49 386.431C509.3 390.341 509 394.251 508.49 398.191C506.75 411.861 502.11 427.101 508.06 440.191C502.11 427.121 506.76 411.881 508.5 398.191C509.01 394.251 509.31 390.341 509.5 386.431C509.838 376.818 509.595 367.194 508.77 357.611C507.54 341.661 505.51 325.741 505.34 309.491C505.26 301.421 506.73 293.711 510.34 287.301C506.76 293.711 505.29 301.421 505.34 309.491C505.49 325.741 507.53 341.661 508.75 357.611Z" fill="#D7E8F0"/>
<path d="M714.62 405.532C698 397.602 679.62 388.902 673.79 403.142C671.73 408.142 669.36 408.682 666.97 407.572C665.539 406.825 664.214 405.89 663.03 404.792C660.03 402.242 657.14 399.692 655.03 403.272C651.8 408.712 656.03 416.782 657.03 422.322C658.71 431.642 650.97 434.162 644.58 431.262C644.505 431.193 644.435 431.12 644.37 431.042C644.073 429.506 643.682 427.99 643.2 426.502C637.79 402.782 632.11 347.692 697.5 353.912C714.65 355.542 726.36 359.182 733.96 363.852C755.65 382.162 727.09 411.452 714.62 405.532Z" fill="#B1B2FF"/>
<path d="M469.63 702.918C468.184 705.983 466.544 708.952 464.72 711.808C457.27 654.078 401.58 624.168 376.72 613.568C381.34 611.568 381.99 600.258 375.64 591.238C367.73 580.048 374.55 580.858 374.55 580.858L402.5 562.998C394.06 507.358 366.5 500.808 358.3 500.128C384.6 472.908 422.69 448.568 459.83 478.808C525.76 532.528 499.3 640.788 469.63 702.918Z" fill="#D7E8F0"/>
<path d="M509.44 688.882C510.136 692.694 511.071 696.458 512.24 700.152C568.4 648.302 627.47 623.752 658.05 619.392C653.53 615.872 656.4 597.932 648.72 591.852C647.676 591.002 646.58 590.218 645.44 589.502L614.55 561.192C640.31 502.192 662.25 500.312 677.61 498.192C658.05 450.982 633.81 420.382 583.86 442.822C495.15 482.732 495 611.492 509.44 688.882Z" fill="#2E2E2E"/>
<path d="M730.5 874.489C720.25 889.919 713.3 899.339 713.3 899.339L753.94 938.639C754.572 939.261 755.074 940.002 755.417 940.819C755.76 941.636 755.938 942.513 755.94 943.399C755.941 944.508 755.664 945.599 755.132 946.572C754.601 947.545 753.833 948.369 752.899 948.967C751.965 949.565 750.896 949.918 749.79 949.993C748.684 950.069 747.576 949.864 746.57 949.399L670.65 914.399C674.91 843.829 692.96 767.289 705.83 722.539" stroke="black" stroke-width="4.08" stroke-miterlimit="10"/>
<path d="M647 860.268C641.38 864.078 636.57 867.268 632.85 869.648C627.28 873.258 624.1 875.218 624.1 875.218L646.38 927.158C647.065 928.82 647.065 930.686 646.38 932.348C645.951 933.376 645.269 934.279 644.398 934.972C643.526 935.665 642.493 936.127 641.395 936.313C640.297 936.5 639.17 936.406 638.118 936.039C637.066 935.673 636.124 935.046 635.38 934.218L579 872.578C585.73 858.918 593.15 845.248 601 831.828C618 802.628 636.75 774.668 654 750.828" stroke="black" stroke-width="4.08" stroke-miterlimit="10"/>
<path d="M728.13 705.999C720.47 712.106 713.033 717.609 705.82 722.509C687.13 735.279 669.82 744.509 653.93 750.879C572.03 783.829 526.85 741.879 518.29 722.539L518.04 721.939C495.69 670.729 480.72 515.769 570.34 451.329C596.34 432.619 616.99 431.099 633.15 438.379C633.21 438.379 633.26 438.379 633.29 438.379C636.754 439.974 640.039 441.932 643.09 444.219C666.09 461.519 678.09 497.059 682.95 515.499C684.82 522.619 685.64 527.189 685.64 527.189" stroke="black" stroke-width="4.08" stroke-miterlimit="10"/>
<path d="M640.11 428C640.97 432.24 636.44 435.66 633.29 438.38" stroke="black" stroke-width="4.08" stroke-miterlimit="10"/>
<path d="M720.82 405.999C718.753 406.504 716.577 406.325 714.62 405.489C698.03 397.559 679.62 388.859 673.79 403.099C667.96 417.339 659.79 395.299 655.02 403.229C651.76 408.669 656.02 416.739 657.02 422.279C658.6 430.999 651.92 433.769 645.83 431.729C643.638 430.993 641.674 429.701 640.13 427.979C639.832 426.446 639.441 424.934 638.96 423.449C633.58 399.729 627.87 344.629 693.29 350.859C746.4 355.939 747.14 380.089 736.38 394.779C736.16 395.079 735.94 395.379 735.7 395.679C731.51 401.029 725.84 404.969 720.84 405.999" stroke="black" stroke-width="4.08" stroke-miterlimit="10"/>
<path d="M720.81 406C721.167 408.778 720.97 411.598 720.232 414.3C719.494 417.001 718.229 419.53 716.51 421.74C714.334 424.573 713.181 428.059 713.24 431.63V445.3C713.24 446.096 712.924 446.859 712.361 447.421C711.799 447.984 711.036 448.3 710.24 448.3H703.3C703.3 448.3 693.05 479.93 673.79 461.52C673.79 461.52 666.16 452.68 665.17 445.09" stroke="black" stroke-width="4.08" stroke-miterlimit="10"/>
<path d="M667.68 475.188L673.09 460.668V460.648" stroke="black" stroke-width="4.08" stroke-miterlimit="10"/>
<path d="M692.16 465.051C692.16 465.051 692.16 483.941 682.95 515.541" stroke="black" stroke-width="4.08" stroke-miterlimit="10"/>
<path d="M737.91 429.418V429.398" stroke="black" stroke-width="4.08" stroke-miterlimit="10"/>
<path d="M744.67 509.761V510.001C744.87 552.811 739.5 604.891 712.58 610.241C654.32 621.851 587.22 537.531 578.8 503.801" stroke="black" stroke-width="4.08" stroke-miterlimit="10"/>
<path d="M735.68 395.719C735.68 395.719 740.92 409.569 737.9 429.389C734.88 449.209 745.56 495.589 744.67 515.539" stroke="black" stroke-width="4.08" stroke-miterlimit="10"/>
<path d="M651.67 593.859C651.67 593.859 652.8 609.559 658.05 619.389" stroke="black" stroke-width="4.08" stroke-miterlimit="10"/>
<path d="M738.12 460.651H739.02C753.09 460.731 767.46 462.361 779.23 452.931C784.257 448.899 788.107 443.589 790.376 437.558C792.646 431.527 793.252 424.997 792.13 418.651C788.902 401.132 787.276 383.355 787.27 365.541C787.157 355.526 787.574 345.512 788.52 335.541C789.74 324.591 792.89 313.861 792.92 302.771C792.92 282.771 777.52 274.551 760.73 270.961" stroke="black" stroke-width="4.08" stroke-miterlimit="10"/>
<path d="M544.89 268.789C538.027 269.537 531.298 271.219 524.89 273.789C518.436 276.426 513.076 281.189 509.7 287.289C506.12 293.709 504.65 301.419 504.7 309.489C504.84 325.739 506.9 341.659 508.1 357.599C508.924 367.186 509.168 376.813 508.83 386.429C508.64 390.339 508.34 394.249 507.83 398.189C506.07 411.849 501.45 427.099 507.37 440.189" stroke="black" stroke-width="4.08" stroke-miterlimit="10"/>
<path d="M378.22 265C406.42 265.25 434.62 266.5 462.79 268.51C479.63 269.73 500.98 273.07 509.73 287.33" stroke="black" stroke-width="4.08" stroke-miterlimit="10"/>
<path d="M226.63 330C228.45 352.71 231.71 375.1 228.77 398.16C226.95 412.5 221.93 428.56 229.26 442.03C232.335 447.641 236.857 452.325 242.357 455.594C247.856 458.864 254.132 460.599 260.53 460.62H310.06" stroke="black" stroke-width="4.08" stroke-miterlimit="10"/>
<path d="M263.63 684.541C265.49 729.031 267.89 815.061 274.39 887.671L196.09 903.071C195.054 903.276 193.982 903.218 192.975 902.9C191.967 902.583 191.055 902.018 190.323 901.256C189.591 900.494 189.063 899.56 188.786 898.541C188.509 897.521 188.494 896.448 188.74 895.421C188.936 894.592 189.297 893.811 189.8 893.124C190.303 892.437 190.939 891.858 191.67 891.421L238.23 872.041C238.23 872.041 112.68 580.401 267.63 591.521C338.74 596.621 385.01 611.851 413.35 633.861" stroke="black" stroke-width="4.08" stroke-miterlimit="10"/>
<path d="M292.88 704.281C313.31 751.731 344.76 826.161 351.54 856.561L290.66 897.401C289.854 897.955 288.922 898.297 287.949 898.393C286.976 898.489 285.994 898.338 285.096 897.952C284.197 897.567 283.411 896.96 282.81 896.189C282.209 895.418 281.814 894.507 281.66 893.541C281.427 891.988 281.819 890.406 282.75 889.141L314.46 857.411C314.46 857.411 281.09 805.071 266.72 769.541" stroke="black" stroke-width="4.08" stroke-miterlimit="10"/>
<path d="M623.75 434.3C628.18 428.59 628.86 420.85 624.4 414.96C609.4 394.88 575.23 399.96 555.24 407.67C546.107 411.126 537.566 415.977 529.92 422.05C522.23 428.21 516.25 435.68 507.45 440.17C506.72 440.55 505.98 440.9 505.22 441.23C494.36 445.93 481.48 447.23 470.1 443.62C459.77 440.33 453.93 433.4 449.26 425.2C446.84 420.96 444.75 416.4 442.52 411.8C441.093 408.838 439.459 405.981 437.63 403.25C428.8 389.72 416.06 379.15 401.77 371.52C387.77 364.04 371.77 360.89 356.16 363.8C333.53 368 329.24 381.32 329 390C328.945 392.244 329.136 394.487 329.57 396.69C329.729 397.555 329.681 398.446 329.43 399.29C329.025 400.62 328.754 401.986 328.62 403.37C328.151 407.047 328.723 410.782 330.27 414.15C331.747 417.534 332.046 421.316 331.12 424.89C330.36 427.98 325.25 440.34 330.12 441.54H330.47C331.664 441.459 332.847 441.809 333.805 442.527C334.763 443.244 335.432 444.281 335.69 445.45C337.02 451.24 339.19 457.45 343.38 461.78C343.489 461.914 343.617 462.032 343.76 462.13C344.589 462.968 345.54 463.676 346.58 464.23C349.171 465.634 352.136 466.194 355.06 465.83C355.534 465.781 356.004 465.708 356.47 465.61C361.09 464.61 364.29 461.43 367.75 458.44" stroke="black" stroke-width="4.08" stroke-miterlimit="10"/>
<path d="M364.77 474.262L363.36 462.372V462.352" stroke="black" stroke-width="4.08" stroke-miterlimit="10"/>
<path d="M343.8 462.121C343.8 462.231 343.72 462.671 343.63 463.371C343.01 467.691 340.89 482.551 338.36 500.051" stroke="black" stroke-width="4.08" stroke-miterlimit="10"/>
<path d="M319.63 416.7V416.68" stroke="black" stroke-width="4.08" stroke-miterlimit="10"/>
<path d="M442.82 521.31C434.04 538.05 403.89 566.36 370.07 583.23C350.94 592.71 330.65 598.55 312.39 596.57C310.71 596.4 309.05 596.16 307.39 595.83C307.17 595.83 306.98 595.75 306.79 595.72C302.628 594.888 298.58 593.565 294.73 591.78C283.08 586.35 282.34 572.2 283.4 561.03C286.61 526.42 298.62 493.33 310.03 460.65C311.25 457.12 312.5 453.59 313.69 450.05C314.05 449.05 314.4 447.99 314.75 446.93C317.523 439.185 319.696 431.238 321.25 423.16C321.65 420.85 321.95 418.52 322.17 416.16C322.906 407.109 325.218 398.256 329 390" stroke="black" stroke-width="4.08" stroke-miterlimit="10"/>
<path d="M370 583.199C370 583.199 385.18 598.569 376.13 615.509" stroke="black" stroke-width="4.08" stroke-miterlimit="10"/>
<path d="M238.32 686.201C239.32 686.201 248.89 673.981 277.62 693.131C297.62 706.471 337.53 743.301 379.99 750.511C416.99 756.791 453.47 736.771 469.64 702.931C499.31 640.811 525.75 532.541 459.82 478.811C408.12 436.711 354.58 500.371 333.56 530.331C330.1 535.281 326.91 540.401 323.86 545.611C323.81 535.731 322.45 527.021 325.66 517.361C329.13 506.891 336.66 501.541 345.35 495.711C351.67 491.481 356.9 485.161 361.35 479.101C370.59 466.601 378.59 451.511 381.24 436.101C382.96 426.101 380.96 414.211 368.1 416.731C343.86 421.511 329.85 398.031 329.85 398.031" stroke="black" stroke-width="4.08" stroke-miterlimit="10"/>
<path d="M737.91 897.568C737.924 897.472 737.924 897.374 737.91 897.278C737.64 889.338 734.78 881.648 730.52 874.478C715.12 848.648 681.18 829.328 681.18 829.328" stroke="black" stroke-width="4.08" stroke-miterlimit="10"/>
<path d="M585.52 646.919C623.09 625.049 677.23 608.149 750.73 614.519C772.73 616.429 795.8 624.249 806.87 644.819C818.59 666.609 814.47 694.709 809.71 717.769C803.44 748.209 791.35 777.049 779.48 805.639C769.48 829.789 758.71 853.639 747.48 877.269C744.313 883.936 741.1 890.602 737.84 897.269C737.68 897.649 737.51 897.969 737.38 898.269" stroke="black" stroke-width="4.08" stroke-miterlimit="10"/>
<path d="M721.35 888C722.422 892.569 725.147 896.58 729 899.26C735.29 903.33 737.93 899.19 737.76 895.49" stroke="black" stroke-width="4.08" stroke-miterlimit="10"/>
<path d="M600.94 831.84C600.94 831.84 636.65 839.9 652.62 868.61C656.87 876.25 648.07 884.61 640.9 879.61C638.14 877.69 635.37 874.61 632.9 869.69" stroke="black" stroke-width="4.08" stroke-miterlimit="10"/>
<path d="M651.93 877.87C652.82 876.45 679.93 836.25 679.93 836.25" stroke="black" stroke-width="4.08" stroke-miterlimit="10"/>
<path d="M646.52 859.648C646.52 859.648 660.19 872.938 648.59 880.438C636.99 887.938 631.36 868.228 637.29 866.768C643.22 865.308 646.52 859.648 646.52 859.648Z" fill="black"/>
<path d="M729.2 875.852C729.2 875.852 742.95 887.362 735.89 897.322C728.83 907.282 719.67 887.582 723.89 884.982C728.11 882.382 729.2 875.852 729.2 875.852Z" fill="black"/>
<path d="M720 297.09C700.588 304.347 679.555 306.125 659.2 302.23C652.944 307.457 645.842 311.58 638.2 314.42C637.87 314.53 637.57 314.67 637.2 314.75C636.68 320.905 634.809 326.87 631.72 332.219C628.631 337.568 624.4 342.17 619.329 345.697C614.258 349.224 608.472 351.589 602.382 352.623C596.292 353.657 590.049 353.336 584.098 351.681C578.147 350.026 572.634 347.079 567.952 343.05C563.27 339.021 559.535 334.008 557.012 328.37C554.489 322.732 553.241 316.606 553.356 310.431C553.472 304.255 554.948 298.18 557.68 292.64C545.735 278.034 540.034 259.305 541.815 240.521C543.595 221.736 552.714 204.412 567.19 192.31C566.943 171.572 572.396 151.164 582.953 133.312C593.51 115.46 608.766 100.849 627.057 91.0738C645.349 81.2981 665.973 76.7326 686.682 77.8752C707.39 79.0177 727.387 85.8245 744.492 97.5532C761.597 109.282 775.153 125.482 783.682 144.387C792.211 163.292 795.385 184.176 792.858 204.762C790.332 225.347 782.201 244.843 769.353 261.125C756.505 277.406 739.434 289.847 720 297.09Z" fill="#B1B2FF"/>
<path d="M710.6 298.68C692.669 305.381 673.24 307.021 654.44 303.42C648.646 308.252 642.072 312.063 635 314.69C634.7 314.79 634.43 314.91 634.12 314.99C633.668 320.7 631.958 326.24 629.112 331.211C626.267 336.183 622.357 340.463 617.662 343.746C612.968 347.028 607.605 349.232 601.959 350.198C596.313 351.164 590.523 350.868 585.004 349.333C579.486 347.798 574.375 345.061 570.039 341.318C565.702 337.575 562.248 332.919 559.923 327.684C557.598 322.448 556.46 316.764 556.591 311.037C556.722 305.31 558.118 299.683 560.68 294.56C549.645 281.071 544.377 263.774 546.021 246.425C547.665 229.075 556.088 213.075 569.46 201.9C569.23 182.742 574.265 163.889 584.016 147.397C593.766 130.906 607.859 117.408 624.755 108.377C641.652 99.3453 660.704 95.1271 679.834 96.1822C698.964 97.2373 717.436 103.525 733.237 114.36C749.038 125.195 761.561 140.16 769.439 157.624C777.317 175.089 780.248 194.381 777.912 213.397C775.577 232.413 768.064 250.422 756.195 265.461C744.325 280.5 728.553 291.99 710.6 298.68Z" fill="#B1B2FF"/>
<path d="M304.65 196.6C314.913 207.071 322.095 220.166 325.41 234.45C330.59 237.005 335.297 240.424 339.33 244.56C339.49 244.74 339.67 244.89 339.81 245.08C343.95 243.622 348.361 243.099 352.727 243.547C357.094 243.995 361.306 245.404 365.064 247.673C368.821 249.941 372.03 253.013 374.461 256.667C376.891 260.322 378.483 264.469 379.122 268.812C379.761 273.154 379.431 277.584 378.156 281.784C376.881 285.983 374.692 289.849 371.747 293.104C368.802 296.358 365.174 298.92 361.121 300.607C357.069 302.294 352.694 303.063 348.31 302.859C342.291 314.777 331.812 323.837 319.151 328.072C306.489 332.308 292.668 331.376 280.69 325.48C267.342 331.586 252.574 333.91 237.995 332.198C223.417 330.486 209.589 324.803 198.019 315.77C186.449 306.736 177.583 294.699 172.386 280.972C167.189 267.244 165.862 252.352 168.549 237.922C171.236 223.492 177.835 210.076 187.625 199.139C197.415 188.202 210.02 180.164 224.066 175.9C238.111 171.637 253.058 171.313 267.276 174.963C281.493 178.613 294.435 186.097 304.69 196.6H304.65Z" fill="#B1B2FF"/>
<path d="M720 297.09C700.588 304.347 679.555 306.125 659.2 302.23C652.944 307.457 645.842 311.58 638.2 314.42C637.87 314.53 637.57 314.67 637.2 314.75C636.68 320.905 634.809 326.87 631.72 332.219C628.631 337.568 624.4 342.17 619.329 345.697C614.258 349.224 608.472 351.589 602.382 352.623C596.292 353.657 590.049 353.336 584.098 351.681C578.147 350.026 572.634 347.079 567.952 343.05C563.27 339.021 559.535 334.008 557.012 328.37C554.489 322.732 553.241 316.606 553.356 310.431C553.472 304.255 554.948 298.18 557.68 292.64C545.735 278.034 540.034 259.305 541.815 240.521C543.595 221.736 552.714 204.412 567.19 192.31C566.943 171.572 572.396 151.164 582.953 133.312C593.51 115.46 608.766 100.849 627.057 91.0738C645.349 81.2981 665.973 76.7326 686.682 77.8752C707.39 79.0177 727.387 85.8245 744.492 97.5532C761.597 109.282 775.153 125.482 783.682 144.387C792.211 163.292 795.385 184.176 792.858 204.762C790.332 225.347 782.201 244.843 769.353 261.125C756.505 277.406 739.434 289.847 720 297.09Z" stroke="black" stroke-width="4.08" stroke-miterlimit="10"/>
<path d="M304.65 196.6C314.913 207.071 322.095 220.166 325.41 234.45C330.59 237.005 335.297 240.424 339.33 244.56C339.49 244.74 339.67 244.89 339.81 245.08C343.95 243.622 348.361 243.099 352.727 243.547C357.094 243.995 361.306 245.404 365.064 247.673C368.821 249.941 372.03 253.013 374.461 256.667C376.891 260.322 378.483 264.469 379.122 268.812C379.761 273.154 379.431 277.584 378.156 281.784C376.881 285.983 374.692 289.849 371.747 293.104C368.802 296.358 365.174 298.92 361.121 300.607C357.069 302.294 352.694 303.063 348.31 302.859C342.291 314.777 331.812 323.837 319.151 328.072C306.489 332.308 292.668 331.376 280.69 325.48C267.342 331.586 252.574 333.91 237.995 332.198C223.417 330.486 209.589 324.803 198.019 315.77C186.449 306.736 177.583 294.699 172.386 280.972C167.189 267.244 165.862 252.352 168.549 237.922C171.236 223.492 177.835 210.076 187.625 199.139C197.415 188.202 210.02 180.164 224.066 175.9C238.111 171.637 253.058 171.313 267.276 174.963C281.493 178.613 294.435 186.097 304.69 196.6H304.65Z" stroke="black" stroke-width="4.08" stroke-miterlimit="10"/>
<path d="M306.11 208.069C315.284 217.445 321.705 229.161 324.67 241.939C329.3 244.212 333.51 247.255 337.12 250.939C337.271 251.088 337.415 251.245 337.55 251.409C341.253 250.105 345.199 249.636 349.105 250.037C353.011 250.438 356.78 251.698 360.141 253.727C363.502 255.756 366.373 258.503 368.547 261.773C370.721 265.042 372.145 268.752 372.716 272.636C373.288 276.521 372.992 280.484 371.851 284.24C370.71 287.997 368.752 291.455 366.117 294.366C363.482 297.277 360.236 299.568 356.611 301.077C352.986 302.585 349.072 303.272 345.15 303.089C339.77 313.751 330.398 321.858 319.072 325.646C307.746 329.434 295.382 328.598 284.67 323.319C272.732 328.784 259.523 330.866 246.483 329.338C233.443 327.81 221.073 322.73 210.723 314.652C200.372 306.575 192.439 295.81 187.787 283.532C183.136 271.254 181.946 257.935 184.347 245.027C186.747 232.119 192.647 220.118 201.401 210.334C210.155 200.549 221.429 193.356 233.991 189.54C246.554 185.724 259.923 185.431 272.64 188.693C285.358 191.955 296.935 198.647 306.11 208.039V208.069Z" fill="#B1B2FF"/>
<path d="M633.338 122.902C643.093 118.745 649.892 112.773 648.523 109.561C647.155 106.35 638.138 107.117 628.382 111.274C618.627 115.431 611.828 121.404 613.197 124.615C614.565 127.826 623.582 127.059 633.338 122.902Z" fill="#D7E8F0"/>
<path d="M290.776 209.775C292.304 207.461 287.845 201.823 280.817 197.182C273.789 192.541 266.853 190.654 265.325 192.967C263.797 195.281 268.256 200.919 275.284 205.56C282.313 210.201 289.248 212.088 290.776 209.775Z" fill="#D7E8F0"/>
<path d="M711.35 126.91V228.83C711.349 230.228 710.842 231.578 709.923 232.631C709.004 233.684 707.735 234.369 706.35 234.56C706.203 234.063 706.132 233.548 706.14 233.03V214C706.14 212.013 705.351 210.108 703.946 208.704C702.542 207.299 700.636 206.51 698.65 206.51H660C661.986 206.51 663.891 207.299 665.296 208.704C666.701 210.108 667.49 212.013 667.49 214V234.6H656.49C654.952 234.6 653.476 233.991 652.385 232.906C651.295 231.821 650.678 230.348 650.67 228.81V126.91C650.673 125.367 651.287 123.888 652.378 122.797C653.468 121.707 654.947 121.092 656.49 121.09H705.56C707.097 121.1 708.569 121.718 709.653 122.808C710.737 123.898 711.347 125.372 711.35 126.91Z" fill="white"/>
<path d="M696.71 144.691H665.26C662.355 144.691 660 147.046 660 149.951V157.421C660 160.326 662.355 162.681 665.26 162.681H696.71C699.615 162.681 701.97 160.326 701.97 157.421V149.951C701.97 147.046 699.615 144.691 696.71 144.691Z" fill="#D7E8F0"/>
<path d="M732.69 245.682V268.912C732.69 269.66 732.393 270.377 731.864 270.906C731.335 271.435 730.618 271.732 729.87 271.732H695.79C695.042 271.732 694.325 271.435 693.796 270.906C693.267 270.377 692.97 269.66 692.97 268.912V246.432C692.966 244.69 692.276 243.019 691.05 241.782C690.133 240.865 688.964 240.242 687.692 239.99C686.42 239.738 685.102 239.869 683.905 240.367C682.707 240.865 681.685 241.707 680.966 242.787C680.248 243.867 679.867 245.135 679.87 246.432C679.849 247.479 679.418 248.476 678.67 249.209C677.923 249.942 676.917 250.352 675.87 250.352H673.62C671.983 250.352 670.412 249.702 669.254 248.545C668.095 247.389 667.443 245.819 667.44 244.182V214.002C667.44 212.015 666.651 210.11 665.246 208.706C663.842 207.301 661.936 206.512 659.95 206.512H698.56C699.548 206.505 700.527 206.694 701.442 207.068C702.356 207.441 703.188 207.992 703.889 208.688C704.589 209.384 705.145 210.212 705.525 211.124C705.905 212.036 706.1 213.014 706.1 214.002V233.002C706.092 233.52 706.163 234.036 706.31 234.532C706.65 235.833 707.411 236.985 708.475 237.808C709.539 238.631 710.845 239.079 712.19 239.082H726.13C726.994 239.083 727.85 239.255 728.648 239.588C729.446 239.92 730.17 240.407 730.78 241.02C731.389 241.633 731.872 242.361 732.199 243.161C732.527 243.961 732.694 244.817 732.69 245.682Z" fill="#D7E8F0"/>
<path d="M732.69 245.682V268.912C732.69 269.66 732.393 270.377 731.864 270.906C731.335 271.435 730.618 271.732 729.87 271.732H695.79C695.042 271.732 694.325 271.435 693.796 270.906C693.267 270.377 692.97 269.66 692.97 268.912V246.432C692.966 244.69 692.276 243.019 691.05 241.782C690.133 240.865 688.964 240.242 687.692 239.99C686.42 239.738 685.102 239.869 683.905 240.367C682.707 240.865 681.685 241.707 680.966 242.787C680.248 243.867 679.867 245.135 679.87 246.432C679.849 247.479 679.418 248.476 678.67 249.209C677.923 249.942 676.917 250.352 675.87 250.352H673.62C671.983 250.352 670.412 249.702 669.254 248.545C668.095 247.389 667.443 245.819 667.44 244.182V214.002C667.44 212.015 666.651 210.11 665.246 208.706C663.842 207.301 661.936 206.512 659.95 206.512H698.56C699.548 206.505 700.527 206.694 701.442 207.068C702.356 207.441 703.188 207.992 703.889 208.688C704.589 209.384 705.145 210.212 705.525 211.124C705.905 212.036 706.1 213.014 706.1 214.002V233.002C706.092 233.52 706.163 234.036 706.31 234.532C706.65 235.833 707.411 236.985 708.475 237.808C709.539 238.631 710.845 239.079 712.19 239.082H726.13C726.994 239.083 727.85 239.255 728.648 239.588C729.446 239.92 730.17 240.407 730.78 241.02C731.389 241.633 731.872 242.361 732.199 243.161C732.527 243.961 732.694 244.817 732.69 245.682Z" fill="#B1B2FF"/>
<path d="M747.13 162.66H711.34V210.62H747.13V162.66Z" fill="white"/>
<path d="M650.63 143.379V186.639H611C610.233 186.639 609.498 186.336 608.953 185.797C608.408 185.258 608.098 184.525 608.09 183.759V146.289C608.09 145.517 608.397 144.777 608.942 144.231C609.488 143.685 610.228 143.379 611 143.379H650.63Z" fill="#D7E8F0"/>
<path d="M650.63 153.68H608.1V162.67H650.63V153.68Z" fill="#D7E8F0"/>
<path d="M739.07 196V177.81C734.93 177.81 731.57 174.9 731.57 171.31V170.82H711.34V202.49H730.64C730.64 198.85 734.09 195.92 738.3 196H739.07Z" fill="#D7E8F0"/>
<path d="M625.53 180.66C628.43 180.66 630.78 178.31 630.78 175.41C630.78 172.511 628.43 170.16 625.53 170.16C622.631 170.16 620.28 172.511 620.28 175.41C620.28 178.31 622.631 180.66 625.53 180.66Z" fill="#D7E8F0"/>
<path d="M650.63 193.629V222.219C649.097 222.74 647.489 223.004 645.87 222.999C643.858 223.051 641.855 222.699 639.981 221.965C638.107 221.23 636.398 220.128 634.957 218.723C633.515 217.318 632.369 215.639 631.587 213.784C630.805 211.929 630.402 209.937 630.402 207.924C630.402 205.911 630.805 203.918 631.587 202.063C632.369 200.209 633.515 198.529 634.957 197.124C636.398 195.719 638.107 194.617 639.981 193.883C641.855 193.149 643.858 192.797 645.87 192.849C647.489 192.843 649.097 193.107 650.63 193.629Z" fill="white"/>
<path d="M693 246.43V250.35H675.92C676.967 250.35 677.973 249.94 678.72 249.207C679.468 248.474 679.899 247.477 679.92 246.43C679.917 245.133 680.298 243.865 681.016 242.785C681.735 241.706 682.757 240.864 683.955 240.366C685.152 239.868 686.47 239.736 687.742 239.988C689.014 240.24 690.183 240.864 691.1 241.78C692.319 243.021 693.001 244.691 693 246.43Z" fill="#B1B2FF"/>
<path d="M696.71 144.691H665.26C662.355 144.691 660 147.046 660 149.951V157.421C660 160.326 662.355 162.681 665.26 162.681H696.71C699.615 162.681 701.97 160.326 701.97 157.421V149.951C701.97 147.046 699.615 144.691 696.71 144.691Z" fill="#B1B2FF"/>
<path d="M650.63 143.379V186.639H611C610.233 186.639 609.498 186.336 608.953 185.797C608.408 185.258 608.098 184.525 608.09 183.759V146.289C608.09 145.517 608.397 144.777 608.942 144.231C609.488 143.685 610.228 143.379 611 143.379H650.63Z" fill="white"/>
<path d="M650.63 153.68H608.1V162.67H650.63V153.68Z" fill="#B1B2FF"/>
<path d="M739.07 196V177.81C734.93 177.81 731.57 174.9 731.57 171.31V170.82H711.34V202.49H730.64C730.64 198.85 734.09 195.92 738.3 196H739.07Z" fill="#B1B2FF"/>
<path d="M625.53 180.66C628.43 180.66 630.78 178.31 630.78 175.41C630.78 172.511 628.43 170.16 625.53 170.16C622.631 170.16 620.28 172.511 620.28 175.41C620.28 178.31 622.631 180.66 625.53 180.66Z" fill="#B1B2FF"/>
<path d="M667.49 234.62H656.49C654.952 234.62 653.476 234.011 652.385 232.926C651.295 231.841 650.678 230.368 650.67 228.83V126.91C650.673 125.367 651.287 123.888 652.378 122.797C653.468 121.707 654.947 121.092 656.49 121.09H705.56C707.103 121.092 708.581 121.707 709.672 122.797C710.763 123.888 711.377 125.367 711.38 126.91V228.83C711.379 230.228 710.872 231.578 709.953 232.631C709.034 233.684 707.765 234.369 706.38 234.56" stroke="#B1B2FF" stroke-width="2.72" stroke-miterlimit="10"/>
<path d="M592.61 219.11C589.183 218.09 585.531 218.11 582.115 219.166C578.7 220.222 575.674 222.267 573.42 225.042C571.166 227.817 569.786 231.199 569.453 234.758C569.121 238.318 569.851 241.896 571.552 245.041C573.253 248.186 575.848 250.755 579.009 252.426C582.17 254.096 585.756 254.791 589.312 254.424C592.868 254.057 596.236 252.643 598.989 250.362C601.742 248.082 603.758 245.036 604.78 241.61C605.459 239.333 605.683 236.945 605.439 234.582C605.195 232.219 604.488 229.927 603.358 227.838C602.228 225.748 600.697 223.902 598.852 222.404C597.008 220.907 594.887 219.787 592.61 219.11ZM583.53 249.59C582.861 249.384 582.3 248.924 581.967 248.309C581.635 247.693 581.556 246.972 581.75 246.3C581.899 245.797 582.193 245.349 582.597 245.014C583 244.679 583.494 244.47 584.016 244.416C584.537 244.361 585.063 244.463 585.527 244.708C585.991 244.952 586.372 245.329 586.622 245.79C586.871 246.252 586.978 246.777 586.929 247.299C586.88 247.821 586.678 248.317 586.346 248.724C586.015 249.131 585.571 249.43 585.07 249.585C584.568 249.739 584.032 249.74 583.53 249.59ZM592.66 231.1C592.66 231.19 592.58 231.28 592.55 231.37C591.067 235.014 589.225 238.501 587.05 241.78C586.886 241.948 586.679 242.069 586.451 242.128C586.224 242.188 585.984 242.184 585.758 242.117C585.533 242.05 585.33 241.922 585.172 241.749C585.013 241.575 584.905 241.361 584.86 241.13C584.886 238.148 585.113 235.171 585.54 232.22C585.81 230.06 585.6 226.37 587.34 224.71C588.89 223.23 591.81 223.86 593.18 225.29C594.71 226.88 593.39 229.36 592.66 231.1Z" fill="white"/>
<path d="M584 276.11C579.011 279.174 575.043 283.648 572.597 288.967C570.15 294.286 569.337 300.211 570.258 305.993C571.18 311.774 573.795 317.153 577.773 321.448C581.751 325.743 586.914 328.762 592.608 330.123C598.303 331.484 604.272 331.126 609.763 329.094C615.254 327.062 620.018 323.447 623.455 318.707C626.891 313.967 628.844 308.314 629.068 302.464C629.291 296.614 627.775 290.829 624.71 285.84C622.677 282.528 620.01 279.648 616.864 277.366C613.717 275.084 610.152 273.445 606.371 272.541C602.59 271.637 598.669 271.488 594.83 272.1C590.992 272.712 587.312 274.075 584 276.11ZM611.24 320.46C610.262 321.045 609.093 321.221 607.986 320.949C606.879 320.677 605.924 319.98 605.328 319.009C604.732 318.038 604.543 316.871 604.801 315.761C605.06 314.651 605.746 313.688 606.71 313.08C607.688 312.495 608.858 312.32 609.964 312.592C611.071 312.863 612.026 313.56 612.622 314.532C613.218 315.503 613.408 316.67 613.149 317.78C612.89 318.89 612.204 319.853 611.24 320.46ZM598.66 289.15L598.87 289.57C601.698 295.358 603.939 301.415 605.56 307.65C605.96 309.16 603.56 310.65 602.38 309.65C598.76 306.334 595.369 302.776 592.23 299C589.89 296.32 585.16 292.54 585.04 288.61C584.92 285.1 588.88 282.24 592.12 282.12C595.72 282 597.32 286.35 598.63 289.15H598.66Z" fill="white"/>
<path d="M196.35 236.94L205.66 258C207.296 261.677 210.293 264.578 214.022 266.094C217.751 267.61 221.922 267.623 225.66 266.13L246.74 257.43C248.551 256.677 250.193 255.568 251.568 254.17C252.944 252.771 254.024 251.11 254.746 249.286C255.468 247.462 255.816 245.512 255.77 243.551C255.725 241.59 255.286 239.658 254.48 237.87L245.16 216.8C243.53 213.117 240.533 210.211 236.802 208.695C233.071 207.178 228.897 207.169 225.16 208.67L204.07 217.36C202.258 218.114 200.616 219.225 199.241 220.626C197.866 222.027 196.787 223.69 196.067 225.516C195.347 227.342 195.001 229.294 195.05 231.257C195.098 233.219 195.541 235.152 196.35 236.94Z" fill="white"/>
<path d="M201.86 240.85L208.61 256.11C210.029 259.31 212.635 261.835 215.879 263.152C219.123 264.469 222.752 264.476 226 263.17L244.31 255.62C245.884 254.965 247.31 254.001 248.505 252.785C249.699 251.569 250.638 250.126 251.264 248.541C251.891 246.955 252.193 245.26 252.153 243.556C252.113 241.852 251.731 240.174 251.03 238.62L250.58 237.62C245.76 233.5 237.4 227.84 234.12 234.81C229.38 244.81 223.66 241.24 216.35 236.58C210.19 232.65 202.78 231.07 201.86 240.85Z" fill="#B1B2FF"/>
<path d="M235.159 223.943C236.804 221.409 236.031 217.987 233.432 216.3C230.833 214.613 227.393 215.3 225.748 217.834C224.103 220.368 224.876 223.789 227.475 225.476C230.074 227.163 233.514 226.477 235.159 223.943Z" fill="#B1B2FF"/>
<path d="M309.94 250.889C309.976 251.654 309.841 252.418 309.543 253.124C309.245 253.83 308.793 254.46 308.22 254.969L294.73 267.059C294.222 267.516 293.629 267.868 292.985 268.095C292.34 268.322 291.657 268.419 290.975 268.381C290.292 268.343 289.625 268.171 289.009 267.873C288.394 267.576 287.844 267.16 287.39 266.649L269.25 246.409C268.33 245.382 267.856 244.032 267.931 242.656C268.006 241.279 268.624 239.989 269.65 239.069L283.15 226.999C284.193 226.115 285.535 225.664 286.9 225.738C288.265 225.813 289.549 226.407 290.49 227.399L308.62 247.629C309.433 248.524 309.901 249.68 309.94 250.889Z" fill="white"/>
<path d="M304.89 250.269L288.31 248.269C288.099 248.243 287.904 248.142 287.761 247.984C287.617 247.826 287.536 247.622 287.53 247.409L287.05 230.409C287.045 230.228 287.096 230.049 287.196 229.897C287.296 229.745 287.44 229.627 287.609 229.56C287.778 229.492 287.964 229.478 288.141 229.519C288.318 229.56 288.478 229.654 288.6 229.789L305.67 248.789C305.793 248.925 305.871 249.094 305.894 249.276C305.917 249.457 305.884 249.641 305.799 249.803C305.713 249.964 305.58 250.096 305.418 250.179C305.255 250.263 305.071 250.294 304.89 250.269Z" fill="#B1B2FF"/>
<path d="M247.97 311.252C257.519 311.252 265.26 303.511 265.26 293.962C265.26 284.413 257.519 276.672 247.97 276.672C238.421 276.672 230.68 284.413 230.68 293.962C230.68 303.511 238.421 311.252 247.97 311.252Z" fill="white"/>
<path d="M249.59 301.461C249.014 301.663 248.41 301.778 247.8 301.801C246.741 301.859 245.697 301.526 244.866 300.867C244.035 300.207 243.474 299.266 243.29 298.221C243.165 297.539 243.203 296.837 243.399 296.172C243.595 295.506 243.945 294.897 244.42 294.391C243.577 293.944 242.899 293.24 242.486 292.38C242.072 291.521 241.944 290.552 242.12 289.614C242.297 288.677 242.769 287.821 243.467 287.171C244.165 286.52 245.052 286.111 246 286.001C248.112 285.937 250.197 286.489 252 287.591C252.917 288.104 253.782 288.707 254.58 289.391C254.98 289.741 257.33 291.661 257.2 292.171C256.32 295.501 253.29 300.151 249.59 301.461Z" fill="#B1B2FF"/>
<path d="M311.45 309.302C309.964 309.932 308.433 310.451 306.87 310.852C291.87 314.562 288.94 300.522 288.94 300.522L302.03 300.142C301.279 299.105 300.795 297.9 300.62 296.632C300.446 295.364 300.587 294.072 301.03 292.872C302.84 288.012 309.98 288.512 309.98 288.512L313.43 284.852L313.76 290.002L319.04 287.712L317.04 291.712C321.74 294.422 329.33 304.342 319.04 313.012C308.75 321.682 302.04 316.012 302.04 316.012L306.88 310.882" fill="white"/>
<path d="M307.39 295.809C308.412 295.809 309.24 294.981 309.24 293.959C309.24 292.938 308.412 292.109 307.39 292.109C306.368 292.109 305.54 292.938 305.54 293.959C305.54 294.981 306.368 295.809 307.39 295.809Z" fill="#B1B2FF"/>
<path d="M675.92 218.352H696.34" stroke="white" stroke-width="2.72" stroke-miterlimit="10"/>
<path d="M675.92 225.922H696.34" stroke="white" stroke-width="2.72" stroke-miterlimit="10"/>
<path d="M675.92 233.5H696.34" stroke="white" stroke-width="2.72" stroke-miterlimit="10"/>
<path d="M703.08 248.238H723.51" stroke="white" stroke-width="2.72" stroke-miterlimit="10"/>
<path d="M703.08 255.809H723.51" stroke="white" stroke-width="2.72" stroke-miterlimit="10"/>
<path d="M703.08 263.379H723.51" stroke="white" stroke-width="2.72" stroke-miterlimit="10"/>
</svg>
