<svg id="레이어_1" data-name="레이어 1" xmlns="http://www.w3.org/2000/svg" viewBox="0 0 1080 1080"><defs><style>.cls-1{fill:#0c59ff;}.cls-2{fill:#fff;}</style></defs><path class="cls-1" d="M515.53.57C217.62,14-13,266.4.57,564.37s265.91,528.47,563.86,515.07,528.53-266,515-563.89S813.54-13,515.53.57Z"/><path class="cls-2" d="M802.27,619.38c-28.65,71.28-76.66,91.32-76.66,91.32,141.24-143.12,55-308,55-308-20.84-37,5.7-53.07,5.7-53.07C725.61,364.74,744.57,415,744.57,415c30.48,72.6,24.35,131.59,14,168.07l-20-11.21.32-.46s47.35-186.62-145.8-252.07l-.17-35.12H552.16V515.46l189.56,108q-5.19,10.54-10.93,19.87L540.41,533,349.21,643.33q-5.73-9.35-10.93-19.87l189.56-108V284.19H487.08l-.15,35.12C293.76,384.76,341.11,571.38,341.11,571.38l.32.46-20,11.21c-10.35-36.49-16.48-95.48,14-168.07,0,0,19-50.22-41.71-65.39,0,0,26.54,16.12,5.7,53.07,0,0-86.27,164.92,55,308,0,0-48-20.13-76.63-91.32,0,0-16.27-34.73-61.76-27.15,0,0,17.28,7.77,27.26,39.24,0,0,41,130.43,199.28,150.32v72H520.3V747.68s-82.45-.67-145.41-69.94l19.55-11.38c3.63,3.43,63.48,58.82,145.13,60.26h.95c81.65-1.44,141.5-56.83,145.13-60.26l19.44,11.38c-63,69.27-145.41,69.94-145.41,69.94V853.83h77.76v-72c158.3-19.89,199.28-150.32,199.28-150.32C846.8,600,864,592.23,864,592.23,818.51,584.65,802.27,619.38,802.27,619.38ZM701,550.52l-.15.19-106.94-59.9-.58-127.95h.58S722.78,397.91,701,550.52ZM486.13,362.86h.58l-.58,128-106.94,59.9-.15-.19C357.22,397.91,486.13,362.86,486.13,362.86Zm54.19,218.57,106.62,62.33v.2l-1-.54c-38.12,30.11-74.52,40.07-106,40.07s-67.87-10-106-40.09l-.95.54v-.2l107.26-62.33Z"/></svg>