<svg id="레이어_1" data-name="레이어 1" xmlns="http://www.w3.org/2000/svg" viewBox="0 0 1080 1080"><defs><style>.cls-1{fill:#ff0c00;}.cls-2{fill:#fff;}</style></defs><circle class="cls-1" cx="540" cy="540" r="540"/><path class="cls-2" d="M163.06,538.75a1.51,1.51,0,0,0-1,1.88,1.53,1.53,0,0,0,.89,1h0l116.64,77L313,461.46Z"/><path class="cls-2" d="M853.68,461.35H824.17a13.65,13.65,0,0,0-5.25,1.32L671.07,538.86c-1.38.62-1.43,1.94-.15,2.8h0l114.69,75.47a11.37,11.37,0,0,0,5.14,1.49h29.49c1.53,0,1.7-.64.45-1.49l-117.05-77L854,462.67C855.36,462,855.17,461.35,853.68,461.35Z"/><path class="cls-2" d="M790.56,461.35H585L551.62,618.62H757.08c1.56,0,1.71-.64.45-1.49l-116.85-77L790.8,462.67C792.16,462,792,461.35,790.56,461.35Z"/><path class="cls-2" d="M916.73,461.35H887.24a13.88,13.88,0,0,0-5.25,1.32L734.16,538.86c-1.36.62-1.38,1.94-.13,2.8h0l114.7,75.47a10.9,10.9,0,0,0,5.1,1.49h29.61c1.51,0,1.75-.64.43-1.49l-117.07-77,150.31-77.44C918.43,462,918.3,461.35,916.73,461.35Z"/><path class="cls-2" d="M781.38,358.56H297.67c-27,0-45.88,17-50.37,38a28.19,28.19,0,0,0,10.8,28.82L432,540h.13L781.7,359.73C783.09,359,783,358.56,781.38,358.56Z"/><path class="cls-2" d="M704.68,720h0L432,540h0L209.52,654.76c-11.84,7-20.58,17.28-23,28.79-4.52,21,7.12,38,34.17,38H704.16C705.74,721.55,706,720.88,704.68,720Z"/></svg>